/* XPM */
static char *package_x_generic[] = {
/* columns rows colors chars-per-pixel */
"48 48 154 2 ",
"   c #724B0B",
".  c #7D530D",
"X  c #87580E",
"o  c #9F6710",
"O  c #9D6813",
"+  c #A0670C",
"@  c #A2690E",
"#  c #A46C13",
"$  c #AA6F11",
"%  c #A46D18",
"&  c #AD7113",
"*  c #A7711A",
"=  c #A9741D",
"-  c #B67815",
";  c #B4781B",
":  c #BB7C1B",
">  c #A77320",
",  c #AB7521",
"<  c #AE7926",
"1  c #AD7A28",
"2  c #B37B23",
"3  c #B87F24",
"4  c #A17C3E",
"5  c #BF811F",
"6  c #BD8225",
"7  c #B48232",
"8  c #B5853A",
"9  c #B8883B",
"0  c #C5841D",
"q  c #C9871E",
"w  c #CE8A1E",
"e  c #D28D1F",
"r  c #C48626",
"t  c #C78927",
"y  c #CE8A20",
"u  c #C18529",
"i  c #CC8D29",
"p  c #D48E20",
"a  c #D79022",
"s  c #DB9323",
"d  c #D3922A",
"f  c #C68A30",
"g  c #C68F3B",
"h  c #CC933C",
"j  c #D29332",
"k  c #D89837",
"l  c #D2993D",
"z  c #B18947",
"x  c #B88941",
"c  c #BF914A",
"v  c #BE9451",
"b  c #BA9C6D",
"n  c #BA9E71",
"m  c #C09043",
"M  c #CB9441",
"N  c #C3964B",
"B  c #CE9948",
"V  c #D29B47",
"C  c #D29F4F",
"Z  c #C39855",
"A  c #C39C5C",
"S  c #D7A14E",
"D  c #D6A355",
"F  c #DBA655",
"G  c #D2A45E",
"H  c #DFAC5D",
"J  c #CDA563",
"K  c #D5AA65",
"L  c #DCAD64",
"P  c #D1AB6F",
"I  c #CDA970",
"U  c #D3AD71",
"Y  c #D7B074",
"T  c #DDB577",
"R  c #DCB67A",
"E  c #DFB87A",
"W  c #E4B264",
"Q  c #E2B36A",
"!  c #E8B76B",
"~  c #EABA6F",
"^  c #E6B870",
"/  c #EABC76",
"(  c #E1BA7E",
")  c #ECBF7A",
"_  c #ECC07C",
"`  c #BCAA8D",
"'  c #BEBBB3",
"]  c #C2AE8D",
"[  c #DFBA81",
"{  c #D3BA93",
"}  c #DBBE92",
"|  c #D5BF9B",
" . c #E3BD82",
".. c #C3BDB3",
"X. c #DFC08C",
"o. c #DDC193",
"O. c #E4C085",
"+. c #ECC483",
"@. c #E5C28B",
"#. c #EEC789",
"$. c #EEC98D",
"%. c #E2C394",
"&. c #E9C791",
"*. c #EDCA93",
"=. c #E2C69A",
"-. c #E7C99D",
";. c #EBCC9C",
":. c #F0CD96",
">. c #F0CF99",
",. c #EFD09F",
"<. c #F1D19D",
"1. c #D7C2A1",
"2. c #D9C6A7",
"3. c #D6C4A8",
"4. c #D9C8AD",
"5. c #CAC5BD",
"6. c #D6C6B0",
"7. c #DACCB6",
"8. c #D3CABB",
"9. c #E5CCA5",
"0. c #ECCEA2",
"q. c #EDD0A5",
"w. c #EAD2AD",
"e. c #F1D3A4",
"r. c #F2D6AB",
"t. c #F3D8AE",
"y. c #EBD6B4",
"u. c #EDD8B7",
"i. c #EEDABC",
"p. c #F0D7B1",
"a. c #F2D9B2",
"s. c #F1DCBC",
"d. c #C5C5C5",
"f. c #CFCAC3",
"g. c #D3CDC3",
"h. c #D2CDC8",
"j. c #DFD3C0",
"k. c #D6D2CC",
"l. c gray84",
"z. c #E6DAC8",
"x. c #F2DFC1",
"c. c #ECE0CF",
"v. c #F4E1C5",
"b. c #F6E5CA",
"n. c #F8E8CF",
"m. c #E2E0DD",
"M. c #E9E3D9",
"N. c #F2E6D4",
"B. c #F8ECD9",
"V. c #E2E2E1",
"C. c #EBEBEB",
"Z. c #F3F3F2",
"A. c #FAFAFA",
"S. c None",
/* pixels */
"S.S.S.S.S.S.S.S.S.S.S.S.S.S.S.S.S.S.S.S.S.S.S.S.S.S.S.S.S.S.S.S.S.S.S.S.S.S.S.S.S.S.S.S.S.S.S.S.",
"S.S.S.S.S.S.S.S.S.S.S.S.S.S.S.S.S.S.S.S.S.S.S.S.S.S.S.S.S.S.S.S.S.S.S.S.S.S.S.S.S.S.S.S.S.S.S.S.",
"S.S.S.S.S.S.S.S.S.S.S.S.S.S.S.S.S.S.S.S.S.S.S.S.S.S.S.S.S.S.S.S.S.S.S.S.S.S.S.S.S.S.S.S.S.S.S.S.",
"S.S.S.S.S.S.S.S.S.S.S.S.S.S.S.S.S.S.S.S.S.S.S.S.S.S.S.S.S.S.S.S.S.S.S.S.S.S.S.S.S.S.S.S.S.S.S.S.",
"S.S.S.S.S.S.S.S.S.S.S.S.S.S.S.S.S.S.S.S.S.S.S.S.S.S.S.S.S.S.S.S.S.S.S.S.S.S.S.S.S.S.S.S.S.S.S.S.",
"S.S.S.S.S.S.S.S.S.S.S.S.S.S.S.S.S.S.S.S.S.S.S.S.S.S.S.S.S.S.S.S.S.S.S.S.S.S.S.S.S.S.S.S.S.S.S.S.",
"S.S.S.S.S.S.S.S.S.S.S.S.S.S.S.S.S.S.S.S.S.S.S.S.S.S.S.S.S.S.S.S.S.S.S.S.S.S.S.S.S.S.S.S.S.S.S.S.",
"S.S.S.S.S.S.S.S.S.S.S.S.S.S.S.S.S.S.S.S.S.S.S.S.S.S.S.S.S.S.S.S.S.S.S.S.S.S.S.S.S.S.S.S.S.S.S.S.",
"S.S.S.S.S.S.S.S.S.S.S.S.S.S.S.S.S.S.S.S.S.S.S.S.S.S.S.S.S.S.S.S.S.S.S.S.S.S.S.S.S.S.S.S.S.S.S.S.",
"S.S.S.S.S.S.S.S.S.S.S.S.S.@ + + + + + + + + + @ @ @ @ + @ @ @ # @ o S.S.S.S.S.S.S.S.S.S.S.S.S.S.",
"S.S.S.S.S.S.S.S.S.S.% % c  . .[  . . .@.&.&.-.-.0.q.w.p.p.u.s.s.i.y.1 @ S.S.S.S.S.S.S.S.S.S.S.S.",
"S.S.S.S.S.S.S.S.% # v %.E < > > , , , 2 2 2 3 3 6 u t t i i d d d J =.y & @ # S.S.S.S.S.S.S.S.S.",
"S.S.S.S.S.S.S.% 8 s.n.R N % % % % * = 2 7 ; ; : : 0 f r 0 q y y e e o.L s w $ @ S.S.S.S.S.S.S.S.",
"S.S.S.S.S.S.% 7 b.n.-.T * % % % % n M.A.Z.V.] z 3.A.Z.C.8.A w y e a j y.k a w # + S.S.S.S.S.S.S.",
"S.S.S.S.S.S.1 v.n.b.E 8 % % % O ` C.Z.Z.C.V.d.V.Z.Z.Z.C.m.l.b q e a a K =.a p q # S.S.S.S.S.S.S.",
"S.S.S.S.S.* u.n.n.X.R 8 8 8 8 4 8.g.g.g.f...' k.k.k.k.h.f.5...8 h l k V w.G e w 0 @ S.S.S.S.S.S.",
"S.S.S.S.% w.n.u.A 0.,.,.,.<.,.-.%.} } { { | 1.2.4.4.4.7.j.z.c.N.B.B.B.B.B.x.- q r : + S.S.S.S.S.",
"S.S.S.# 9.9.x % o.p.<.<.<.<.<.<.<.<.>.>.>.>.>.>.:.:.:.:.:.*.:.$.$.$.$.$.#.s.U + & : - @ S.S.S.S.",
"S.S.% I 8 # @ A v.<.<.<.<.>.>.>.>.:.:.:.:.:.*.*.*.$.$.$.$.$.$.#.#.#.#.#.#.$.x.c # @ & & @ S.S.S.",
"S.% # @ S.S.= x.e.>.:.:.:.*.:.:.$.:.$.$.$.$.$.#.#.#.$.$.#.#.#.+.#.+.+.+.+.+.,.s.= S.+ + @ + S.S.",
"@ # S.S.S.% 9.t.:.:.$.$.:.$.$.$.$.$.#.#.#.#.#.#.#.+.+.+.+.+._ +.+.) +._ _ _ ) r.0.@ S.S.S.+ + S.",
"S.S.S.S.S.Z x.:.*.$.:.$.$.$.$.#.#.$.#.#.#.#.+.#.+.+.+.+.+. .+._ ) +.) ) ) ) )  .s.U % S.S.S.S.S.",
"S.S.S.S.* s.v.v.v.v.v.v.v.v.v.x.x.v.v.v.x.v.v.x.v.v.x.v.v.x.v.v.v.v.v.x.v.x.x.x.v.x.7 S.S.S.S.S.",
"S.S.S.S.+ + + + + + + @ + + + + @ + @ + @ @ o + + @ + + @ + @ @ + + @ + + @ + + + + + @ S.S.S.S.",
"S.S.S.S.S.S.S.@ } u u r u u r r u u 6 r u u u r r u r u u u u u 6 u u u u g Y + S.S.S.S.S.S.S.S.",
"S.S.S.S.S.S.S.@ @.f f f f f f f f f f f f f f f f f f f f f f f f f f f f M Y + S.S.S.S.S.S.S.S.",
"S.S.S.S.S.S.S.@ %.h h h g h h h g h h j f h h h h h h h h h f h h j h h g B R + S.S.S.S.S.S.S.S.",
"S.S.S.S.S.S.S.@ -.h h M h M h h h h V h M M h l h M h h h M h M V h h h h S R + S.S.S.S.S.S.S.S.",
"S.S.S.S.S.S.S.@ -.V V V V V V V V V V V V V V V V V V V V V V V V V V V V D  .@ S.S.S.S.S.S.S.S.",
"S.S.S.S.S.S.S.@ 0.S C S S S S S S S S S S S S S S S S S S S S S S S S S S G  .+ S.S.S.S.S.S.S.S.",
"S.S.S.S.S.S.S.@ 0.F F F F F F F F F F F F F F F F F F F F F F F F F F F F L @.+ S.S.S.S.S.S.S.S.",
"S.S.S.S.S.S.S.@ e.H H H H H H H H H H H H H H H H H H H H H H H H H H H H Q @.@ S.S.S.S.S.S.S.S.",
"S.S.S.S.S.S.S.@ r.W W W W W W W W W W W W W W W W W W W W W W W W W W W W ~ &.@ S.S.S.S.S.S.S.S.",
"S.S.S.S.S.S.S.@ t.! ! ! ! ! ! ! ! ! ! ! ! ! ! ! ! ! ! ! ! ! ! ! ! ! ! ! ! / *.@ S.S.S.S.S.S.S.S.",
"S.S.S.S.S.S.S.@ t.~ ~ ~ ~ ~ ~ ~ ~ ~ ~ ~ ~ ~ ~ ~ ~ ~ ~ ~ ~ ~ ~ ~ ~ ~ ~ ~ ~ ) -.@ S.S.S.S.S.S.S.S.",
"S.S.S.S.S.S.S.@ t.~ ~ ~ ~ ~ ~ ~ ~ ~ ~ ~ ~ ~ ~ ~ ~ ~ ~ ~ ~ ~ ~ ~ ~ ~ ~ ~ ~ _ *.@ S.S.S.S.S.S.S.S.",
"S.S.S.S.S.S.S.@ ,.+._ _ ) _ _ _ _ _ _ ) _ _ ) ) ) ) ) ) ) ) ) ) ) ) ) ) ) #. .# S.S.S.S.S.S.S.S.",
"S.S.S.S.S.S.S.X 8 &.*.-.&.&.;.&.-.&.*.*.*.&.&.&.&.&.&.&.&.&.&.&.&.&.&.&.&.O.1   S.S.S.S.S.S.S.S.",
"S.S.S.S.S.S.S.S.. o o o o o @ o o o o o o o @ o @ o o o @ O @ O @ o o o @ o   S.S.S.S.S.S.S.S.S.",
"S.S.S.S.S.S.S.S.S.S.S.S.S.S.S.S.S.S.S.S.S.S.S.S.S.S.S.S.S.S.S.S.S.S.S.S.S.S.S.S.S.S.S.S.S.S.S.S.",
"S.S.S.S.S.S.S.S.S.S.S.S.S.S.S.S.S.S.S.S.S.S.S.S.S.S.S.S.S.S.S.S.S.S.S.S.S.S.S.S.S.S.S.S.S.S.S.S.",
"S.S.S.S.S.S.S.S.S.S.S.S.S.S.S.S.S.S.S.S.S.S.S.S.S.S.S.S.S.S.S.S.S.S.S.S.S.S.S.S.S.S.S.S.S.S.S.S.",
"S.S.S.S.S.S.S.S.S.S.S.S.S.S.S.S.S.S.S.S.S.S.S.S.S.S.S.S.S.S.S.S.S.S.S.S.S.S.S.S.S.S.S.S.S.S.S.S.",
"S.S.S.S.S.S.S.S.S.S.S.S.S.S.S.S.S.S.S.S.S.S.S.S.S.S.S.S.S.S.S.S.S.S.S.S.S.S.S.S.S.S.S.S.S.S.S.S.",
"S.S.S.S.S.S.S.S.S.S.S.S.S.S.S.S.S.S.S.S.S.S.S.S.S.S.S.S.S.S.S.S.S.S.S.S.S.S.S.S.S.S.S.S.S.S.S.S.",
"S.S.S.S.S.S.S.S.S.S.S.S.S.S.S.S.S.S.S.S.S.S.S.S.S.S.S.S.S.S.S.S.S.S.S.S.S.S.S.S.S.S.S.S.S.S.S.S.",
"S.S.S.S.S.S.S.S.S.S.S.S.S.S.S.S.S.S.S.S.S.S.S.S.S.S.S.S.S.S.S.S.S.S.S.S.S.S.S.S.S.S.S.S.S.S.S.S.",
"S.S.S.S.S.S.S.S.S.S.S.S.S.S.S.S.S.S.S.S.S.S.S.S.S.S.S.S.S.S.S.S.S.S.S.S.S.S.S.S.S.S.S.S.S.S.S.S."
};
