/* XPM */
static char *application_x_executable[] = {
/* columns rows colors chars-per-pixel */
"48 48 103 2 ",
"   c #373C55",
".  c #3D425B",
"X  c #3E4663",
"o  c #414663",
"O  c #434A66",
"+  c #464D69",
"@  c #494E69",
"#  c #4D516A",
"$  c #545B76",
"%  c #5C5E76",
"&  c #525C7A",
"*  c #5A5F79",
"=  c #5D617A",
"-  c #62647D",
";  c #325584",
":  c #3C5C8A",
">  c #42618E",
",  c #566386",
"<  c #466490",
"1  c #4B6693",
"2  c #4E6995",
"3  c #526B97",
"4  c #556E99",
"5  c #5B739C",
"6  c #5E799F",
"7  c #656780",
"8  c #6D6D83",
"9  c #6D768D",
"0  c #6F788F",
"q  c #646D91",
"w  c #687696",
"e  c #6D799B",
"r  c #747C93",
"t  c #7A7B94",
"y  c #717D9F",
"u  c #7C7E9C",
"i  c #6176A0",
"p  c #657BA2",
"a  c #6B7DA6",
"s  c #6F7FA8",
"d  c #717EA3",
"f  c #778196",
"g  c #788196",
"h  c #7C809F",
"j  c #6C84A7",
"k  c #6F83A8",
"l  c #7581A4",
"z  c #7A83A6",
"x  c #7483AB",
"c  c #7986AD",
"v  c #7689AD",
"b  c #7B89AF",
"n  c #7E8AB0",
"m  c #7D90B1",
"M  c #838393",
"N  c #8A8B97",
"B  c #8087AA",
"V  c #858AAC",
"C  c #8A8FAF",
"Z  c #8890A6",
"A  c #8692AF",
"S  c #838DB3",
"D  c #8592B5",
"F  c #8892B7",
"G  c #8C94B9",
"H  c #8B9EB9",
"J  c #9494B3",
"K  c #919EB6",
"L  c #9197BC",
"P  c #939BBE",
"I  c #9B9BB9",
"U  c #94A2BD",
"Y  c #9AA7BC",
"T  c #9BA9BD",
"R  c #979EC0",
"E  c #9A9DC1",
"W  c #97A7C0",
"Q  c #9EA2C4",
"!  c #97A9C0",
"~  c #9CACC3",
"^  c #A1A5C6",
"/  c #A1AEC5",
"(  c #A4ADC8",
")  c #A8AECA",
"_  c #A2B0C7",
"`  c #A5B3C9",
"'  c #AAB6CC",
"]  c #AEB9CE",
"[  c #B1B7CF",
"{  c #B1BACF",
"}  c #BCBDCE",
"|  c #B3BCD1",
" . c #B8BFD4",
".. c #B5C2D3",
"X. c #BBC3D6",
"o. c #BFC4D8",
"O. c #C3C6DA",
"+. c #C5C9DC",
"@. c #C9CCDE",
"#. c #CCCEE0",
"$. c #DDE3EB",
"%. c #E0E4EC",
"&. c None",
/* pixels */
"&.&.&.&.&.&.&.&.&.&.&.&.&.&.&.&.&.&.&.&.&.&.&.&.&.&.&.&.&.&.&.&.&.&.&.&.&.&.&.&.&.&.&.&.&.&.&.&.",
"&.&.&.&.&.&.&.&.&.&.&.&.&.&.&.&.&.&.&.&.&.&.&.&.&.&.&.&.&.&.&.&.&.&.&.&.&.&.&.&.&.&.&.&.&.&.&.&.",
"&.&.&.&.&.&.&.&.&.&.&.&.&.&.&.&.&.&.&.&.&.&.&.&.&.&.&.&.&.&.&.&.&.&.&.&.&.&.&.&.&.&.&.&.&.&.&.&.",
"&.&.&.&.&.&.&.&.&.&.&.&.&.&.&.&.&.&.&.&.&.&.&.X X &.&.&.&.&.&.&.&.&.&.&.&.&.&.&.&.&.&.&.&.&.&.&.",
"&.&.&.&.&.&.&.&.&.&.&.&.&.&.&.&.&.&.&.&.&.&.X 9 Y + &.&.&.&.&.&.&.&.&.&.&.&.&.&.&.&.&.&.&.&.&.&.",
"&.&.&.&.&.&.&.&.&.&.&.&.&.&.&.&.&.&.&.&.&.X 9 $...T + &.&.&.&.&.&.&.&.&.&.&.&.&.&.&.&.&.&.&.&.&.",
"&.&.&.&.&.&.&.&.&.&.&.&.&.&.&.&.&.&.&.&.X 0 $.| ; j / @ &.&.&.&.&.&.&.&.&.&.&.&.&.&.&.&.&.&.&.&.",
"&.&.&.&.&.&.&.&.&.&.&.&.&.&.&.&.&.&.&.X r $...! j ; j / + &.&.&.&.&.&.&.&.&.&.&.&.&.&.&.&.&.&.&.",
"&.&.&.&.&.&.&.&.&.&.&.&.&.&.&.&.&.&.X f $...! ! Y H ! 6 _ + &.&.&.&.&.&.&.&.&.&.&.&.&.&.&.&.&.&.",
"&.&.&.&.&.&.&.&.&.&.&.&.&.&.&.&.&.X w $...~ ~ ~ ! ! 6 : 6 ~ + &.&.&.&.&.&.&.&.&.&.&.&.&.&.&.&.&.",
"&.&.&.&.&.&.&.&.&.&.&.&.&.&.&.&.X f $...~ ! ~ ~ ~ ~ < > : 5 T + &.&.&.&.&.&.&.&.&.&.&.&.&.&.&.&.",
"&.&.&.&.&.&.&.&.&.&.&.&.&.&.&.X f %...~ ~ ~ ~ ~ ~ _ j 2 > > 5 Y + &.&.&.&.&.&.&.&.&.&.&.&.&.&.&.",
"&.&.&.&.&.&.&.&.&.&.&.&.&.&.X f $...~ _ _ _ ~ _ _ _ _ _ 5 < < 5 Y o &.&.&.&.&.&.&.&.&.&.&.&.&.&.",
"&.&.&.&.&.&.&.&.&.&.&.&.&.X r $...~ _ _ _ _ _ _ _ _ ~ j 2 < 2 < 5 K + &.&.&.&.&.&.&.&.&.&.&.&.&.",
"&.&.&.&.&.&.&.&.&.&.&.&.o r $.X._ _ _ _ _ _ _ ` _ _ T 1 1 1 2 2 2 5 / @ &.&.&.&.&.&.&.&.&.&.&.&.",
"&.&.&.&.&.&.&.&.&.&.&.X r $.X._ _ _ _ _ _ _ ' _ ` ` ! 3 3 3 3 3 4 D ] { @ &.&.&.&.&.&.&.&.&.&.&.",
"&.&.&.&.&.&.&.&.&.&.X f $...` _ _ _ ` ` ` ` ' _ ' ` ' _ j 4 4 4 4 j ' ] ] + &.&.&.&.&.&.&.&.&.&.",
"&.&.&.&.&.&.&.&.&.X r $.X.` ` _ ` ` ` ' ` ' ' ' ' ' U m 5 5 5 5 5 b ] ' ] ' @ &.&.&.&.&.&.&.&.&.",
"&.&.&.&.&.&.&.&.o g %.X.` ` ` ' _ ' ' ' ` ' ` ] ' ' j 4 p ( ~ j W [ ] { ] Y A O &.&.&.&.&.&.&.&.",
"&.&.&.&.&.&.&.o f $.X.` ` ' ` ' ' ' ' ' ' ] ] ] ] ] p 5 a ' ] ] { { { ~ x p p d O &.&.&.&.&.&.&.",
"&.&.&.&.&.&.o f %.X.' ' ' ' ' ' ] ' ] ] ' ] ] ] ] ] ' p i S | ] { { S p p a a a d O &.&.&.&.&.&.",
"&.&.&.&.&.o r %.X.] ' ' ] ' ' ] ] ] ] ] ] ] ] ] ~ v S i i ~ | | [ n a a a a s s k e O &.&.&.&.&.",
"&.&.&.&.X r $...' ] ] ] ] ] ] ] ] ] ] ] ] | ] ] x a m s D | | | S a s s s s s s x x q o &.&.&.&.",
"&.&.&.&.X | o.] ] ] ] ] ] | ] ] ] | | | ..] ..| S U  .| |  ...D s s s s c s x x x d $ O o &.&.&.",
"&.&.&.&.&.o w ` ] ] | ] | ] | | | | | | | ) n ( D F |  . . ./ s x x x x x c c c d $ + o &.&.&.&.",
"&.&.&.&.&.&.o , | | | | | | | | | | ..| | x s s k k m  . . .n c x x c b c n n d $ + o &.&.&.&.&.",
"&.&.&.&.&.&.&.O Z D D _ | | ....| ( G P X.m s c x x P X. .( c c c b n n n S d $ o o &.&.&.&.&.&.",
"&.&.&.&.&.&.&.&.O & s D | D x F X.D x s D c s c c c ' X.X.G b b S n n S S d * O + &.&.&.&.&.&.&.",
"&.&.&.&.&.&.&.&.&.o & x R s s c W n x c c c c D [ [  .o.X.n S n S S S S z * + o &.&.&.&.&.&.&.&.",
"&.&.&.&.&.&.&.&.&.&.O & s x c c x c c c b n b R o.o.O.o.] S S S S S F z = + + &.&.&.&.&.&.&.&.&.",
"&.&.&.&.&.&.&.&.&.&.&.O & x b b b n n n n n S S R [ O.O.) S F F D F z = + o &.&.&.&.&.&.&.&.&.&.",
"&.&.&.&.&.&.&.&.&.&.&.&.O & x n n n S n S S S D D Q O.+.) F F G G V - + + &.&.&.&.&.&.&.&.&.&.&.",
"&.&.&.&.&.&.&.&.&.&.&.&.&.o & z S S S S F F F F F ^ +.+.) L G G V - @ O &.&.&.&.&.&.&.&.&.&.&.&.",
"&.&.&.&.&.&.&.&.&.&.&.&.&.&.+ & z F F F F F G G G ) +.+.) L R V - @ O &.&.&.&.&.&.&.&.&.&.&.&.&.",
"&.&.&.&.&.&.&.&.&.&.&.&.&.&.&.o $ z G G G L G ^ +.+.#.@.} R C - @ O &.&.&.&.&.&.&.&.&.&.&.&.&.&.",
"&.&.&.&.&.&.&.&.&.&.&.&.&.&.&.&.O * u L L L L ^ @.@.#.@.+.C 7 @ O &.&.&.&.&.&.&.&.&.&.&.&.&.&.&.",
"&.&.&.&.&.&.&.&.&.&.&.&.&.&.&.&.&.O * u R L R E Q Q +.#.} 8 # o &.&.&.&.&.&.&.&.&.&.&.&.&.&.&.&.",
"&.&.&.&.&.&.&.&.&.&.&.&.&.&.&.&.&.&.O * u R E I E E [ } N % o &.&.&.&.&.&.&.&.&.&.&.&.&.&.&.&.&.",
"&.&.&.&.&.&.&.&.&.&.&.&.&.&.&.&.&.&.&.O * u E Q Q Q I N 7 . &.&.&.&.&.&.&.&.&.&.&.&.&.&.&.&.&.&.",
"&.&.&.&.&.&.&.&.&.&.&.&.&.&.&.&.&.&.&.&.o = t ^ ^ I M - . &.&.&.&.&.&.&.&.&.&.&.&.&.&.&.&.&.&.&.",
"&.&.&.&.&.&.&.&.&.&.&.&.&.&.&.&.&.&.&.&.&.o - t J M - . &.&.&.&.&.&.&.&.&.&.&.&.&.&.&.&.&.&.&.&.",
"&.&.&.&.&.&.&.&.&.&.&.&.&.&.&.&.&.&.&.&.&.&.o - 8 # . &.&.&.&.&.&.&.&.&.&.&.&.&.&.&.&.&.&.&.&.&.",
"&.&.&.&.&.&.&.&.&.&.&.&.&.&.&.&.&.&.&.&.&.&.&.o @ . &.&.&.&.&.&.&.&.&.&.&.&.&.&.&.&.&.&.&.&.&.&.",
"&.&.&.&.&.&.&.&.&.&.&.&.&.&.&.&.&.&.&.&.&.&.&.&.  &.&.&.&.&.&.&.&.&.&.&.&.&.&.&.&.&.&.&.&.&.&.&.",
"&.&.&.&.&.&.&.&.&.&.&.&.&.&.&.&.&.&.&.&.&.&.&.&.&.&.&.&.&.&.&.&.&.&.&.&.&.&.&.&.&.&.&.&.&.&.&.&.",
"&.&.&.&.&.&.&.&.&.&.&.&.&.&.&.&.&.&.&.&.&.&.&.&.&.&.&.&.&.&.&.&.&.&.&.&.&.&.&.&.&.&.&.&.&.&.&.&.",
"&.&.&.&.&.&.&.&.&.&.&.&.&.&.&.&.&.&.&.&.&.&.&.&.&.&.&.&.&.&.&.&.&.&.&.&.&.&.&.&.&.&.&.&.&.&.&.&.",
"&.&.&.&.&.&.&.&.&.&.&.&.&.&.&.&.&.&.&.&.&.&.&.&.&.&.&.&.&.&.&.&.&.&.&.&.&.&.&.&.&.&.&.&.&.&.&.&."
};
