/* XPM */
static char *html[] = {
/* columns rows colors chars-per-pixel */
"48 48 235 2 ",
"   c #131324",
".  c #16162B",
"X  c #1B1B36",
"o  c #1E1E3B",
"O  c #353535",
"+  c #232344",
"@  c #343442",
"#  c #3A3A42",
"$  c #33334C",
"%  c #2B2B52",
"&  c #343452",
"*  c #36365E",
"=  c #393964",
"-  c #36366A",
";  c #3C3C6D",
":  c #424243",
">  c #4C4C4B",
",  c #545454",
"<  c #5C5C5C",
"1  c #43436E",
"2  c #545461",
"3  c #434372",
"4  c #494977",
"5  c #4D4D7A",
"6  c #525274",
"7  c #53537D",
"8  c #666666",
"9  c #6C6C6C",
"0  c #737373",
"q  c #7B7B7B",
"w  c #3F608D",
"e  c #3B6293",
"r  c #3C679B",
"t  c #3D689C",
"y  c #3E6DA4",
"u  c #3E70A9",
"i  c #555580",
"p  c #5B5B84",
"a  c #5F5F88",
"s  c #4F698B",
"d  c #596B85",
"f  c #516D8F",
"g  c #586C8B",
"h  c #416695",
"j  c #4B6A95",
"k  c #426B9C",
"l  c #5D7399",
"z  c #5D789F",
"x  c #636385",
"c  c #6C6C81",
"v  c #64648B",
"b  c #69698E",
"n  c #6B6B91",
"m  c #627391",
"M  c #65789D",
"N  c #6F7B9D",
"B  c #717194",
"V  c #707A95",
"C  c #757599",
"Z  c #757A9C",
"A  c #7C7C9C",
"S  c #4771A2",
"D  c #4870A2",
"F  c #4174AD",
"G  c #5E79A1",
"H  c #577BA8",
"J  c #4376B0",
"K  c #4678B1",
"L  c #4B7DB4",
"P  c #677DA3",
"I  c #797FA1",
"U  c #75869A",
"Y  c #7B8499",
"T  c #78899D",
"R  c #5B81AC",
"E  c #5181B7",
"W  c #5585BA",
"Q  c #5C8ABD",
"!  c #7683A5",
"~  c #7C81A3",
"^  c #7B87A8",
"/  c #7B91A9",
"(  c #6287B1",
")  c #618AB7",
"_  c #6F89B0",
"`  c #658EBD",
"'  c #6F92B9",
"]  c #7095BE",
"[  c #5F8DC0",
"{  c #608EC0",
"}  c #6591C2",
"|  c #6995C5",
" . c #7197C2",
".. c #719AC7",
"X. c #729BC9",
"o. c #7AA2CE",
"O. c #838383",
"+. c #8C8C8C",
"@. c #878792",
"#. c #84849E",
"$. c #898B9A",
"%. c #949494",
"&. c #93979C",
"*. c #9C9C9C",
"=. c #8484A2",
"-. c #8C8CA4",
";. c #8088A9",
":. c #8B8BA9",
">. c #8D92AD",
",. c #8E9AA8",
"<. c #9090A4",
"1. c #9098A7",
"2. c #9A9AA3",
"3. c #9494A9",
"4. c #9F9FAE",
"5. c #9B9BB5",
"6. c #919DBC",
"7. c #99A1AB",
"8. c #9BA7B7",
"9. c #97A7B9",
"0. c #9DA3BE",
"q. c #A4A4A4",
"w. c #AAAAAA",
"e. c #ACACB7",
"r. c #A2A3BB",
"t. c #A9A9BF",
"y. c #A6B0BB",
"u. c #AAB4BE",
"i. c #B4B4B4",
"p. c #B4B5BA",
"a. c #B6B8BA",
"s. c #BCBCBC",
"d. c #C0C0BF",
"f. c #8CA6C9",
"g. c #8BA9CA",
"h. c #98A3C0",
"j. c #92AAC3",
"k. c #93AECA",
"l. c #9DB4CC",
"z. c #80A7D1",
"x. c #85ABD3",
"c. c #8AADD4",
"v. c #8EB2D8",
"b. c #9AB4D2",
"n. c #91B4DA",
"m. c #96B8DD",
"M. c #9ABBDF",
"N. c #A9ACC3",
"B. c #A1B0C4",
"V. c #ADB9C7",
"C. c #A4B3C9",
"Z. c #AEBCCB",
"A. c #B4B4C3",
"S. c #B4BDC7",
"D. c #B6B6C9",
"F. c #BCBCCB",
"G. c #ABBFD6",
"H. c #A5BEDA",
"J. c #B3BBD1",
"K. c #9CBDE0",
"L. c #A6C1DE",
"P. c #ABC2DB",
"I. c #B3C1D5",
"U. c #BAC7D5",
"Y. c #BDC9D6",
"T. c #B1C5DC",
"R. c #BCC5D8",
"E. c #BACBDD",
"W. c #A4C3E4",
"Q. c #AAC7E6",
"!. c #ADC8E4",
"~. c #ACC9E8",
"^. c #B3CAE3",
"/. c #B8CFE7",
"(. c #B3CEEB",
"). c #BDD0E4",
"_. c #B6D1EE",
"`. c #BBD3EC",
"'. c #B7D3F0",
"]. c #BDD7F3",
"[. c #C6C6C6",
"{. c #C8C7C7",
"}. c #C8C8C7",
"|. c #C0C3CB",
" X c #CACACA",
".X c #C4C4D1",
"XX c #C7CBD1",
"oX c #C1CDDB",
"OX c #CFCFDB",
"+X c #C6D1DB",
"@X c #CCD2DB",
"#X c #D3D3D3",
"$X c #D3D5DB",
"%X c #D4D9DD",
"&X c #DDDDDD",
"*X c #C0CFE2",
"=X c #C5D2E0",
"-X c #CAD4E3",
";X c #CDDAE7",
":X c #C2D5EA",
">X c #C6D9EE",
",X c #CBDBED",
"<X c #D4D6E1",
"1X c #D3DCE4",
"2X c #DDDFE4",
"3X c #D3DEEA",
"4X c #C3DBF3",
"5X c #C9DEF4",
"6X c #DDE2E7",
"7X c #DBE3EC",
"8X c #CDE1F6",
"9X c #CBE2FA",
"0X c #D3E3F4",
"qX c #DAE6F2",
"wX c #DCE8F4",
"eX c #D5E7F9",
"rX c #D6E8FB",
"tX c #DCEDFD",
"yX c #DFF0FF",
"uX c #E4E4E4",
"iX c #E8E8E7",
"pX c #E2E6EB",
"aX c #E7E8EC",
"sX c #EBEBEB",
"dX c #E4EBF2",
"fX c #EBEEF2",
"gX c #E1EEFC",
"hX c #EEF1F5",
"jX c #E1F0FF",
"kX c #EDF3F9",
"lX c #F2F3F3",
"zX c #F2F6FB",
"xX c #F5F8FB",
"cX c #FDFDFD",
"vX c None",
/* pixels */
"vXvXvXvXvXvXvXvXvXvXvXvXvXvXvXvXvXvXvXvXvXvXvXvXvXvXvXvXvXvXvXvXvXvXvXvXvXvXvXvXvXvXvXvXvXvXvXvX",
"vXvXvXvXvXvXvXvXvXvXvXvXvXvXvXvXvXvXvXvXvXvXvXvXvXvXvXvXvXvXvXvXvXvXvXvXvXvXvXvXvXvXvXvXvXvXvXvX",
"vXvXvXvXvXvXvXvXvXvXvXvXvXvXvXvXvXvXvXvXvXvXvXvXvXvXvXvXvXvXvXvXvXvXvXvXvXvXvXvXvXvXvXvXvXvXvXvX",
"vXvXvXvXvXvXvX*.q.q.w.w.w.w.q.q.q.q.*.*.*.&.%.%.%.+.+.+.+.O.O.O.q O.q q q 0 0 0 9 vXvXvXvXvXvXvX",
"vXvXvXvXvXvX*.#XsXsXsXsXsXiXsXiXiXsXiXiXiXiXuXuXuXuXuXuXuXuX&XuX&XuX&X&X&X&X&X&X[.8 vXvXvXvXvXvX",
"vXvXvXvXvXvX*.sXsXuXuXuXsXiXiXiXiXiXiXiXiXiXiXiXiXiXiXiXiXsXiXiXiXsXsXiXsXiXiXfXuX9 vXvXvXvXvXvX",
"vXvXvXvXvXvX*.sXiX&X&X&XuX&X&XuX&X&XuX&XuXuX&XuXuXuXuXuXuXuXuXuXuXuXuXuXuXuXuXiX&X0 vXvXvXvXvXvX",
"vXvXvXvXvXvX*.iXsX&X&X&XuXuX&XuXuXuXuXuXuXuXuXiXuXuXiXuXuXiXuXiXuXiXuXuXiXuXuXiXuX9 vXvXvXvXvXvX",
"vXvXvXvXvXvX*.iXiX&X2X&XuXuX&XuX&X&X&X&X&X&X&X&X&XuX&XuX&XuX&XuX&XuX&XuXuXiXuXsXuX9 vXvXvXvXvXvX",
"vXvXvXvXvXvX*.iXiX&XuX&XuXuXuX&X}.[.[.[.}.}.}.[.{.[.{.[.{.{.{.[.}.}.}. XuXiXuXsX&X0 vXvXvXvXvXvX",
"vXvXvXvXvXvX%.iXiXuXuX&XuXuXuXuX&X#X&X&X&X&X&X&X&X&X&X&X&X&X&X&X&X&X&X&XuXiXiXsXuX9 vXvXvXvXvXvX",
"vXvXvXvXvXvX*.iXiX&XuX&XuXuXuX&X X}.[.}.[.}.}.}.[.{.{.{.{. X{.{. X}. X XuXiXiXsX&X0 vXvXvXvXvXvX",
"vXvXvXvXvXvX%.iXiX&XuX&XiXuXuXuX&X&X&X&X&X&X&X&X&X&X&X&X&X&X&X&X&X&X&XuXiXiXiXsXuX0 vXvXvXvXvXvX",
"vXvXvXvXvXvX%.uXiXuX&XuXiXiXiX&X}.}.[.[.}.}.}.}. X X X X X{. X X X}. X XiXiXiXfX&X9 vXvXvXvXvXvX",
"vXvXvXvXvXvX%.uXsXuX&X&XiXuXuXuX&X&X&X&X&X&X&X&X&X&X&X&X&XuX2X&X&XuX&XuXiXsXsXsXuX9 vXvXvXvXvXvX",
"vXvXvXvXvXvX%.uXsXuXuXuXiXiXiXuX X}.}.}.}. X X X X X X X X X X X X X X XiXsXsXsXuX9 vXvXvXvXvXvX",
"vXvXvXvXvXvX+.uXsXuXuXuXiXuXuXuX&X&X&X&X&X&XuX&X&XuX&XuX&X&X$X#X#X$X&XiXsXsXfXsXuX9 vXvXvXvXvXvX",
"vXvXvXvXvXvX+.uXsX#X XuXaXiXiXuX X}.}. X X X X X X Xp.<.B v p p p a b #.|.iXsXsXuX9 vXvXvXvXvXvX",
"vXvXvXvXvXvX+.uXiX[.i. XsXiXiXiXuX&X&XuX&X&X&XuXXX#.7 b :.N.F..XD.r.:.b 7 B A.aXuX9 vXvXvXvXvXvX",
"vXvXvXvXvXvX+.uXsX}.p.&XsXiXiXuX X}. X}. X X[.<.i A .XpXfXcXcXcX2X).).R.N.A 5 =.XX9 vXvXvXvXvXvX",
"vXvXvXvXvXvX+.&XsXuXuXuXsXiXiXiX&X&XuX&XuX#XA p D.aXfX0XqXxXcXsXY./.^.L.T.<XA.b 7 2 vXvXvXvXvXvX",
"vXvXvXvXvXvXO.uXsXuXiXuXsXiXiXiX X X}.}.[.B n <XpXoX3X1XwXhXOX=X-X)./.`.dX%XaX@X#.; vXvXvXvXvXvX",
"vXvXvXvXvXvXO.&XsXuXuXuXsXsXiXiXuX&XuXuX-.v 2XwX:XdXdXqXgX3X0XeX,X:X:X,X1XU.sXlXiX=.; vXvXvXvXvX",
"vXvXvXvXvXvXO.uXsXiXiXuXsXiXsXiX#X}. X4.7 OXcXkXgXcXlXdXgXgXtXeX5X,X1X;X1XdXcXsXiX&Xb - vXvXvXvX",
"vXvXvXvXvXvXO.&XsXiXiXuXsXsXiXiX&XuX$Xv r.cXcXcXcXsX%X;XgXjXgXrX0X>X3XcXcXcXcXsXuXuXF.4 vXvXvXvX",
"vXvXvXvXvXvXO.&XsXiXiXuXsXsXsXiX X X3.a aXcXcXcXlX%X3XtXyXjXjXrX0X0XhX1XpXlXcXlXuX&X&XA - vXvXvX",
"vXvXvXvXvXvXq &XsXiXiXiXsXsXsXsXsXuXB 5.cXcXcXlX+XeXjXjXgXgXgXrX0XqX$XT.T.I.E.6XuX&X&Xp.3 vXvXvX",
"vXvXvXvXvXvXq &XsXiXiXuXsXsXsXsXsX$Xp $XcXcXxX+X8XyXyXgXyXyXyXeX5X0XdXxXqX^.H.l.uX#XXX#Xx vXvXvX",
"vXvXvXvXvXvXq &XsXiXuXiXsXsXsXsXsXA.x fX6XoX=X).9XrXyXyXyXyXeX8XeXxXcXcXcXcXxX6X%X#Xy.|.A - vXvX",
"vXvXvXvXvXvX0 &XiX Xs.&XsXsXsXiX#X-.C fXl.W.~.'.4X9XrXrXrXeX8X5XgXcXcXcXcXcXcXuXC.#Xy.8.A ; vXvX",
"vXvXvXvXvXvX0 &XsX}.i.#XfXsXsXsXiX-.A lX,XE.W.(.'.].4X9X8X5X4X4XkXcXcXcXcXcXxXsXZ.V.[.1.A ; vXvX",
"vXvXvXvXvXvX0 &XsX&X#XiXsXsXsXiX#XA C OX;X1XW.(._._.'.'.'.`.`.`.zXcXcXcXcXcXsXiXXX9.U z A ; vXvX",
"vXvXvXvXvXvX0 &XsXsXsXiXfXsXsXsXuX3.b R.x.H.).dXzXqXQ.Q.Q.W.W.K.`.cXxXxXcXlXsX&X#X[.U G C ; vXvX",
"vXvXvXvXvXvX9 &XsXiXiXiXsXsXsXsX#X3.a D.x.x.L.cXcXcX0XL.K.K.m.n.v.P.l.k.7XsXuX#X Xa.f P b - vXvX",
"vXvXvXvXvXvX9 #XfXsXiXiXsXsXsXsXuXF.i N.c.o.:XcXcXcXcXwX!.n.v.x.z.o...| I.uX%X#X[.U e ! p - vXvX",
"vXvXvXvXvXvX9 &XsXiXiXiXlXsXsXsX#X[.p :.b.X.;XcXcXcXcXcXxXT.o.o.X...| Q f.&X#X{.i.f j ~ 4 vXvXvX",
"vXvXvXvXvXvX8 &XsXiXiXiXsXsXlXsXuXuX<.a C...b.lXxXcXcXcXlX9.X...| | [ W ] XX{.s.w.s M n ; vXvXvX",
"vXvXvXvXvXvX8 &XsXiXiXiXsXsXsXsX X#Xp.7 >.f.} G.sXsXlXlX2X] } } ` Q W L ' [.s.i.&.g ~ 5 vXvXvXvX",
"vXvXvXvXvXvX8 #XlXiXsXiXsXlXsXsXiXiXsX<.i 0. .Q oXuXuXiXS.) Q Q E E L J ( a.i.q.g N v ; vXvXvXvX",
"vXvXvXvXvXvX< &XsXiXsXsXsXsXsXsXsXfXfX$Xa n 0.` B.#X#Xu.R E E L L K u u S 7.w.%.V B 3 vXvXvXvXvX",
"vXvXvXvXvXvX< &XlXiXiXiXsXsXsXlXlXsXsX&Xe.6 B 6.B. X[./ F K K F F u y r e U *.$.C 3 % vXvXvXvXvX",
"vXvXvXvXvXvX< #XsXiXiXiXsXsXsXsXsXsXsX&X{.2.5 b A. X,.k F F y y r r e e h m Y n 3 & vXvXvXvXvXvX",
"vXvXvXvXvXvX, &XlXsXsXsXlXsXlXsXfXsXfX&X Xd.2.7 i 3.>._ H D k r h h j l Z C p 4 c : vXvXvXvXvXvX",
"vXvXvXvXvXvX, [.iXiXuXuXuXiXiXiXiXiXiXuX#X[.i.2.0 1 i B =.;.^ ^ ! ! Z B p 3 6 @.%.: vXvXvXvXvXvX",
"vXvXvXvXvXvX: < 9 8 9 8 8 8 9 8 8 9 8 8 8 < , , > # & * ; 5 7 i 7 5 3 = & @ : > > O vXvXvXvXvXvX",
"vXvXvXvXvXvXvXvXvXvXvXvXvXvXvXvXvXvXvXvXvXvXvXvXvXvXvXvX  X + + + o . vXvXvXvXvXvXvXvXvXvXvXvXvX",
"vXvXvXvXvXvXvXvXvXvXvXvXvXvXvXvXvXvXvXvXvXvXvXvXvXvXvXvXvXvXvXvXvXvXvXvXvXvXvXvXvXvXvXvXvXvXvXvX",
"vXvXvXvXvXvXvXvXvXvXvXvXvXvXvXvXvXvXvXvXvXvXvXvXvXvXvXvXvXvXvXvXvXvXvXvXvXvXvXvXvXvXvXvXvXvXvXvX"
};
