/* XPM */
static char *image_x_generic[] = {
/* columns rows colors chars-per-pixel */
"48 48 200 2 ",
"   c #203557",
".  c #2E3C55",
"X  c #2B3C5A",
"o  c #313F57",
"O  c #293D60",
"+  c #34425C",
"@  c #344463",
"#  c #394762",
"$  c #3B4863",
"%  c #324669",
"&  c #3D4D6B",
"*  c #3B4E72",
"=  c #3E5070",
"-  c #46494F",
";  c #454950",
":  c #4A4D53",
">  c #4D5056",
",  c #4E535B",
"<  c #515151",
"1  c #53555A",
"2  c gray36",
"3  c #414F6A",
"4  c #4D5564",
"5  c #4D576A",
"6  c #4E586C",
"7  c #515761",
"8  c #555B65",
"9  c #5A5E65",
"0  c #595F68",
"q  c #445575",
"w  c #43577A",
"e  c #4B5C7D",
"r  c #515B70",
"t  c #5D6166",
"y  c #5E626A",
"u  c #5B6375",
"i  c #56637E",
"p  c #5E687F",
"a  c #606060",
"s  c #62656B",
"d  c #676A6E",
"f  c #696B6F",
"g  c #646A72",
"h  c #6A6E75",
"j  c #676E7A",
"k  c #6B6F78",
"l  c #6D717A",
"z  c #71757D",
"x  c #76797D",
"c  c #787B7F",
"v  c #7D807C",
"b  c #375F97",
"n  c #3C629A",
"m  c #4C5F83",
"M  c #516486",
"N  c #5E6980",
"B  c #55678C",
"V  c #57688B",
"C  c #5A6C8D",
"Z  c #42679C",
"A  c #45699E",
"S  c #5B6C90",
"D  c #5E7095",
"F  c #6D7583",
"G  c #6D7888",
"H  c #767B83",
"J  c #7A7E84",
"K  c #747D8C",
"L  c #657596",
"P  c #6E7D94",
"I  c #657698",
"U  c #67789E",
"Y  c #6C7D9C",
"T  c #757F9A",
"R  c #4B6EA1",
"E  c #4E70A3",
"W  c #5375A6",
"Q  c #5778A7",
"!  c #5C7BAA",
"~  c #6E7EA1",
"^  c #607FAC",
"/  c #7C8086",
"(  c #78808D",
")  c #7A8394",
"_  c #728299",
"`  c #6482AE",
"'  c #6885AF",
"]  c #7080A1",
"[  c #7A87A6",
"{  c #7D8CA5",
"}  c #7887A9",
"|  c #778BAB",
" . c #7B8AAB",
".. c #7792AB",
"X. c #7F99AD",
"o. c #6785B0",
"O. c #6986B1",
"+. c #6D89B3",
"@. c #738DB5",
"#. c #7590B7",
"$. c #7E97B7",
"%. c #7791B8",
"&. c #7C95BA",
"*. c #898C87",
"=. c #8C8E89",
"-. c #8E928C",
";. c #939592",
":. c #969895",
">. c #989B97",
",. c #9C9C9B",
"<. c #A0A39F",
"1. c #808DAF",
"2. c #8993A5",
"3. c #8996AD",
"4. c #869EAC",
"5. c #8794B3",
"6. c #8D9AB3",
"7. c #839BBD",
"8. c #8E9BB9",
"9. c #909CB9",
"0. c #88A0A7",
"q. c #8DA5A8",
"w. c #91A7A7",
"e. c #9FA4A5",
"r. c #96ABAD",
"t. c #9FB4A9",
"y. c #8CA2BF",
"u. c #97A2B4",
"i. c #98A2B4",
"p. c #94A9B2",
"a. c #91A5BB",
"s. c #94A9BE",
"d. c #A3A4A3",
"f. c #AAABAA",
"g. c #AEB2B2",
"h. c #A7B9B2",
"j. c #A4B5BD",
"k. c #B2B4B2",
"l. c #B6B9B6",
"z. c #B7B9B8",
"x. c #BBBFBB",
"c. c #AFC0A5",
"v. c #AEC0AA",
"b. c #B5C5A4",
"n. c #B2C2AC",
"m. c #BCCBAB",
"M. c #B8C8B0",
"N. c #BBC0BB",
"B. c #CBD7A7",
"V. c #C4D2A9",
"C. c #CDD9AA",
"Z. c #D2DDAA",
"A. c #D6E0AB",
"S. c #DDE7AD",
"D. c #E2EAAE",
"F. c #E2EBB2",
"G. c #E7EEBA",
"H. c #ECF2BD",
"J. c #F0F5BE",
"K. c #879DC0",
"L. c #889FC1",
"P. c #8DA2C3",
"I. c #92A5C5",
"U. c #95A8C6",
"Y. c #9EACC5",
"T. c #97A9C8",
"R. c #9BADCA",
"E. c #9DB0C1",
"W. c #9FB1CD",
"Q. c #A5B6C2",
"!. c #ADBDC3",
"~. c #A3B3CE",
"^. c #A8B7CC",
"/. c #A9B9CB",
"(. c #A6B6D0",
"). c #A8B7D1",
"_. c #ADBBD3",
"`. c #B1BED6",
"'. c #B4C0D7",
"]. c #B7C3D9",
"[. c #B9C6DA",
"{. c #C1C4C1",
"}. c #CDCDCD",
"|. c #D4D4D4",
" X c #D7D8D7",
".X c #D7D7D8",
"XX c #D7D8D9",
"oX c #DBDBDB",
"OX c #F0F5C1",
"+X c #F2F6C8",
"@X c #F5F9CC",
"#X c #F6FAD4",
"$X c #F7FADA",
"%X c #F9FBDC",
"&X c #F9FBE3",
"*X c #FCFDEB",
"=X c #F7F7F7",
"-X c #FDFEF3",
";X c #FEFEFE",
":X c None",
/* pixels */
":X:X:X:X:X:X:X:X:X:X:X:X:X:X:X:X:X:X:X:X:X:X:X:X:X:X:X:X:X:X:X:X:X:X:X:X:X:X:X:X:X:X:X:X:X:X:X:X",
":X:X:X:X:X:X:X:X:X:X:X:X:X:X:X:X:X:X:X:X:X:X:X:X:X:X:X:X:X:X:X:X:X:X:X:X:X:X:X:X:X:X:X:X:X:X:X:X",
":X:X:X:X:X:X:X:X:X:X:X:X:X:X:X:X:X:X:X:X:X:X:X:X:X:X:X:X:X:X:X:X:X:X:X:X:X:X:X:X:X:X:X:X:X:X:X:X",
":X:X:X:X:X:X:X:X:X:X:X:X:X:X:X:X:X:X:X:X:X:X:X:X:X:X:X:X:X:X:X:X:X:X:X:X:X:X:X:X:X:X:X:X:X:X:X:X",
":X:X:X:X:X:X:X:X:X:X:X:X:X:X:X:X:X:X:X:X:X:X:X:X:X:X:X:X:X:X:X:X:X:X:X:X:X:X:X:X:X:X:X:X:X:X:X:X",
":X:X:X:X:X:X:X:X:X:X:X:X:X:X:X:X:X:X:X:X:X:X:X:X:X:X:X:X:X:X:X:X:X:X:X:X:X:X:X:X:X:X:X:X:X:X:X:X",
":X:Xx.{.{.N.{.{.N.{.{.N.{.{.{.{.{.{.{.N.{.N.{.{.{.{.N.{.{.N.{.{.{.{.{.{.{.{.{.{.{.N.{.x.x.:X:X:X",
":XN.=X;X;X;X;X;X;X;X;X;X;X;X;X;X;X;X;X;X;X;X;X;X;X;X;X;X;X;X;X;X=X;X;X;X;X;X;X=X;X;X;X;Xx.:X:X:X",
":XN.;XoXoXoXoXoXoXoXoXoXoXoXoXoXoXoXoXoXoXoXoX X.X XXX X X.X.X.X.X|..X|.|.|.|.|.|.|.|.;Xx.:X:X:X",
":XN.;XoXoXoXoXoXoXoXoXoXoXoXoXoXoXoXoX XXXXXoXXXXX.X.X.X.X.X.X|..X|.|.|.|.|.|.|.}.|.|.;Xx.:X:X:X",
":XN.;XoXoXH H H / K *.( H H H H H F H l l l j h h g g g g s y y 0 0 8 8 8 8 7 7 , }.|.;Xx.:X:X:X",
":XN.;XoXoXH O.O.O.O.O.O.' ` ` ^ ` ^ ! ! ! Q Q W W W E E R R A A A A Z Z n n b b 4 }..X;XN.:X:X:X",
":XN.;XoXoX/ +.+.+.#.@.X.q.q.0...' O.' ` ` ! ^ ! ! ! Q Q W W W E R R R R R A A Z 7 }.|.;XN.:X:X:X",
":XN.;XoXoX/ %.%.%.&.r.m.Z.A.B.c.0.+.+.+.O.O.O.O.` ^ ` ! ! ! ! Q Q Q W W E E R R 8 }.|.;Xx.:X:X:X",
":XN.;XoXoX( &.&.$.p.V.G.%X&X#XF.b.4.#.#.@.@.+.+.O.O.O.o.o.` ` ^ ^ ! ! ! Q Q Q Q 7 }.|.;Xx.:X:X:X",
":XN.;XoXoX*.K.K.L.n.F.*X;X;X;X#XA.t.&.&.&.%.%.%.@.@.@.+.+.+.O.O.o.` o.` ^ ^ ! ! 8 }.|.;XN.:X:X:X",
":XN.;XoXoX/ K.L.a.m.H.;X;X;X;X*XF.c.7.7.&.&.&.&.&.&.%.%.%.@.@.+.Y +.+.+.O.O.O.o.0 }.|.;Xx.:X:X:X",
":XN.;XoXoX/ P.P.s.m.H.;X;X;X;X&XF.n.y.y.K.K.K.K.K.&.7.&.&.&.&.G f P %.#.#.+.O.O.8 }.}.;Xx.:X:X:X",
":XN.;XoXoX/ U.U.U.n.D.$X;X;X-X+XA.h.I.P.P.P.P.P.P.K.K.K.K.K.{ d F 9 _ %.@.@.@.@.8 }.|.;Xx.:X:X:X",
":XN.;XoXoX/ R.R.R.j.V.D.OX@XJ.S.m.E.T.T.T.I.I.I.I.I.I.P.P.8.f l K 1 < | 7.&.5.&.8 }.|.;XN.:X:X:X",
":XN.;XoXoXJ W.W.~.~.j.V.Z.Z.C.M.j.W.R.R.W.R.R.R.U.T.U.U.I.( 2 j _ < < g K.K.K.K.9 }.|.;Xx.:X:X:X",
":XN.;X XoXx ^.(.~.).^.).!.!.!.(.~.~.~.~.~.~.~.~.~.~.~.R.6.2 < G { < < < 8.I.I.P.9 }..X;Xx.:X:X:X",
":XN.;X XoXx _._._._._.`._._._._._._._._._._.~.~.(.(.~.~.9 < < ( 3.< < < 5.R.R.R.s }.|.;Xx.:X:X:X",
":XN.;XoXoXx '.'.'.'.'.'.].`.`.].'.'.`.'.`._.'.`.`._.).K < < < 2.2.< < < Y.(.(.(.s }..X;Xx.:X:X:X",
":XN.;X XoXx [.[.[.[.[.[.[.[.[.[.[.].[.].[.].].].`._.i.< < < < i.H < < z _._.`._.d }..X;Xx.:X:X:X",
":XN.;X X Xk 9.9.9.9.9.9.9.9.9.9.9.9.9.8.8.8.5.1. .1.9 1 1 1 1 T < < 9 [ 1. . . .9 }. X;Xx.:X:X:X",
":XN.;X X.Xf  . . . . . . . . .} } } } } ] ~ U U U p u u u u u 1 > 1 u j ~ U U U 1 }. X;Xx.:X:X:X",
":XN.;X X.Xd ~ _ ] ~ _ ~ ] ] ~ ] ~ Y U I D D D D L i 5 5 5 5 5 4 4 5 r V D D D D 1 |. X;XN.:X:X:X",
":Xx.;X|..Xs L L L I I L I L L D S C B B B B B B B B B q $ $ $ $ e 3 $ 3 e B B B , }.oX;Xx.:X:X:X",
":Xx.;X|..X9 C C C C C V M M m m m m m m m m m m m m m m e & + + # e $ + + 3 m m , |. X;Xx.:X:X:X",
":XN.;X|.|.> w w w w w w w w w w w w w w w w w w w w w w w w 3 + . @ q . . . * w > |.oX;Xx.:X:X:X",
":XN.;X|.|.> * = * * * * * * * * * * * * * * * * * * * * * * * * @ . @ $ o o * * > |. X{.k.:X:X:X",
":XN.;X|.|.: % % % % % % % % % % % % % % % % % % % % % % % % % % % % X g.z.z.z.z.k.k.k.f.f.:X:X:X",
":XN.;X|.|.: X O O O O O O O O O O O O O O O O O O O O O O O O O O O O f.}.|.|.{.z.f.<.d.:X:X:X:X",
":Xx.;X|.|.-                                                           e.}.x.x.k.f.,.,.,.:X:X:X:X",
":Xx.;X.X|.- - - ; ; ; ; ; ; ; ; ; ; - - ; ; ; ; ; ; ; ; ; ; ; - ; ; ; ,.{.z.k.d.,.:.:.:X:X:X:X:X",
":XN.;X.X|.}.}.}.}.}.}.}.}.}.|.}.|.}.|.|.}.|.|.|.}.|.|.|.|.|..X|.|..X.Xf.k.g.d.,.;.=.:X:X:X:X:X:X",
":XN.;X.X|..X.X.X.X.X X X.X.X X X X X.X XoX X X XoX XoXoXoX XoXoXoX XoX<.f.d.:.-.v :X:X:X:X:X:X:X",
":XN.=X;X;X;X;X;X;X;X;X;X;X;X;X;X;X;X;X;X;X;X;X;X;X;X;X;X;X;X;X;X;X;X;X:.,.;.*.:X:X:X:X:X:X:X:X:X",
":X:XN.x.x.x.N.x.N.N.N.x.N.N.x.N.N.x.N.N.x.N.x.x.x.N.N.x.x.x.N.x.N.x.d.;.*.:X:X:X:X:X:X:X:X:X:X:X",
":X:X:X:X:X:X:X:X:X:X:X:X:X:X:X:X:X:X:X:X:X:X:X:X:X:X:X:X:X:X:X:X:X:X:X:X:X:X:X:X:X:X:X:X:X:X:X:X",
":X:X:X:X:X:X:X:X:X:X:X:X:X:X:X:X:X:X:X:X:X:X:X:X:X:X:X:X:X:X:X:X:X:X:X:X:X:X:X:X:X:X:X:X:X:X:X:X",
":X:X:X:X:X:X:X:X:X:X:X:X:X:X:X:X:X:X:X:X:X:X:X:X:X:X:X:X:X:X:X:X:X:X:X:X:X:X:X:X:X:X:X:X:X:X:X:X",
":X:X:X:X:X:X:X:X:X:X:X:X:X:X:X:X:X:X:X:X:X:X:X:X:X:X:X:X:X:X:X:X:X:X:X:X:X:X:X:X:X:X:X:X:X:X:X:X",
":X:X:X:X:X:X:X:X:X:X:X:X:X:X:X:X:X:X:X:X:X:X:X:X:X:X:X:X:X:X:X:X:X:X:X:X:X:X:X:X:X:X:X:X:X:X:X:X",
":X:X:X:X:X:X:X:X:X:X:X:X:X:X:X:X:X:X:X:X:X:X:X:X:X:X:X:X:X:X:X:X:X:X:X:X:X:X:X:X:X:X:X:X:X:X:X:X",
":X:X:X:X:X:X:X:X:X:X:X:X:X:X:X:X:X:X:X:X:X:X:X:X:X:X:X:X:X:X:X:X:X:X:X:X:X:X:X:X:X:X:X:X:X:X:X:X",
":X:X:X:X:X:X:X:X:X:X:X:X:X:X:X:X:X:X:X:X:X:X:X:X:X:X:X:X:X:X:X:X:X:X:X:X:X:X:X:X:X:X:X:X:X:X:X:X"
};
