/* XPM */
static char *text_x_script[] = {
/* columns rows colors chars-per-pixel */
"48 48 179 2 ",
"   c #353535",
".  c gray23",
"X  c #414141",
"o  c gray26",
"O  c #434343",
"+  c #444444",
"@  c gray27",
"#  c #464646",
"$  c gray28",
"%  c #484848",
"&  c #494949",
"*  c gray29",
"=  c #4C4C4C",
"-  c #4E4E4E",
";  c gray31",
":  c #505050",
">  c #515151",
",  c gray32",
"<  c #535353",
"1  c gray33",
"2  c #555555",
"3  c #565656",
"4  c gray34",
"5  c #585858",
"6  c gray35",
"7  c #5A5A5A",
"8  c #5B5B5B",
"9  c gray36",
"0  c #5D5D5D",
"q  c gray37",
"w  c #5F5F5F",
"e  c gray38",
"r  c #626262",
"t  c gray39",
"y  c #656565",
"u  c gray40",
"i  c #676767",
"p  c #686868",
"a  c DimGray",
"s  c #6A6A6A",
"d  c gray42",
"f  c #6C6C6C",
"g  c #6D6D6D",
"h  c gray43",
"j  c #6F6F6F",
"k  c gray44",
"l  c #727272",
"z  c gray45",
"x  c #747474",
"c  c gray46",
"v  c #767676",
"b  c #777777",
"n  c gray47",
"m  c #797979",
"M  c gray48",
"N  c #7B7B7B",
"B  c #7C7C7C",
"V  c gray49",
"C  c #7E7E7E",
"Z  c gray50",
"A  c #808080",
"S  c #818181",
"D  c gray51",
"F  c #838383",
"G  c #848484",
"H  c gray52",
"J  c #868686",
"K  c gray53",
"L  c #888888",
"P  c #898989",
"I  c gray54",
"U  c #8B8B8B",
"Y  c gray55",
"T  c #8D8D8D",
"R  c #8E8E8E",
"E  c gray56",
"W  c #909090",
"Q  c gray57",
"!  c #929292",
"~  c #939393",
"^  c gray58",
"/  c #959595",
"(  c gray59",
")  c #979797",
"_  c #989898",
"`  c gray60",
"'  c #9A9A9A",
"]  c #9B9B9B",
"[  c gray61",
"{  c #9D9D9D",
"}  c gray62",
"|  c #9F9F9F",
" . c #A0A0A0",
".. c gray63",
"X. c #A2A2A2",
"o. c gray64",
"O. c #A4A4A4",
"+. c #A5A5A5",
"@. c gray65",
"#. c #A7A7A7",
"$. c gray66",
"%. c #A9A9A9",
"&. c #AAAAAA",
"*. c gray67",
"=. c #ACACAC",
"-. c gray68",
";. c #AEAEAE",
":. c #AFAFAF",
">. c gray69",
",. c #B1B1B1",
"<. c #B2B2B2",
"1. c gray70",
"2. c #B4B4B4",
"3. c gray71",
"4. c #B6B6B6",
"5. c #B7B7B7",
"6. c gray72",
"7. c #B9B9B9",
"8. c gray73",
"9. c #BBBBBB",
"0. c #BCBCBC",
"q. c gray74",
"w. c gray",
"e. c gray75",
"r. c #C0C0C0",
"t. c #C1C1C1",
"y. c gray76",
"u. c #C3C3C3",
"i. c gray77",
"p. c #C5C5C5",
"a. c #C6C6C6",
"s. c gray78",
"d. c #C8C8C8",
"f. c gray79",
"g. c #CACACA",
"h. c #CBCBCB",
"j. c gray80",
"k. c #CECECE",
"l. c #D0D0D0",
"z. c #D2D2D2",
"x. c LightGray",
"c. c gray83",
"v. c #D7D7D7",
"b. c #D8D8D8",
"n. c gray85",
"m. c #DADADA",
"M. c gainsboro",
"N. c #DDDDDD",
"B. c gray87",
"V. c #DFDFDF",
"C. c gray88",
"Z. c #E1E1E1",
"A. c #E2E2E2",
"S. c gray89",
"D. c #E4E4E4",
"F. c gray90",
"G. c #E6E6E6",
"H. c #E7E7E7",
"J. c gray91",
"K. c #E9E9E9",
"L. c #EAEAEA",
"P. c gray92",
"I. c #ECECEC",
"U. c gray93",
"Y. c #EEEEEE",
"T. c #EFEFEF",
"R. c gray94",
"E. c #F1F1F1",
"W. c gray95",
"Q. c #F3F3F3",
"!. c #F4F4F4",
"~. c gray96",
"^. c #F6F6F6",
"/. c gray97",
"(. c #F8F8F8",
"). c #F9F9F9",
"_. c gray98",
"`. c #FBFBFB",
"'. c None",
/* pixels */
"'.'.'.'.'.'.'.'.'.'.'.'.'.'.'.'.'.'.'.'.'.'.'.'.'.'.'.'.'.'.'.'.'.'.'.'.'.'.'.'.'.'.'.'.'.'.'.'.",
"'.'.'.'.'.'.'.'.'.'.'.'.'.'.'.'.'.'.'.'.'.'.'.'.'.'.'.'.'.'.'.'.'.'.'.'.'.'.'.'.'.'.'.'.'.'.'.'.",
"'.'.'.'.'.'.'.'.'.'.'.'.'.'.'.'.'.'.'.'.'.'.'.'.'.'.'.'.'.'.'.'.'.'.'.'.'.'.'.'.'.'.'.'.'.'.'.'.",
"'.'.'.'.'.'.'.{ { o.o.@.@.o.o.] { ] ) ) Q Q Q Y U U H F F V V N b b b l j j a a a '.'.'.'.'.'.'.",
"'.'.'.'.'.'.] J.(.`.`.`.`.(.`.(.(.`.(.(.`.(.(.`.(.(.(.(.(.(.(.(.(.(.(.(.(.(.(.(.J.r '.'.'.'.'.'.",
"'.'.'.'.'.'.] /.D.S.S.N.J.S.D.S.S.D.S.D.D.D.D.D.J.D.J.J.D.J.J.D.D.J.J.D.D.J.D.D.(.0 '.'.'.'.'.'.",
"'.'.'.'.'.'.) /.D.N.N.N.D.S.S.N.S.S.S.N.D.D.D.S.D.D.D.D.D.D.D.D.J.D.J.D.D.D.D.D.(.0 '.'.'.'.'.'.",
"'.'.'.'.'.'.) /.S.N.S.N.D.S.N.S.S.S.S.S.D.D.D.D.D.D.D.D.D.J.D.D.D.D.D.D.D.D.D.J./.0 '.'.'.'.'.'.",
"'.'.'.'.'.'.) /.S.N.N.N.J.S.S.S.D.D.D.D.D.D.D.J.D.D.D.D.J.J.D.J.D.J.D.D.J.D.D.J./.0 '.'.'.'.'.'.",
"'.'.'.'.'.'.) /.D.S.S.N.D.S.S.S.D.D.D.D.J.D.D.D.J.J.J.D.D.J.D.J.J.D.J.J.D.J.D.J./.0 '.'.'.'.'.'.",
"'.'.'.'.'.'.Q /.D.N.S.m.J.S.D.D.D.D.D.D.D.J.J.D.D.J.D.J.D.J.J.J.J.J.J.J.J.J.J.J./.0 '.'.'.'.'.'.",
"'.'.'.'.'.'.Q /.D.S.S.N.J.D.D.D.D.D.D.D.J.D.D.J.J.J.J.J.J.J.J.J.J.J.J.J.J.J.J.J./.0 '.'.'.'.'.'.",
"'.'.'.'.'.'.Q (.D.S.S.N.J.S.D.D.D.D.J.D.D.J.J.D.J.J.J.J.J.I.J.J.J.J.J.J.I.J.J.J./.0 '.'.'.'.'.'.",
"'.'.'.'.'.'.Y /.D.S.S.N.J.D.D.D.D.J.D.J.J.J.J.J.J.J.J.J.J.J.I.J.I.J.I.J.J.J.J.I./.5 '.'.'.'.'.'.",
"'.'.'.'.'.'.Y /.J.S.S.S.J.D.D.D.D.D.J.J.J.J.J.J.J.I.J.I.J.I.J.I.J.J.J.I.I.J.I.J.(.5 '.'.'.'.'.'.",
"'.'.'.'.'.'.U /.J.S.S.N.I.D.J.J.J.J.J.J.J.I.J.J.I.J.I.J.I.J.I.I.I.I.I.J.I.I.J.I.(.5 '.'.'.'.'.'.",
"'.'.'.'.'.'.U /.J.D.D.N.I.D.J.D.J.J.J.J.J.J.I.I.J.I.I.I.J.I.I.I.I.I.I.I.J.I.I.I.(.5 '.'.'.'.'.'.",
"'.'.'.'.'.'.H /.J.c.N.S.J.D.J.J.J.J.J.J.J.I.J.I.I.I.I.I.I.I.I.I.I.I.I.I.I.I.I.I.(.5 '.'.'.'.'.'.",
"'.'.'.'.'.'.H /.J.h.D.S.I.J.J.J.J.J.J.I.I.J.I.I.I.I.I.I.R.I.I.I.I.I.I.I.I.I.I.I.(.5 '.'.'.'.'.'.",
"'.'.'.'.'.'.H /.J.S.J.S.I.J.J.J.I.J.J.I.J.I.I.I.I.I.I.I.I.I.I.R.h.u N.I.I.I.R.I.(.5 '.'.'.'.'.'.",
"'.'.'.'.'.'.F (.J.D.J.S.I.J.J.I.J.I.J.I.I.I.I.I.I.I.I.I.R.R.I.h.5 Y , N.I.R.I.R.(.4 '.'.'.'.'.'.",
"'.'.'.'.'.'.V (.J.D.D.D.I.J.J.J.I.J.I.I.I.I.I.I.I.R.R.I.R.I.u.5 u.=.U - m.I.R.I./.4 '.'.'.'.'.'.",
"'.'.'.'.'.'.V /.J.J.D.D.I.J.J.J.J.J.I.I.I.I.I.R.R.I.R.R.I.u.5 u.w.H Y U , c.R.R./., '.'.'.'.'.'.",
"'.'.'.'.'.'.V (.J.D.J.D.I.J.I.J.I.I.I.I.I.I.R.I.R.R.R.R.i.5 i.w.=.=.=.) U , c.R.(., '.'.'.'.'.'.",
"'.'.'.'.'.'.N /.J.J.J.D.I.J.J.I.I.I.I.R.I.I.R.I.R.R.R.i.5 u.w.>.>.>.) r U H , m.(., '.'.'.'.'.'.",
"'.'.'.'.'.'.b /.J.J.D.D.I.I.I.J.I.I.I.I.R.I.R.R.R.R.i.5 i.u.>.>.>.>.=.H a U H , N.- '.'.'.'.'.'.",
"'.'.'.'.'.'.b /.J.J.J.D.I.I.J.I.I.I.R.I.R.R.R.R.R.i.5 i.u.3.>.3.>.3.3.@.b a Y H , - '.'.'.'.'.'.",
"'.'.'.'.'.'.l /.J.J.J.D.I.I.I.I.I.I.I.I.R.I.R.R.i.5 i.i.>.>.3.3.3.3.3.N j j l Y ] = '.'.'.'.'.'.",
"'.'.'.'.'.'.l /.J.J.J.D.I.J.I.I.I.I.R.R.R.R.R.i.5 i.i.3.3.3.3.3.3.6.6.] N l l N u.=.= '.'.'.'.'.",
"'.'.'.'.'.'.j /.J.u.m.D.R.I.I.I.I.I.I.R.I.R.i.5 i.i.6.6.6.6.6.6.6.6.6.o.N V b F 3.i.=.@ '.'.'.'.",
"'.'.'.'.'.'.j /.I.m.I.D.I.I.I.I.I.R.I.R.R.i.5 i.i.6.6.6.6.6.w.6.6.w.*.N Y 6.{ 6.u.6.>.U @ '.'.'.",
"'.'.'.'.'.'.a /.I.J.J.J.I.I.I.I.I.I.R.R.i.5 i.h.6.6.6.6.w.w.6.w.w.w.3.U H 6.w.u.=.H F ) V @ '.'.",
"'.'.'.'.'.'.a /.J.D.I.D.R.J.I.I.I.R.R.u.4 i.h.6.6.w.w.6.w.w.w.w.w.=.) H U w.u.@.F H H U ) V @ '.",
"'.'.'.'.'.'.a /.I.J.J.D.R.I.I.I.I.R.J.= u.j.6.w.w.w.w.w.w.w.u.w.u.) o.*.6.u.=.U U U Y Y U { l o ",
"'.'.'.'.'.'.u R.I.J.J.J.R.I.I.R.R.I.I.] l h.u.u.w.w.u.u.u.w.u.3.o.{ *.u.i.w.Y Y U Y Q Y ] Q @ '.",
"'.'.'.'.'.'.r /.I.J.J.D.I.I.I.I.I.I.R.R.{ r l.6.u.w.u.u.u.6.u.Q U U U w.i.o.Q Q Q Q Q ] Q @ '.'.",
"'.'.'.'.'.'.r /.I.J.J.D.R.I.I.I.R.R.R.R.I.o.u @.*.>.{ 3.*.U { Q Y Y ] i.i.) Q Q Q ) ] ) @ '.'.'.",
"'.'.'.'.'.'.0 /.I.J.I.J.R.I.I.I.I.R.I.R.R.R.o.5 *.{ U ) ) Y Q Q Q u.i.h.3.) ) ] ] { ) @ '.'.'.'.",
"'.'.'.'.'.'.0 R.I.J.I.D.R.I.I.I.I.R.I.R.R././.o.0 @.) Q Q Q Q Q ) 3.i.j.>.] ] ] { ) = '.'.'.'.'.",
"'.'.'.'.'.'.5 /.I.J.J.D.R.I.I.I.R.I.R.R.R.R.R.R.o.0 @.] ) ) ] ) ] ] w.j.>.{ { @.] @ '.'.'.'.'.'.",
"'.'.'.'.'.'.5 R.J.J.I.D.R.J.I.I.R.R.R.R.R.R.R./.R.o.0 @.{ ] ] { { { u.l.>.o.@.] - = '.'.'.'.'.'.",
"'.'.'.'.'.'.5 R.I.J.J.D.R.I.I.I.I.I.I.R.R./.R././.R.o.5 *.o.{ { @.i.j.c.6.@.] - u.- '.'.'.'.'.'.",
"'.'.'.'.'.'., /.J.J.J.J.R.I.I.R.I.R.R.I.R.R.R.R.R././.o.5 *.@.@.@.i.j.l.h.{ - u./.- '.'.'.'.'.'.",
"'.'.'.'.'.'., I.(.`.(.(.(.(.(.(.(.(.(.(.(.(.(.(././.(.(.@.5 *.*.*.*.>.c.h.- u./.R., '.'.'.'.'.'.",
"'.'.'.'.'.'.@ - = - = - - - = = - = = - = - = - = - = = - @ , =.=.=.>.h.5 = - - = = '.'.'.'.'.'.",
"'.'.'.'.'.'.'.'.'.'.'.'.'.'.'.'.'.'.'.'.'.'.'.'.'.'.'.'.'.'.  , =.3.u.5 '.'.'.'.'.'.'.'.'.'.'.'.",
"'.'.'.'.'.'.'.'.'.'.'.'.'.'.'.'.'.'.'.'.'.'.'.'.'.'.'.'.'.'.'.. , o.- '.'.'.'.'.'.'.'.'.'.'.'.'.",
"'.'.'.'.'.'.'.'.'.'.'.'.'.'.'.'.'.'.'.'.'.'.'.'.'.'.'.'.'.'.'.'.o o '.'.'.'.'.'.'.'.'.'.'.'.'.'."
};
