/* XPM */
static char *x_office_spreadsheet[] = {
/* columns rows colors chars-per-pixel */
"48 48 219 2 ",
"   c #4E0000",
".  c #5C0000",
"X  c #5B0F0F",
"o  c #5A1212",
"O  c #531D1D",
"+  c #660102",
"@  c #6A0202",
"#  c #6A0E04",
"$  c #690609",
"%  c #68080D",
"&  c #740505",
"*  c #7D0707",
"=  c #760E0E",
"-  c #7F160B",
";  c #611313",
":  c #7F1313",
">  c #741D1D",
",  c #7F1E1E",
"<  c #703C0B",
"1  c #621828",
"2  c #4B2C2C",
"3  c #5F233D",
"4  c #4E3030",
"5  c #433C3C",
"6  c #772020",
"7  c #7B2525",
"8  c #65283F",
"9  c #703B3B",
"0  c #715B12",
"q  c #6F6715",
"w  c #706816",
"e  c #5D5736",
"r  c #5C304C",
"t  c #573152",
"y  c #6E3049",
"u  c #454545",
"i  c #4C4C4C",
"p  c #545454",
"a  c #5B5B5B",
"s  c #7D4848",
"d  c #725858",
"f  c #6B6E46",
"g  c #474A78",
"h  c #494C78",
"j  c #534A73",
"k  c #636363",
"l  c #6B6B6B",
"z  c #737373",
"x  c #7D7373",
"c  c #7C7C7C",
"v  c #830C0C",
"b  c #8D0D0D",
"n  c #861111",
"m  c #881414",
"M  c #8C1A1A",
"N  c #931212",
"B  c #9A1616",
"V  c #901E1E",
"C  c #A60505",
"Z  c #AA0C0C",
"A  c #A21717",
"S  c #AC1313",
"D  c #AB1E1E",
"F  c #9F2D18",
"G  c #822020",
"H  c #8C2222",
"J  c #89222C",
"K  c #942121",
"L  c #9A2525",
"P  c #803535",
"I  c #823838",
"U  c #8A3B3B",
"Y  c #A42F2F",
"T  c #B62424",
"R  c #B82626",
"E  c #B82929",
"W  c #AF3422",
"Q  c #B43333",
"!  c #BB3434",
"~  c #DD2727",
"^  c #D32E2E",
"/  c #DF2A2A",
"(  c #CB3B3B",
")  c #DD3232",
"_  c #D23B3B",
"`  c #E02E2E",
"'  c #E33434",
"]  c #E63A3A",
"[  c #E83E3E",
"{  c #CE5634",
"}  c #804545",
"|  c #844B4B",
" . c #8E425F",
".. c #815454",
"X. c #8E5252",
"o. c #995858",
"O. c #BA4A4A",
"+. c #914563",
"@. c #934967",
"#. c #964C69",
"$. c #97506C",
"%. c #9A506E",
"&. c #9C5472",
"*. c #A05976",
"=. c #A45E7C",
"-. c #8C6868",
";. c #A07373",
":. c #D14747",
">. c #D14E4E",
",. c #CF5252",
"<. c #D35D5D",
"1. c #EA4343",
"2. c #EE4B4B",
"3. c #F04F4F",
"4. c #E55151",
"5. c #E05E5E",
"6. c #EE5E5E",
"7. c #F25353",
"8. c #F55B5B",
"9. c #D96A4E",
"0. c #C66068",
"q. c #E36060",
"w. c #EC6262",
"e. c #EA6D6D",
"r. c #F56262",
"t. c #F96464",
"y. c #F46A6A",
"u. c #FC6B6B",
"i. c #E97373",
"p. c #EE7878",
"a. c #FF7272",
"s. c #FB7A7A",
"d. c #7B8E1E",
"f. c #59A016",
"g. c #5CA21A",
"h. c #73D216",
"j. c #77D31C",
"k. c #7DD627",
"l. c #82972E",
"z. c #AE8C32",
"x. c #8BA02F",
"c. c #8DA334",
"v. c #92A536",
"b. c #80CF26",
"n. c #84D832",
"m. c #87D938",
"M. c #8BDA3D",
"N. c #919954",
"B. c #C39E58",
"V. c #9CCC4B",
"C. c #92DE47",
"Z. c #94DB4B",
"A. c #A5D459",
"S. c #98E052",
"D. c #A6E567",
"F. c #B3EA7C",
"G. c #2F4D84",
"H. c #27508B",
"J. c #33568C",
"K. c #345A91",
"L. c #3667A6",
"P. c #3969A7",
"I. c #3B6CAB",
"U. c #425C8F",
"Y. c #645E87",
"T. c #586797",
"R. c #5B7D9B",
"E. c #6D719A",
"W. c #717199",
"Q. c #4271AD",
"!. c #4374B3",
"~. c #4778B7",
"^. c #4D7BB5",
"/. c #4B7CBB",
"(. c #537CB2",
"). c #647FAD",
"_. c #A56280",
"`. c #5E86B7",
"'. c #7D81A7",
"]. c #6187B8",
"[. c #6188BB",
"{. c #788BB4",
"}. c #5283C2",
"|. c #5788C7",
" X c #598AC9",
".X c #618DC6",
"XX c #838383",
"oX c #8D8D8D",
"OX c #9E9E80",
"+X c #949494",
"@X c #9A9A9A",
"#X c #A68080",
"$X c #AC8686",
"%X c #AF9494",
"&X c #B29191",
"*X c #B39D9D",
"=X c #8C9BA3",
"-X c #A2A2A2",
";X c #B5B5B5",
":X c #BBBBBB",
">X c #F78484",
",X c #FF8282",
"<X c #C3A1A1",
"1X c #CAA8A8",
"2X c #CCB1B1",
"3X c #D2BBBB",
"4X c #C4CE85",
"5X c #C3C3C3",
"6X c #C9C9C9",
"7X c #DDCECE",
"8X c #D6D4D4",
"9X c #DDDDDD",
"0X c #E1D7D7",
"qX c #E2D8D8",
"wX c #E4E4E4",
"eX c #EBEBEB",
"rX c #F1F1F1",
"tX c #FBFBFB",
"yX c None",
/* pixels */
"yXyXyXyXyXyXyXyXyXyXyXyXyXyXyXyXyXyXyXyXyXyXyXyXyXyXyXyXyXyXyXyXyXyXyXyXyXyXyXyXyXyXyXyXyXyXyXyX",
"yXyXyXyXyXyXyXyXyXyXyXyXyXyXyXyXyXyXyXyXyXyXyXyXyXyXyXyXyXyXyXyXyXyXyXyXyXyXyXyXyXyXyXyXyXyXyXyX",
"yXyXyXyXyXyXyXyXyXyXyXyXyXyXyXyXyXyXyXyXyXyXyXyXyXyXyXyXyXyXyXyXyXyXyXyXyXyXyXyXyXyXyXyXyXyXyXyX",
"yXyXyXyXyXyXyX@X@X@X-X-X-X-X@X@X@X@X+X+XoXoXoXXXXXXXXXc c c z z z z l k l k k k k yXyXyXyXyXyXyX",
"yXyXyXyXyXyX@XtXtXtXtXtXtXtXtXtXtXtXtXtXtXtXtXtXtXtXtXtXtXtXtXtXtXtXtXtXtXtXtXtXrXk yXyXyXyXyXyX",
"yXyXyXyXyXyX@XtX9X9XwX9XwX9XwX9XwXwXwXwXwXwXwXwXwXwXwXwXwXwXwXwXwXwXwXwXwXwXwXwXtXa yXyXyXyXyXyX",
"yXyXyXyXyXyX+XtX9X9Xz XXoX+XoXoXoXoXoXz +XoX+XoX+Xc oX+X+X+X+Xc +X+X+XoX+Xc wXwXtXa yXyXyXyXyXyX",
"yXyXyXyXyXyX@XtX9X9X@X;X;X;X;X;X;X;X;X@X;X;X;X;X;X@X;X;X;X;X;X@X;X;X;X;X;X@XwXwXtXa yXyXyXyXyXyX",
"yXyXyXyXyXyX+XtXwX9X@X;X;X;X;X-X;X;X;X@X;X;X;X;X;X@X;X;X;X;X;X@X;X;X;X;X;X@XwXwXtXa yXyXyXyXyXyX",
"yXyXyXyXyXyX+XtX9XwXoX;X;X;X;X;X;X;X;X@X;X;X;X;X;X@X;X;X;X;X;X@X;X;X;X:X;X@XeXwXtXa yXyXyXyXyXyX",
"yXyXyXyXyXyX@XtX9XwXz +XoX+XoXoXoXoX+Xc +X+X+X+XoXc +X+X+X+X@Xc +X+X+X@X+Xc wXwXtXa yXyXyXyXyXyX",
"yXyXyXyXyXyXoXtXwX9X+X;X;X;X;X;X;X;X;X@XwXwXwXeXwX5XwXeXwXeXwX5XeXwXwXwXwX6XeXwXtXa yXyXyXyXyXyX",
"yXyXyXyXyXyXoXtX9XwX@X;X;X;X;X;X;X;X;X@XeXwXeXwXwX6XeXwXeXeXeX5XeXeXeXeXwX6XeXwXtXa yXyXyXyXyXyX",
"yXyXyXyXyXyXoXtX9XwXc oXoXoX+X+XoX+XoXc :X:X:X:X:X@X:X:X:X:X:X@X:X:X:X:X:X-XwXeXtXp yXyXyXyXyXyX",
"yXyXyXyXyXyXoXtXwXwX@X;X;X;X;X;X;X;X;X@XeXwXwXeXeX6XeXeXeXwXeX6XwXeXeXeXeX6XeXwXtXp yXyXyXyXyXyX",
"yXyXyXyXyXyXXXtXwXwX+X;X;X;X;X;X:X;X;X@XwXeXeXwXeX5XeXeXeXeXeX6XeXeXeXeXeX5XeXeXtXa yXyXyXyXyXyX",
"yXyXyXyXyXyXoXtXwXwXc oX+X+X+X+X+X+X+Xc :X:X5X:X:X-X5X:X5X:X5X-X5X:X5X3X:X-XeXeXtXa yXyXyXyXyXyX",
"yXyXyXyXyXyXXXtX9XwX@X;X;X;X;X;X;X:X:X@XeXeXeXeXeX6XeXeXeXeXeX6XeXeXeXeXeX6XeXeXtXp yXyXyXyXyXyX",
"yXyXyXyXyXyXXXtXwXwX@X;X;X;X;X;X;X;X;X@XeXeXeXeXeX6XeXeXeXeXeX6XeXrXeXeXeX6XeXeXtXp yXyXyXyXyXyX",
"yXyXyXyXyXyXXXtXwXeXc +X+X+X+X@X@X@X@Xc :X:X5X5X:X-X:X5X5X5X:X-X:X5X5X5X:X-XeXrXtXp yXyXyXyXyXyX",
"yXyXyXyXyXyXc tXwXwX@X;X;X;X:X;X;X;X:X@XeXeXeXeXeX6XeXrXeXeXrX6XeXeXrXeXrX6XrXeXtXp yXyXyXyXyXyX",
"yXyXyXyXyXyXc tXwXwX@X;X;X;X;X:X;X:X:X@XeXeXeXeXeX6XrXeXrXrXrX6XrXrXrXrXrX6XeXrXtXp yXyXyXyXyXyX",
"yXyXyXyXyXyXc tXwXwXc oX@X+X+X@X@X@X+Xc 5X5X:X5X5X-X5X5X5X5X5X-X5X5X5X5X5X-XrXeXtXp yXyXyXyXyXyX",
"yXyXyXyXyXyXz tXwXeX@X;X;X:X;X;X;X:X:X@XeXeXeXrXrX6XeXrXrXrXrX6XrXrXeXrXrX6XrXrXtXi yXyXyXyXyXyX",
"yXyXyXyXyXyXz tXwXwX@X;X;X:X;X:X:X;X:X-XeXeXeXeXrX6XrXrXrXeX7X*X2X3X7XeXrX6XrXrXtXp yXyXyXyXyXyX",
"yXyXyXyXyXyXz tXwXeXc +X+X@X+X@X@X+X@Xc 5X5X5X5X5X-X%XX.7 : V L L K M = G } 3XrXtXi yXyXyXyXyXyX",
"yXyXyXyXyXyXz tXwXwX@X;X;X;X:X;X;X:X:X-XrXeXrXrX<X7 L >.r.a.a.u.u.t.t.r.4.! m 7 1Xi yXyXyXyXyXyX",
"yXyXyXyXyXyXl tXeXeX@X;X;X:X:X:X:X:X;X-XrXrXqXU Y y.a.a.a.a.u.t.8.r.8.7.7.7.3._ n X yXyXyXyXyXyX",
"yXyXyXyXyXyXl tXeXwXc @X@X+X+X@X@X@X@Xc 5X*X, q.a.a.a.a.u.t.t.t.r.7.7.7.3.3.1.1.1.R @ yXyXyXyXyX",
"yXyXyXyXyXyXl tXwXeX@X;X;X:X;X:X;X:X:X-XqX, e.a.a.a.u.t.t.r.8.8.7.7.7.3.2.1.1.[ ] ] T + yXyXyXyX",
"yXyXyXyXyXyXl tXeXwX@X;X;X:X;X:X:X;X:X-Xo.<.a.a.a.t.t.t.r.8.7.7.7.3.2.1.1.[ ] ] ] ' ' B @ yXyXyX",
"yXyXyXyXyXyXk tXeXeXc +X+X@X+X@X@X@X@Xx H ,Xa.a.t.t.r.8.8.7.7.7.2.2.1.1.[ ] ] ' ` ` / ^ @ yXyXyX",
"yXyXyXyXyXyXk tXeXwX@X;X:X:X:X:X:X:X:X-.O.s.u.t.r.r.8.7.7.3.2.2.1.1.[ [ ] ' ) ` / ~ ~ ) v yXyXyX",
"yXyXyXyXyXyXk tXeXeX@X;X:X;X:X:X:X:X5Xd <.s.r.8.8.7.7.7.3.2.1.1.0._.=.=.*.&.%.#.@.+. .$.J yXyXyX",
"yXyXyXyXyXyXa tXwXeXc @X@X+X@X@X+X+X@X9 ,.s.8.8.7.7.3.2.2.1.[ [ 4X.X X|.}./.~.!.I.I.L.(.y + yXyX",
"yXyXyXyXyXyXa tXeXwX@X:X;X:X:X;X3X:X:X} ! >X8.7.3.3.2.1.1.[ ] 9.F.OX|.}././.!.!.I.I.P.).3 + yXyX",
"yXyXyXyXyXyXa tXeXeX@X;X;X;X:X:X:X:X:Xd b i.y.3.2.1.1.[ [ ] ] B.D.A.`.`./.~.!.I.P.L.(.T.1 yXyXyX",
"yXyXyXyXyXyXp tXwXeXc +X@X@X+X@X@X@X@Xd * E p.6.1.1.] ] ] ' ` A.S.C.N././.!.Q.I.P.(.W.J.$ yXyXyX",
"yXyXyXyXyXyXp tXeXeX@X:X:X:X:X:X:X:X:X+X6 A R e.w.1.] ' ` ` { C.M.n.b.R.~.!.I.Q.[.W.K.t + yXyXyX",
"yXyXyXyXyXyXp tXeXwX@X:X;X:X;X:X:X:X:X@X%X& D S :.e.4.] ` ~ z.n.k.j.h.l.!.~.[.{.Y.J.g + yXyXyXyX",
"yXyXyXyXyXyXi tXwXeXc @X+X+X@X+X@X@X@Xc ;X| & D S S _ 5.q.4.V.M.m.m.M.Z.=X'.Y.G.K.h % . yXyXyXyX",
"yXyXyXyXyXyXi tXeXwXeXeXeXeXeXeXeXeXeXrXwX9X;.@ B D Z C Z W x.v.v.v.c.d.e H.K.U.r $   yXyXyXyXyX",
"yXyXyXyXyXyXi tXwXwXeXwXwXeXeXeXeXeXrXeXrXwX9X&X> & N D D F g.f.f.g.g.g.f j 8 % 6 4 yXyXyXyXyXyX",
"yXyXyXyXyXyXi tXtXtXtXtXtXtXtXtXtXtXtXtXtXtXeXwX9X;.9 @ & - 0 w w q 0 < # @ I $X9Xu yXyXyXyXyXyX",
"yXyXyXyXyXyXu i i i i i i i i i i i i i i i i i u u u 5 2 O o o X o o O 2 5 u u i u yXyXyXyXyXyX",
"yXyXyXyXyXyXyXyXyXyXyXyXyXyXyXyXyXyXyXyXyXyXyXyXyXyXyXyXyXyXyXyXyXyXyXyXyXyXyXyXyXyXyXyXyXyXyXyX",
"yXyXyXyXyXyXyXyXyXyXyXyXyXyXyXyXyXyXyXyXyXyXyXyXyXyXyXyXyXyXyXyXyXyXyXyXyXyXyXyXyXyXyXyXyXyXyXyX",
"yXyXyXyXyXyXyXyXyXyXyXyXyXyXyXyXyXyXyXyXyXyXyXyXyXyXyXyXyXyXyXyXyXyXyXyXyXyXyXyXyXyXyXyXyXyXyXyX"
};
