/* XPM */
static char *text[] = {
/* columns rows colors chars-per-pixel */
"48 48 132 2 ",
"   c #404040",
".  c #434343",
"X  c #535353",
"o  c #595959",
"O  c #5B5B5B",
"+  c #5D5D5D",
"@  c #5E5E5E",
"#  c #5F5F5F",
"$  c #606060",
"%  c #616161",
"&  c #626262",
"*  c #646464",
"=  c #656565",
"-  c #666666",
";  c #676767",
":  c #686868",
">  c #696969",
",  c #6A6A6A",
"<  c #6B6B6B",
"1  c #6C6C6C",
"2  c #6D6D6D",
"3  c #6E6E6E",
"4  c #6F6F6F",
"5  c #707070",
"6  c #717171",
"7  c #727272",
"8  c #737373",
"9  c #747474",
"0  c #757575",
"q  c #767676",
"w  c #777777",
"e  c #787878",
"r  c #797979",
"t  c #7A7A7A",
"y  c #7B7B7B",
"u  c #7C7C7C",
"i  c #7D7D7D",
"p  c #7E7E7E",
"a  c #808080",
"s  c #828282",
"d  c #838383",
"f  c #848484",
"g  c #858585",
"h  c #868686",
"j  c #878787",
"k  c #888888",
"l  c #898989",
"z  c #8A8A8A",
"x  c #8B8B8B",
"c  c #8C8C8C",
"v  c #8D8D8D",
"b  c #8F8F8F",
"n  c #919191",
"m  c #929292",
"M  c #939393",
"N  c #949494",
"B  c #959595",
"V  c #969696",
"C  c #979797",
"Z  c #999999",
"A  c #9B9B9B",
"S  c #9C9C9C",
"D  c #9D9D9D",
"F  c #9E9E9E",
"G  c #A0A0A0",
"H  c #A2A2A2",
"J  c #A4A4A4",
"K  c #A5A5A5",
"L  c #A6A6A6",
"P  c #A7A7A7",
"I  c #A8A8A8",
"U  c #AAAAAA",
"Y  c #B3B3B3",
"T  c #B5B5B5",
"R  c #B8B8B8",
"E  c #BCBCBC",
"W  c #C2C2C2",
"Q  c #C5C5C5",
"!  c #C6C6C6",
"~  c #C7C7C7",
"^  c #C8C8C8",
"/  c #C9C9C9",
"(  c #CACACA",
")  c #CBCBCB",
"_  c #CCCCCC",
"`  c #CDCDCD",
"'  c #CECECE",
"]  c #CFCFCF",
"[  c #D0D0D0",
"{  c #D1D1D1",
"}  c #D2D2D2",
"|  c #D3D3D3",
" . c #D4D4D4",
".. c #D5D5D5",
"X. c #D6D6D6",
"o. c #D7D7D7",
"O. c #D8D8D8",
"+. c #D9D9D9",
"@. c #DADADA",
"#. c #DBDBDB",
"$. c #DCDCDC",
"%. c #DDDDDD",
"&. c #DEDEDE",
"*. c #DFDFDF",
"=. c #E0E0E0",
"-. c #E1E1E1",
";. c #E2E2E2",
":. c #E3E3E3",
">. c #E4E4E4",
",. c gray90",
"<. c #E6E6E6",
"1. c #E7E7E7",
"2. c #E8E8E8",
"3. c #E9E9E9",
"4. c #EAEAEA",
"5. c #EBEBEB",
"6. c #ECECEC",
"7. c #EDEDED",
"8. c #EEEEEE",
"9. c #EFEFEF",
"0. c #F0F0F0",
"q. c #F1F1F1",
"w. c #F2F2F2",
"e. c #F3F3F3",
"r. c #F4F4F4",
"t. c #F5F5F5",
"y. c #F6F6F6",
"u. c #F7F7F7",
"i. c #F8F8F8",
"p. c #F9F9F9",
"a. c #FAFAFA",
"s. c None",
/* pixels */
"s.s.s.s.s.s.s.s.s.s.s.s.s.s.s.s.s.s.s.s.s.s.s.s.s.s.s.s.s.s.s.s.s.s.s.s.s.s.s.s.s.s.s.s.s.s.s.s.",
"s.s.s.s.s.s.s.s.s.s.s.s.s.s.s.s.s.s.s.s.s.s.s.s.s.s.s.s.s.s.s.s.s.s.s.s.s.s.s.s.s.s.s.s.s.s.s.s.",
"s.s.s.s.s.s.s.s.s.s.s.s.s.s.s.s.s.s.s.s.s.s.s.s.s.s.s.s.s.s.s.s.s.s.s.s.s.s.s.s.s.s.s.s.s.s.s.s.",
"s.s.s.s.s.s.s.F L L U U U U L L H F F F A V V m m b b l l f f s i i y y y 8 8 8 : s.s.s.s.s.s.s.",
"s.s.s.s.s.s.A  .2.2.7.2.2.2.2.2.2.2.1.1.1.1.1.1.:.1.:.:.:.:.:.:.:.*.*.*.*.*.#.*.W : s.s.s.s.s.s.",
"s.s.s.s.s.s.F 2.2.:.1.1.2.1.1.1.1.1.1.1.1.1.2.1.2.2.2.2.2.2.2.1.2.2.1.2.1.2.1.7.:.8 s.s.s.s.s.s.",
"s.s.s.s.s.s.F 1.:.*.*.#.1.:.*.*.:.*.:.*.:.:.:.:.:.:.:.:.:.:.:.1.:.:.:.:.:.:.:.1.*.2 s.s.s.s.s.s.",
"s.s.s.s.s.s.F 1.1.*.*.*.:.:.:.*.:.:.:.:.:.:.:.:.:.1.:.1.:.1.1.:.:.1.1.1.:.1.1.2.:.2 s.s.s.s.s.s.",
"s.s.s.s.s.s.F 1.1.*.*.*.:.:.:.*.*.*.#.*.*.*.*.:.*.*.*.:.*.:.*.:.:.*.*.:.1.1.1.2.:.2 s.s.s.s.s.s.",
"s.s.s.s.s.s.A 1.1.*.*.*.:.:.:.*.! W ! ! ! ! ! ! ! ! ! ! ! ! ! ! ! ! ! ^ :.1.1.7.:.8 s.s.s.s.s.s.",
"s.s.s.s.s.s.V 1.1.*.*.*.1.:.:.:.#.#.#.#.#.#.#.#.*.*.#.*.#.*.#.*.*.*.#.*.:.1.1.2.*.2 s.s.s.s.s.s.",
"s.s.s.s.s.s.V 1.1.*.:.*.1.:.:.*.^ ! ! ! ! ! ! ! ! ! ! ^ ! ^ ^ ! ^ ^ ! ` :.1.1.2.:.2 s.s.s.s.s.s.",
"s.s.s.s.s.s.V 1.2.:.*.*.1.:.:.:.#.#.#.*.*.#.#.*.*.*.#.*.*.*.*.*.*.*.*.*.2.2.2.7.:.2 s.s.s.s.s.s.",
"s.s.s.s.s.s.m :.1.:.:.*.1.1.:.*.^ ! ! ! ! ! ^ ^ ! ^ ^ ^ ^ ^ ^ ! ^ ^ ^ ` 1.2.2.7.*.2 s.s.s.s.s.s.",
"s.s.s.s.s.s.m 1.2.:.:.:.1.:.1.:.*.#.*.#.*.*.*.*.*.*.:.*.*.:.*.*.*.*.*.:.1.2.2.7.:.2 s.s.s.s.s.s.",
"s.s.s.s.s.s.m :.2.:.:.*.1.1.1.:.^ ^ ^ ! ^ ^ ! ^ ^ ^ ^ ^ ^ ` ^ ^ ` ^ ^ ` 2.2.2.7.*.2 s.s.s.s.s.s.",
"s.s.s.s.s.s.b :.2.:.:.:.1.1.1.:.*.*.#.*.*.*.*.:.*.*.:.*.*.:.*.:.:.*.*.:.2.7.2.w.:.: s.s.s.s.s.s.",
"s.s.s.s.s.s.b :.2. .` :.1.1.1.:.` ^ ^ ! ^ ^ ^ ^ ^ ^ ` ^ ^ ^ ^ ^ ^ ^ ^ ` 2.2.2.w.:.: s.s.s.s.s.s.",
"s.s.s.s.s.s.b :.1.! T ` 2.1.1.1.*.*.*.*.:.*.*.:.:.:.*.:.:.:.:.:.:.:.:.:.7.7.7.7.:.2 s.s.s.s.s.s.",
"s.s.s.s.s.s.f :.2.^ R #.2.1.1.1.` ^ ^ ^ ^ ^ ^ ^ ^ ` ^ ^ ^ ^ ` ^ ` ` ^ ` 2.7.7.7.:.: s.s.s.s.s.s.",
"s.s.s.s.s.s.f :.7.:.:.:.2.2.2.2.*.*.:.*.*.:.:.:.:.:.:.:.:.:.:.:.:.:.:.:.7.7.7.7.*.* s.s.s.s.s.s.",
"s.s.s.s.s.s.f 1.7.1.1.:.7.2.2.1.` ^ ^ ^ ^ ^ ^ ^ ^ ` ^ ^ ` ` ` ^ ` ^ ` [ 7.7.7.w.:.: s.s.s.s.s.s.",
"s.s.s.s.s.s.s :.2.:.1.:.2.2.2.2.:.:.*.:.:.:.:.:.:.:.:.:.:.:.:.:.1.:.:.1.7.7.7.w.:.* s.s.s.s.s.s.",
"s.s.s.s.s.s.s :.7.:.1.1.7.2.2.1.` ^ ^ ^ ^ ` ^ ` ` ^ ` ` ` ` ` ` ` ` ^ [ 7.w.7.w.*.* s.s.s.s.s.s.",
"s.s.s.s.s.s.s *.7.1.1.:.2.2.7.2.:.:.:.:.:.:.:.:.1.1.2.2.7.2.2.7.7.2.7.2.w.w.w.w.:.* s.s.s.s.s.s.",
"s.s.s.s.s.s.i *.2.1.1.1.7.7.2.2.` ^ ^ ^ ^ ` ^ ` [ 7.w.7.w.w.w.w.w.w.w.w.w.7.w.w.:.* s.s.s.s.s.s.",
"s.s.s.s.s.s.y *.7.1.1.1.2.7.2.2.1.1.1.2.2.2.2.2.2.w.w.w.w.w.w.w.w.w.w.w.w.w.w.w.*.% s.s.s.s.s.s.",
"s.s.s.s.s.s.y *.2.1.1.1.7.2.2.7.7.2.7.7.7.w.w.w.w.w.w.w.w.r.w.r.w.r.r.w.w.w.w.w.*.% s.s.s.s.s.s.",
"s.s.s.s.s.s.y *.7.1.1.1.7.2.7.2.1.2.2.2.2.2.2.7.7.7.7.7.7.7.7.7.7.7.7.7.w.w.r.r.*.% s.s.s.s.s.s.",
"s.s.s.s.s.s.0 #.2.^ R #.7.7.2.1.` ^ ` ` ` ` ` ` ` ` ` ` ` [ [ [ [ [ [  .w.r.w.r.*.% s.s.s.s.s.s.",
"s.s.s.s.s.s.8 *.2.! Y  .7.7.2.7.:.:.:.:.:.:.1.1.1.1.2.2.2.2.2.2.2.2.2.2.w.r.w.r.:.% s.s.s.s.s.s.",
"s.s.s.s.s.s.8 #.7.*. .1.7.2.7.2.` ` ^ ` ` ` ` [ ` ` ` [ [ [ [ [ [ [ [  .w.r.r.r.*.% s.s.s.s.s.s.",
"s.s.s.s.s.s.8 #.7.2.2.2.7.2.7.2.:.:.:.:.:.1.1.1.1.1.2.2.7.2.2.7.2.2.2.7.r.r.r.p.:.% s.s.s.s.s.s.",
"s.s.s.s.s.s.2 #.7.2.2.1.7.7.7.2.[ ^ ` ` ` ` ` ` ` [ [ [ [ [ [ [ [  .[  .w.p.r.r.*.% s.s.s.s.s.s.",
"s.s.s.s.s.s.: #.7.2.2.2.7.7.7.7.1.:.:.:.:.1.1.1.1.1.2.2.2.2.2.7.7.7.7.7.r.r.r.p.*.% s.s.s.s.s.s.",
"s.s.s.s.s.s.: #.7.2.2.2.7.2.7.2.[ ^ ` ` ` ` ` ` [ [ [ [  .[ [ [ [ [ [  .r.r.r.r.*.% s.s.s.s.s.s.",
"s.s.s.s.s.s.: #.7.2.2.1.7.2.7.7.1.:.:.1.1.1.1.1.1.1.2.2.2.7.w.w.w.w.w.w.r.r.r.p.:.% s.s.s.s.s.s.",
"s.s.s.s.s.s.* #.7.2.2.2.7.7.7.2.[ ^ ^ ` ^ ` ` ` [ ` [ [ [  .r.p.p.p.p.p.r.p.r.p.*.% s.s.s.s.s.s.",
"s.s.s.s.s.s.*  .7.2.2.2.7.2.2.7.2.2.2.2.2.7.7.7.7.7.w.w.w.w.p.p.p.p.p.p.p.p.r.r.*.% s.s.s.s.s.s.",
"s.s.s.s.s.s.% #.7.2.2.2.7.7.7.7.7.w.7.w.w.w.w.w.r.r.r.r.r.p.r.p.p.p.p.r.r.r.r.p.:.% s.s.s.s.s.s.",
"s.s.s.s.s.s.@  .7.2.2.2.7.7.7.7.7.w.7.7.w.w.w.w.r.r.r.r.r.p.p.p.p.p.r.p.r.r.r.r.*.@ s.s.s.s.s.s.",
"s.s.s.s.s.s.@  .7.2.2.1.7.2.2.7.7.7.7.w.7.w.w.w.r.r.r.r.r.r.r.r.r.r.p.r.p.p.r.r.*.% s.s.s.s.s.s.",
"s.s.s.s.s.s.o #.w.2.2.2.7.7.7.w.7.7.w.w.w.w.w.r.r.r.r.p.p.r.r.p.p.p.r.p.r.p.r.p.:.% s.s.s.s.s.s.",
"s.s.s.s.s.s.X W 2.1.2.1.1.1.1.1.1.1.1.2.1.1.2.2.2.2.2.2.2.2.2.2.2.2.2.2.2.2.2.2.^ o s.s.s.s.s.s.",
"s.s.s.s.s.s.  @ : : : : * : : : : : : : : : : : : : : * : : : : * : : : : : : : %   s.s.s.s.s.s.",
"s.s.s.s.s.s.s.s.s.s.s.s.s.s.s.s.s.s.s.s.s.s.s.s.s.s.s.s.s.s.s.s.s.s.s.s.s.s.s.s.s.s.s.s.s.s.s.s.",
"s.s.s.s.s.s.s.s.s.s.s.s.s.s.s.s.s.s.s.s.s.s.s.s.s.s.s.s.s.s.s.s.s.s.s.s.s.s.s.s.s.s.s.s.s.s.s.s.",
"s.s.s.s.s.s.s.s.s.s.s.s.s.s.s.s.s.s.s.s.s.s.s.s.s.s.s.s.s.s.s.s.s.s.s.s.s.s.s.s.s.s.s.s.s.s.s.s."
};
