/* XPM */
static char *video_x_generic[] = {
/* columns rows colors chars-per-pixel */
"48 48 76 1 ",
"  c #353733",
". c #393B37",
"X c #3C3E3A",
"o c #3F413E",
"O c #41433F",
"+ c #444543",
"@ c #474945",
"# c #484A46",
"$ c #4A4A49",
"% c #4F504D",
"& c #50524F",
"* c #545553",
"= c #565955",
"- c #585A57",
"; c #5B5C5B",
": c #5F605D",
"> c #61635F",
", c #646463",
"< c #676966",
"1 c #6A6B67",
"2 c #6C6D6B",
"3 c #6E716C",
"4 c #71736E",
"5 c #747572",
"6 c #767973",
"7 c #797C76",
"8 c #7C7D79",
"9 c #7E817C",
"0 c #81837E",
"q c #848682",
"w c #868984",
"e c #898B86",
"r c #8C8E89",
"t c #8E918B",
"y c #91938E",
"u c #949691",
"i c #969994",
"p c #999B96",
"a c #9C9E99",
"s c #9EA09C",
"d c #A1A39F",
"f c #A4A6A1",
"g c #A6A9A4",
"h c #A9ABA6",
"j c #ACAEA9",
"k c #AEB1AC",
"l c #B1B3AE",
"z c #B4B5B2",
"x c #B6B9B3",
"c c #B8BAB6",
"v c #BDBFBB",
"b c #BEC2BA",
"n c #C1C4BE",
"m c #C3C5C1",
"M c #C6CAC2",
"N c #C9CCC6",
"B c #CCCEC9",
"V c #CED1CB",
"C c #D3D7CF",
"Z c #D3D5D0",
"A c #D6D9D2",
"S c #D9DDD6",
"D c #DCDFD9",
"F c #DEE1DB",
"G c #E1E3DE",
"H c #E4E6E1",
"J c #E7E9E4",
"K c #E9EAE7",
"L c #EBEDEA",
"P c #EFF0EE",
"I c #F0F1EE",
"U c #F4F5F4",
"Y c #F7F8F6",
"T c #F8F9F7",
"R c #FBFCFB",
"E c None",
/* pixels */
"EEEEEEEEEEEEEEEEEEEEEEEEEEEEEEEEEEEEEEEEEEEEEEEE",
"EEEEEEEEEEEEEEEEEEEEEEEEEEEEEEEEEEEEEEEEEEEEEEEE",
"EEEEEEEEEEEEEEEEEEEEEEEEEEEEEEEEEEEEEEEEEEEEEEEE",
"EEEEEEEEEEEEEEEEEEEEEEEEEEEEEEEEEEEEEEEEEEEEEEEE",
"EEEEEEEEEEEEEEEEEEEEEEEEEEEEEEEEEEEEEEEEEEEEEEEE",
"EEEEEEEEEEEEEEEEEEEEEEEEEEEEEEEEEEEEEEEEEEEEEEEE",
"EEEEEEEEEEEEEEEEEEEEEEEEEEEEEEEEEEEEEEEEEEEEEEEE",
"EEEEEEEEEEEEEEEEEEEtttttttEEEEEEEEEEEEEEEEEEEEEE",
"EEEEEEEEEEEEEEetygcnBCCBMnxdttEEEEEEEEEEEEEEEEEE",
"EEEEEEEEEEEEtycCFAMljlbAAASFFCzytEEEEEEEEEEEEEEE",
"EEEEEEEEEEtuMGSAkrtEEettnCCCCCDFmueEEEEEEEEEEEEE",
"EEEEEEEEEtcFSCCdtEEEEEEErbCZCCCCSFctEEEEEEEEEEEE",
"EEEEEEEEyZFACCntEEEEEEEE0yCCCCCCCCFAyEEEEEEEEEEE",
"EEEEEEEiDDCCCClw356666966eVCCCCCCCCSSpEEEEEEEEEE",
"EEEEEEtDSCCCCCce690errtyyrCCnfyeeuhBSDyEEEEEEEEE",
"EEEEEtVFCCCCCCCtweetyyyytjCfrw8946wtlFZtEEEEEEEE",
"EEEEEjHCCACACCCVytrtyyttgCgtsdu6yq34rbHkEEEEEEEE",
"EEEEtDSCCnkptusxVxptryfnCVrddfgp9ss76ySFtEEEEEEE",
"EEEEpJCCfti00rrtynCCCCCCCntffghjrrddqeCJaEEEEEEE",
"EEEExHCiisd6rtyuyrMCCCCCCVrfhjjkg8ddpyCHcEEEEEEE",
"EEEEnJbtsss9yuiipysCCCCCCCdihkkll9sstcCDMEEEEEEE",
"EEEEnGgidfp6uiipaarCCCCCCCCdydkzxqytlZCGN0EEEEEE",
"EEEEnHkufsi6ippsssyCCnhsadjnndtewtgNCCCHmEEEEEEE",
"EEEEfPMtsst4tsssdykMiypffdatinCZCCCZCCCKgEEEEEEE",
"EEEEtPSxtpi>9sfsypntskkllzzcftnZCCCCCCSPtEEEEEEE",
"EEEEeBKCnpr00etyzZydkllzxxcccjtZCCCCCCKVeEEEEEEE",
"EEEEeyPFCCVnxbnCZnyllzxxcxccclevCCCCCDPyeEEEEEEE",
"EEEE0ukUSCVCCCCCCcpzzcxxccclp60xCCCCSUzi9EEEEEEE",
"EEEE4dynUDCCCCCCCntpfhhhfp064>enCCCSUmyf5EEEEEEE",
"EEEE4psycYGCCCCCCZa0666664<;*8pCCCDTvysi3EEEEEEE",
"EEEEE8ddyjUISCCCCCVu0:=====3ruVCSPUkyff6EEEEEEEE",
"EEEEE3tdditVTPDCCCCCzt000ettkVDLTZtyfdt2EEEEEEEE",
"EEEEEE3uddauuBUTLHSCCZmczcBHLUYZiuyq5<%o...EEEEE",
"EEEEEEE3yddfs5wgVKRRRTYTRRTKZjw3&$;<45quaaur2ooE",
"EEEEEEEE3wddfp#;40weidhfirw9<:*;;;&$$$$$$$;9dmjX",
"EEEEEEEEE24tsdp&@:124555421,,:;;**%%$$++$$*;275X",
"EEEEEEEEEEE25ras5+#;<23322<,,;;=**&$$$$$$$*,28,E",
"EEEEEEEEEEEEE238ey9-+@&**-==*&%#++++++$$$$=,48-E",
"EEEEEEEEEEEEEEEE133431>-&%$$@+X EEEoXoXO+%;<59$E",
"EEEEEEEEEEEEEEEEEEEEEEEEEEEEEEEEEEEEEEEEXX$:59oE",
"EEEEEEEEEEEEEEEEEEEEEEEEEEEEEEEEEEEEEEEEEEEo+-XE",
"EEEEEEEEEEEEEEEEEEEEEEEEEEEEEEEEEEEEEEEEEEEEEXEE",
"EEEEEEEEEEEEEEEEEEEEEEEEEEEEEEEEEEEEEEEEEEEEEEEE",
"EEEEEEEEEEEEEEEEEEEEEEEEEEEEEEEEEEEEEEEEEEEEEEEE",
"EEEEEEEEEEEEEEEEEEEEEEEEEEEEEEEEEEEEEEEEEEEEEEEE",
"EEEEEEEEEEEEEEEEEEEEEEEEEEEEEEEEEEEEEEEEEEEEEEEE",
"EEEEEEEEEEEEEEEEEEEEEEEEEEEEEEEEEEEEEEEEEEEEEEEE",
"EEEEEEEEEEEEEEEEEEEEEEEEEEEEEEEEEEEEEEEEEEEEEEEE"
};
