/* XPM */
static char *minimize_xpm[] = {
"16 16 2 1",
"0	c #dddddd",
" 	c None",
"                ",
"                ",
"                ",
"                ",
"     000000     ",
"     000000     ",
"                ",
"  000000000000  ",
"  000000000000  ",
"                ",
"                ",
"                ",
"                ",
"                ",
"                ",
"                "
};
