/* XPM */
static char *user_home[] = {
/* columns rows colors chars-per-pixel */
"48 48 106 2 ",
"   c gray24",
".  c #464646",
"X  c #4C4C4C",
"o  c #535353",
"O  c #5C5C5C",
"+  c #5C6775",
"@  c #646464",
"#  c #66696D",
"$  c #6C6C6C",
"%  c #626D7A",
"&  c #6F7174",
"*  c #6B727B",
"=  c #757575",
"-  c #7C7C7C",
";  c #2F5A93",
":  c #376096",
">  c #34639F",
",  c #3465A4",
"<  c #3768A7",
"1  c #3B69A4",
"2  c #3A6AA8",
"3  c #4C688C",
"4  c #546780",
"5  c #556881",
"6  c #58708D",
"7  c #436B9C",
"8  c #4B6D98",
"9  c #556E90",
"0  c #59759B",
"q  c #617084",
"w  c #667488",
"e  c #757B84",
"r  c #436DA2",
"t  c #4572AB",
"y  c #4877AF",
"u  c #4E78AE",
"i  c #4476B1",
"p  c #4B7CB7",
"a  c #4E7EB8",
"s  c #517DB3",
"d  c #7C8186",
"f  c #5B83B4",
"g  c #5284BE",
"h  c #5B87BC",
"j  c #678DBC",
"k  c #6990BF",
"l  c #5789C2",
"z  c #6490C2",
"x  c #6F9AC7",
"c  c #6295CB",
"v  c #6798CC",
"b  c #6C9BCE",
"n  c #7196C4",
"m  c #7399C6",
"M  c #729FCF",
"N  c #789EC9",
"B  c #709ED0",
"V  c #73A0CF",
"C  c #7EA2CD",
"Z  c #75A1D0",
"A  c #7BA5D2",
"S  c #7FA8D3",
"D  c #838383",
"F  c #8B8B8B",
"G  c #90908F",
"H  c #939393",
"J  c #9B9B9B",
"K  c #A4A4A4",
"L  c #ACACAC",
"P  c #B4B4B4",
"I  c #BCBCBC",
"U  c #82A7D0",
"Y  c #83AAD4",
"T  c #89AED6",
"R  c #8BB0D7",
"E  c #8DB2D8",
"W  c #91B1D5",
"Q  c #92B5DA",
"!  c #9BBADC",
"~  c #A0BFDF",
"^  c #A1BFE0",
"/  c #A3C0DF",
"(  c #A6C2E1",
")  c #AAC5E2",
"_  c #AFC8E4",
"`  c #B3CBE5",
"'  c #B8CEE7",
"]  c #B9D0E7",
"[  c #BBD1E8",
"{  c #C3C3C3",
"}  c #CBCBCB",
"|  c #C2D6EA",
" . c #CADBED",
".. c #D0DFEF",
"X. c #D1E0EF",
"o. c #D2E1F0",
"O. c #DAE6F2",
"+. c #DFEAF4",
"@. c #E2ECF5",
"#. c #E8EFF7",
"$. c #E8F0F7",
"%. c #EFF4F9",
"&. c #F1F5FA",
"*. c #F5F8FC",
"=. c #FCFEFE",
"-. c None",
/* pixels */
"-.-.-.-.-.-.-.-.-.-.-.-.-.-.-.-.-.-.-.-.-.-.-.-.-.-.-.-.-.-.-.-.-.-.-.-.-.-.-.-.-.-.-.-.-.-.-.-.",
"-.-.-.-.-.-.-.-.-.-.-.-.-.-.-.-.-.-.-.-.-.-.-.-.-.-.-.-.-.-.-.-.-.-.-.-.-.-.-.-.-.-.-.-.-.-.-.-.",
"-.-.-.-.-.-.-.-.-.-.-.-.-.-.-.-.-.-.-.-.-.-.-.-.-.-.-.-.-.-.-.-.-.-.-.-.-.-.-.-.-.-.-.-.-.-.-.-.",
"-.-.-.-.-.-.-.-.-.-.-.-.-.-.-.-.-.-.-.-.-.-.-.-.-.-.-.-.-.-.-.-.-.-.-.-.-.-.-.-.-.-.-.-.-.-.-.-.",
"-.-.-.-.-.-.-.-.-.-.-.-.-.-.-.-.-.-.-.-.-.-.-.-.-.-.-.-.-.-.-.-.-.-.-.-.-.-.-.-.-.-.-.-.-.-.-.-.",
"-.-.-.D = = = = - = = = = - = = = - = - -.-.-.-.-.-.-.-.-.-.-.-.-.-.-.-.-.-.-.-.-.-.-.-.-.-.-.-.",
"-.-.-.= } } } } { { { { { I I I I I I K = -.-.-.-.-.-.-.-.-.-.-.-.-.-.-.-.-.-.-.-.-.-.-.-.-.-.-.",
"-.-.-.= } P K K K K J J J J J J J H J L = -.-.-.-.-.-.-.-.-.-.-.-.-.-.-.-.-.-.-.-.-.-.-.-.-.-.-.",
"-.-.-.= I J G G G F F D F D D D D - D F D -.-.-.-.-.-.-.-.-.-.-.-.-.-.-.-.-.-.-.-.-.-.-.-.-.-.-.",
"-.-.-.= { L K J J J H J H H G G G G F G F = -.-.-.-.-.-.-.-.-.-.-.-.-.-.-.-.-.-.-.-.-.-.-.-.-.-.",
"-.-.-.= P H F F F D D D D - - - - - - = - = $ $ & $ $ $ $ $ $ $ $ $ $ $ $ -.-.-.-.-.-.-.-.-.-.-.",
"-.-.-.& I L J J J H G G F F F F D D F D D D H K P P P P P P P I P I I I $ -.-.-.-.-.-.-.-.-.-.-.",
"-.-.-.& L H D D D - D - = - = = = = = = = & = = = = = = = = = - - D D D $ -.-.-.-.-.-.-.-.-.-.-.",
"-.-.-.& L K J H G G F F F D D D D - - - - - - - - - - D D D D F F G F G @ -.-.-.-.-.-.-.-.-.-.-.",
"-.-.-.$ K G D - - - = = = & & & & $ & $ $ $ $ $ $ $ $ $ & & = = = = = D @ -.-.-.-.-.-.-.-.-.-.-.",
"-.-.-.$ K K G G 0 , , , , , , , , , , , , , , , , , , , , , , , , , , , , , , , , , , 2 -.-.-.-.",
"-.-.-.$ J G - - 7 W ] ] ] ] ] ] ] ] ] ] ' ] ] ] ] ] ] ] ] ] ] ] ] ] ] ] ] ] ] ] ] ] _ , -.-.-.-.",
"-.-.-.@ J J G G r ! E S S S S S U U S S S S S S S S S S S S S S S S S S S S S S S T ^ < -.-.-.-.",
"-.-.-.@ G F = = 1 ) R S S S S S S S S S S S S S S S S S S S S S S S S S S S S S S T ! < -.-.-.-.",
"-.-.-.@ G J D D , _ Y S S S S S S S S S S S S S S S S S S S S S S S S S S S S S A T W < -.-.-.-.",
"-.-.-.O F F = & < ' S S S S S S S S S S S S S S U ! @._ S S S S S S S S S S U U V E U 1 -.-.-.-.",
"-.-.-.O D J D e r ' S S S S S S S S S S S S S T o.=.=.=.O.R S S S S S S S S S V B Q C , -.-.-.-.",
"-.-.-.O D D & % u _ S S S S S S S S S S S U ) %.=.=.=.=.=.*.( S S S S S S S V V B ! m -.-.-.-.-.",
"-.-.-.-.- J - w f ) S S S S S S S S S S R X.*.*.*.*.*.*.*.*.*.[ Y S S S S V M V B ! k -.-.-.-.-.",
"-.-.-.-.= D & 5 j ( S S S S S S S S S _ #.%.%.%.%.%.%.%.%.%.%.%.O.R S S V V M M M ~ h -.-.-.-.-.",
"-.-.-.-.= H - 6 n ~ S S S S S S S E ..#.#.#.#.#.#.#.#.$.$.$.$.$.#.@./ B V B M M M ( s -.-.-.-.-.",
"-.-.-.-.$ D $ 3 N ! S S S S S U ` +.@.@.+.@.@.@.+.@.@.@.@.+.@.@.@.@.+.] Z V B M M ( y -.-.-.-.-.",
"-.-.-.-.$ H = 8 C Q S S S S S ! ) | O.O.O.O.O.O.O.O.O.O.O.O.O.O.o.O.' / Q B V M M ( 2 -.-.-.-.-.",
"-.-.-.-.@ - $ 7 U E S S S S U U S _ X.X....... ... . . . .....X.....R B M M M V V / , -.-.-.-.-.",
"-.-.-.-.@ G = 7 Y T S S S S A Z V )  . . . . . . .S V B B )  . . . .U V M M M B Z Q < -.-.-.-.-.",
"-.-.-.-.O - $ > R T S A Z V B V B _ | | | | | | | V B V V _ | | | | Z M V M M V A T < -.-.-.-.-.",
"-.-.-.-.O F = < E A V B V V V B V ) [ ' [ [ [ [ ' B V B V _ [ [ | [ V M M M B B A C 2 -.-.-.-.-.",
"-.-.-.-.o - $ < R M B B B M M M M _ ` _ ` ` _ ' ) V M b B _ ` ` ` ) B b B B B B Z b 2 -.-.-.-.-.",
"-.-.-.-.o F * 1 Y x b B B x b b b ) ) ) ) ) ) ) ! v b b B ) ) ) ) ^ b b b B v B V z < -.-.-.-.-.",
"-.-.-.-.X e + r Z b v b b b b v M ^ ! ! ^ ^ ^ ^ E b b v B ^ ^ ^ ^ Q b v v v v c B l , -.-.-.-.-.",
"-.-.-.-.. F q y b v v v v v v v v v c c c v c v c v v v v c c c c v c v c v c c b a ; -.-.-.-.-.",
"-.-.-.-.. - 4 y c c c c c c c c c c c c c c c c c c c c c c c c c c c c c c c c c i -.-.-.-.-.-.",
"-.-.-.-.. D 9 a c c c c c c c c c c c c c c c c c c c c c c c c c c c c c c c c c 2 -.-.-.-.-.-.",
"-.-.-.-.. d 1 l c c c c c c c c c c c c c c c c c c c c c c c l c c c c c c l c g , -.-.-.-.-.-.",
"-.-.-.-.  : , , , , , , , , , , , , , , , , , , , , , , , , , , < , , , , , , , > -.-.-.-.-.-.-.",
"-.-.-.-.-.-.-.-.-.-.-.-.-.-.-.-.-.-.-.-.-.-.-.-.-.-.-.-.-.-.-.-.-.-.-.-.-.-.-.-.-.-.-.-.-.-.-.-.",
"-.-.-.-.-.-.-.-.-.-.-.-.-.-.-.-.-.-.-.-.-.-.-.-.-.-.-.-.-.-.-.-.-.-.-.-.-.-.-.-.-.-.-.-.-.-.-.-.",
"-.-.-.-.-.-.-.-.-.-.-.-.-.-.-.-.-.-.-.-.-.-.-.-.-.-.-.-.-.-.-.-.-.-.-.-.-.-.-.-.-.-.-.-.-.-.-.-.",
"-.-.-.-.-.-.-.-.-.-.-.-.-.-.-.-.-.-.-.-.-.-.-.-.-.-.-.-.-.-.-.-.-.-.-.-.-.-.-.-.-.-.-.-.-.-.-.-.",
"-.-.-.-.-.-.-.-.-.-.-.-.-.-.-.-.-.-.-.-.-.-.-.-.-.-.-.-.-.-.-.-.-.-.-.-.-.-.-.-.-.-.-.-.-.-.-.-.",
"-.-.-.-.-.-.-.-.-.-.-.-.-.-.-.-.-.-.-.-.-.-.-.-.-.-.-.-.-.-.-.-.-.-.-.-.-.-.-.-.-.-.-.-.-.-.-.-.",
"-.-.-.-.-.-.-.-.-.-.-.-.-.-.-.-.-.-.-.-.-.-.-.-.-.-.-.-.-.-.-.-.-.-.-.-.-.-.-.-.-.-.-.-.-.-.-.-.",
"-.-.-.-.-.-.-.-.-.-.-.-.-.-.-.-.-.-.-.-.-.-.-.-.-.-.-.-.-.-.-.-.-.-.-.-.-.-.-.-.-.-.-.-.-.-.-.-."
};
