/* XPM */
static char * rlsd_xpm[] = {
"48 48 232 2",
"  	c None",
". 	c #565656",
"+ 	c #4A4A4A",
"@ 	c #4C4C4C",
"# 	c #4D4D4D",
"$ 	c #4E4E4E",
"% 	c #4B4B4B",
"& 	c #3F3F3F",
"* 	c #BFBFBD",
"= 	c #1E1E1F",
"- 	c #050505",
"; 	c #070707",
"> 	c #212121",
", 	c #BDBDBD",
"' 	c #737373",
") 	c #F9F9F9",
"! 	c #AFAFAF",
"~ 	c #000000",
"{ 	c #B2B2B2",
"] 	c #717171",
"^ 	c #C7C7C7",
"/ 	c #FFFFFF",
"( 	c #F7F7F7",
"_ 	c #313131",
": 	c #333333",
"< 	c #F8F8F8",
"[ 	c #C2C2C2",
"} 	c #3E3E3F",
"| 	c #7A7977",
"1 	c #C0C0C0",
"2 	c #C2C2C1",
"3 	c #757574",
"4 	c #535352",
"5 	c #F1F1F1",
"6 	c #FEFEFE",
"7 	c #5B5B5B",
"8 	c #5F5F5F",
"9 	c #FFFFFE",
"0 	c #EDEDED",
"a 	c #515151",
"b 	c #3A3A3A",
"c 	c #ACACAC",
"d 	c #EBEBEB",
"e 	c #151514",
"f 	c #151515",
"g 	c #A5A5A5",
"h 	c #3D3D3D",
"i 	c #656565",
"j 	c #EFEFEF",
"k 	c #7E7E7E",
"l 	c #838383",
"m 	c #626262",
"n 	c #464646",
"o 	c #C0C0BF",
"p 	c #FCFCFC",
"q 	c #0B0B0B",
"r 	c #0F0F0F",
"s 	c #FDFDFD",
"t 	c #B8B8B8",
"u 	c #464747",
"v 	c #6D6D6D",
"w 	c #EEEEEE",
"x 	c #F3F3F3",
"y 	c #0D0C00",
"z 	c #B0B0B0",
"A 	c #676665",
"B 	c #1C1C1C",
"C 	c #202020",
"D 	c #1F1F1F",
"E 	c #1E1E1E",
"F 	c #222222",
"G 	c #6E6701",
"H 	c #D2C600",
"I 	c #D0C300",
"J 	c #D0C400",
"K 	c #D1C400",
"L 	c #D4C700",
"M 	c #706801",
"N 	c #525252",
"O 	c #5A5A5A",
"P 	c #171717",
"Q 	c #292701",
"R 	c #E7D900",
"S 	c #F6E700",
"T 	c #E6D800",
"U 	c #272401",
"V 	c #575757",
"W 	c #030303",
"X 	c #8F8604",
"Y 	c #FDEE00",
"Z 	c #F5E600",
"` 	c #FFEF00",
" .	c #7D7607",
"..	c #040404",
"+.	c #404040",
"@.	c #252525",
"#.	c #E3D600",
"$.	c #F7E800",
"%.	c #DCCE02",
"&.	c #272727",
"*.	c #494949",
"=.	c #464302",
"-.	c #F8E900",
";.	c #F5E601",
">.	c #444003",
",.	c #030300",
"'.	c #B8AD02",
").	c #B7AB02",
"!.	c #020200",
"~.	c #3C3C3C",
"{.	c #545454",
"].	c #383501",
"^.	c #393601",
"/.	c #161616",
"(.	c #414141",
"_.	c #010101",
":.	c #7B7302",
"<.	c #FFFA00",
"[.	c #857C01",
"}.	c #050500",
"|.	c #C1B504",
"1.	c #373737",
"2.	c #919191",
"3.	c #9C9C93",
"4.	c #929291",
"5.	c #8F8F8F",
"6.	c #353535",
"7.	c #898987",
"8.	c #808080",
"9.	c #060606",
"0.	c #181818",
"a.	c #E9E9E9",
"b.	c #E7E7E7",
"c.	c #555555",
"d.	c #080808",
"e.	c #7F7F7F",
"f.	c #797979",
"g.	c #505050",
"h.	c #262626",
"i.	c #E8E8E8",
"j.	c #E3E3E3",
"k.	c #434343",
"l.	c #2F2F2F",
"m.	c #2C2C2C",
"n.	c #1A1A1A",
"o.	c #AAAAAA",
"p.	c #A8A8A8",
"q.	c #444444",
"r.	c #2B2B2B",
"s.	c #2A2A2A",
"t.	c #585858",
"u.	c #454545",
"v.	c #FBFBFB",
"w.	c #4F4F4F",
"x.	c #282828",
"y.	c #0A0A0A",
"z.	c #F6F6F6",
"A.	c #F5F5F5",
"B.	c #090909",
"C.	c #888888",
"D.	c #878787",
"E.	c #0D0D0D",
"F.	c #393939",
"G.	c #383838",
"H.	c #B4B4B4",
"I.	c #535353",
"J.	c #2D2D2D",
"K.	c #D3D3D3",
"L.	c #D1D1D1",
"M.	c #565655",
"N.	c #0B0B06",
"O.	c #F3F3F5",
"P.	c #EFEFF1",
"Q.	c #080804",
"R.	c #C2B600",
"S.	c #FFFFF6",
"T.	c #FFFFF4",
"U.	c #BBB008",
"V.	c #474308",
"W.	c #F1E200",
"X.	c #F7EE5F",
"Y.	c #FFFEFE",
"Z.	c #F8EF57",
"`.	c #C8BC09",
" +	c #F6E709",
".+	c #FDFAD6",
"++	c #FEFFFE",
"@+	c #FDFAD2",
"#+	c #F6E708",
"$+	c #C1B50D",
"%+	c #111111",
"&+	c #605B10",
"*+	c #FFF200",
"=+	c #F8EE4D",
"-+	c #F8EE4C",
";+	c #FFF300",
">+	c #58520B",
",+	c #121212",
"'+	c #191807",
")+	c #F0E106",
"!+	c #F5E700",
"~+	c #F5E500",
"{+	c #FAF6AA",
"]+	c #EEE003",
"^+	c #151508",
"/+	c #101010",
"(+	c #9C9307",
"_+	c #F6E812",
":+	c #FEFEF4",
"<+	c #FEFDF2",
"[+	c #F6E810",
"}+	c #978E02",
"|+	c #252308",
"1+	c #EFE004",
"2+	c #FAF387",
"3+	c #FAF386",
"4+	c #EDDF06",
"5+	c #212009",
"6+	c #C5B90B",
"7+	c #F9EA00",
"8+	c #FEFEF7",
"9+	c #C0B50B",
"0+	c #303030",
"a+	c #464649",
"b+	c #5B571C",
"c+	c #EBDD09",
"d+	c #E1D40B",
"e+	c #E1D303",
"f+	c #E4DC5C",
"g+	c #E7E7F0",
"h+	c #ECDE09",
"i+	c #56531B",
"                        . + @ # # # # # # # $ $ $ $ $ $ # # # # # % .                           ",
"                      & * = - ; ; ; ; ; ; ; ; ; ; ; ; ; ; ; ; ; - > , &                         ",
"                      ' ) ! ~ ~ ~ ~ ~ ~ ~ ~ ~ ~ ~ ~ ~ ~ ~ ~ ~ ~ ~ { ) ]                         ",
"                    # ^ / ( _ ~ ~ ~ ~ ~ ~ ~ ~ ~ ~ ~ ~ ~ ~ ~ ~ ~ : < / [ @                       ",
"                  } | / / / 1 ~ ~ ~ ~ ~ ~ ~ ~ ~ ~ ~ ~ ~ ~ ~ ~ ~ 2 / / / 3                       ",
"                  4 5 / / 6 / 7 ~ ~ ~ ~ ~ ~ ~ ~ ~ ~ ~ ~ ~ ~ ~ 8 / 6 9 / 0 a                     ",
"                b c / 6 / / / d e ~ ~ ~ ~ ~ ~ ~ ~ ~ ~ ~ ~ ~ f d / / / 6 / g h                   ",
"                i j 6 / / / / / k ~ ~ ~ ~ ~ ~ ~ ~ ~ ~ ~ ~ ~ l / / / / / 6 0 m                   ",
"              n o / / / / / / / p q ~ ~ ~ ~ ~ ~ ~ ~ ~ ~ ~ r s / / / / / / / t u                 ",
"              v < j j j j w w w x ! ~ y y y y y y y y y ~ z x w w w j j j j ) A                 ",
"              $ B C C D D D E E E F G H I J J J K K K L M F E E E D D D C C B N                 ",
"              O P ~ ~ ~ ~ ~ ~ ~ ~ ~ Q R S S S S S S S T U ~ ~ ~ ~ ~ ~ ~ ~ ~ B V                 ",
"                @ W ~ ~ ~ ~ ~ ~ ~ ~ ~ X Y Z S S S Z `  .~ ~ ~ ~ ~ ~ ~ ~ ~ ..#                   ",
"                +.@.~ ~ ~ ~ ~ ~ ~ ~ ~ ~ #.$.S S S $.%.~ ~ ~ ~ ~ ~ ~ ~ ~ ~ &.*.                  ",
"                  + W ~ ~ ~ ~ ~ ~ ~ ~ ~ =.-.Z S Z ;.>.~ ~ ~ ~ ~ ~ ~ ~ ~ ..+                     ",
"                  + b ~ ~ ~ ~ ~ ~ ~ ~ ~ ,.'.S S S ).!.~ ~ ~ ~ ~ ~ ~ ~ ~ ~.N                     ",
"                    {.f ~ ~ ~ ~ ~ ~ ~ ~ ~ ].S S S ^.~ ~ ~ ~ ~ ~ ~ ~ ~ /.{.                      ",
"                      (._.~ ~ ~ ~ ~ ~ ~ ~ ~ :.<.[.~ ~ ~ ~ ~ ~ ~ ~ ~ _.+.                        ",
"                      # /.~ ~ ~ ~ ~ ~ ~ ~ ~ }.|.}.~ ~ ~ ~ ~ ~ ~ ~ ~ /.a                         ",
"                        1.2.2.2.2.2.2.2.2.2.2.3.4.2.2.2.2.2.2.2.2.5.6.                          ",
"                      $ - 7./ / / / / / / / / / / / / / / / / / / 8.9.$                         ",
"                    (.1.~ 0.a.6 / / / / / / / / / / / / / / / 6 b./.~ 1.(.                      ",
"                    c.d.~ ~ e./ 6 / / / / / / / / / / / / / 6 / f.~ ~ d.c.                      ",
"                  g.h.~ ~ ~ ~ i./ 6 / / / / / / / / / / / 6 / j.~ ~ ~ ~ h.N                     ",
"                  k.~ ~ ~ ~ ~ l./ / / / / / / / / / / / / / / m.~ ~ ~ ~ ~ k.                    ",
"                # n.~ ~ ~ ~ ~ W o.6 / / / / / / / / / / / 6 p.W ~ ~ ~ ~ ~ n.@                   ",
"              +.q.~ ~ ~ ~ ~ ~ ~ r./ 6 / / / / / / / / / 6 / s.~ ~ ~ ~ ~ ~ ~ q.+.                ",
"              t.d.~ ~ ~ ~ ~ ~ ~ ~ 5./ / / / / / / / / / / 5.~ ~ ~ ~ ~ ~ ~ ~ d.t.                ",
"            u.r.~ ~ ~ ~ ~ ~ ~ ~ ~ ~ v./ / / / / / / / / v.~ ~ ~ ~ ~ ~ ~ ~ ~ ~ r.n               ",
"            + ; ~ ~ ~ ~ ~ ~ ~ ~ ~ w./ / / / / / / / / / / w.~ ~ ~ ~ ~ ~ ~ ~ ~ ; +               ",
"          N x.~ ~ ~ ~ ~ ~ ~ ~ ~ y.z./ / / / / / / / / / / A.B.~ ~ ~ ~ ~ ~ ~ ~ ~ x.a             ",
"          *.~ ~ ~ ~ ~ ~ ~ ~ ~ ~ C./ 6 / / / / / / / / / 6 / D.~ ~ ~ ~ ~ ~ ~ ~ ~ ~ *.            ",
"        a E.~ ~ ~ ~ ~ ~ ~ ~ ~ 0.5 / / / / / / / / / / / / / j P ~ ~ ~ ~ ~ ~ ~ ~ ~ E.g.          ",
"      F.G.~ ~ ~ ~ ~ ~ ~ ~ ~ ~ H./ 6 / / / / / / / / / / / 6 / z ~ ~ ~ ~ ~ ~ ~ ~ ~ ~ G.F.        ",
"      I.E.~ ~ ~ ~ ~ ~ ~ ~ ~ + / 6 / / / / / / / / / / / / / 6 / n ~ ~ ~ ~ ~ ~ ~ ~ ~ E.I.        ",
"    {.J.~ ~ ~ ~ ~ ~ ~ ~ ~ y.K.6 / / / / / / / / / / / / / / / / L.y.~ ~ ~ ~ ~ ~ ~ ~ ~ J.c.      ",
"    u.~ ~ ~ ~ ~ ~ ~ ~ ~ ~ M./ 6 / / / / / / / / / / / / / / / 6 / {.~ ~ ~ ~ ~ ~ ~ ~ ~ ~ u.      ",
"  *.B ~ ~ ~ ~ ~ ~ ~ ~ ~ N.O./ / / / / / / / / / / / / / / / / / / P.Q.~ ~ ~ ~ ~ ~ ~ ~ ~ B *.    ",
"  u.> ~ ~ ~ ~ ~ ~ ~ ~ ~ R.S./ / / / / / / / / / / / / / / / / / / T.U.~ ~ ~ ~ ~ ~ ~ ~ ~ > q.    ",
"    *._.~ ~ ~ ~ ~ ~ ~ V.W.X./ Y./ / / / / / / / / / / / / / / Y./ Z.W.V.~ ~ ~ ~ ~ ~ ~ _.*.      ",
"    $ 6.~ ~ ~ ~ ~ ~ ~ `.$. +.+++/ / / / / / / / / / / / / / / ++@+#+$.$+~ ~ ~ ~ ~ ~ ~ 1.g.      ",
"      {.%+~ ~ ~ ~ ~ &+*+Z Z =+/ / / / / / / / / / / / / / / / / -+Z Z ;+>+~ ~ ~ ~ ~ ,+{.        ",
"        ~.~ ~ ~ ~ '+)+S S !+~+{+/ 6 / / / / / / / / / / / 6 / {+~+!+S S ]+^+~ ~ ~ ~ h           ",
"        g./+~ ~ ~ (+S S S S S _+:+/ / / / / / / / / / / / / <+[+S S S S S }+~ ~ ~ ,+{.          ",
"          @ ~ ~ |+1+Z S S S S S 2+/ 6 / / / / / / / / / 6 / 3+S S S S S Z 4+5+~ ~ $             ",
"          + J.~ 6+7+S S S S S Z  +8+/ / / / / / / / / / / 8+ +Z S S S S S 7+9+~ 0+w.            ",
"            a+b+c+d+d+d+d+d+d+d+e+f+g+b.b.b.b.b.b.b.b.b.g+f+e+d+d+d+d+d+d+d+h+i+a+              ",
"                                                                                                "};
