/* XPM */
static char *audio[] = {
/* columns rows colors chars-per-pixel */
"48 48 90 1 ",
"  c #46510F",
". c #4C5712",
"X c #4E5A10",
"o c #515D13",
"O c #576413",
"+ c #596616",
"@ c #5A6817",
"# c #576318",
"$ c #586419",
"% c #5E6B1B",
"& c #616E1E",
"* c #63701D",
"= c #5F6B21",
"- c #626E22",
"; c #667224",
": c #687526",
"> c #6B7825",
", c #677329",
"< c #6A762A",
"1 c #6D792D",
"2 c #6F7B30",
"3 c #727D33",
"4 c #74812C",
"5 c #758135",
"6 c #7D8A37",
"7 c #778238",
"8 c #78843B",
"9 c #7E8A3C",
"0 c #7D8842",
"q c #818D3E",
"w c #9CAF27",
"e c #9CAF28",
"r c #9EB02A",
"t c #A0B22F",
"y c #A2B434",
"u c #A5B73A",
"i c #A7B83E",
"p c #A8B93F",
"a c #828D43",
"s c #869144",
"d c #8A9744",
"f c #859048",
"g c #89944A",
"h c #8D994C",
"j c #919D4F",
"k c #8A9550",
"l c #8F9A51",
"z c #939E54",
"x c #96A252",
"c c #97A15E",
"v c #99A45C",
"b c #A9BA43",
"n c #ADBD4B",
"m c #9CA665",
"M c #9FAA63",
"N c #A3AE64",
"B c #A5B065",
"V c #A9B467",
"C c #A6B06A",
"Z c #AAB46C",
"A c #AEB96C",
"S c #AAB470",
"D c #AEB971",
"F c #B2BD75",
"G c #B1C154",
"H c #B5C45D",
"J c #B7C561",
"K c #B9C765",
"L c #BAC867",
"P c #BAC768",
"I c #BCC96B",
"U c #B7C176",
"Y c #BBC675",
"T c #BECA73",
"R c #BAC57C",
"E c #BEC97B",
"W c #C0CC75",
"Q c #C2CD7B",
"! c #C4D07C",
"~ c #BCC681",
"^ c #BEC884",
"/ c #BFC889",
"( c #C4CE86",
") c #C4CE89",
"_ c #C6D184",
"` c #C9D387",
"' c #C9D38A",
"] c #CDD791",
"[ c #D1DA9C",
"{ c None",
/* pixels */
"{{{{{{{{{{{{{{{{{{{{{{{{{{{{{{{{{{{{{{{{{{{{{{{{",
"{{{{{{{{{{{{{{{{{{{{{{{{{{{{{{{{{{{{{{{{{{{{{{{{",
"{{{{{{{{{{{{{{{{{{{{{{{{{{{{{{{{{{{{{{{{{{{{{{{{",
"{{{{{{{{{{{{{{{{{{{{{{{{{{{{{{{{{{{{{{{{{{{{{{{{",
"{{{{{{{{{{{{{{{{{{{{{{{{{{{{{{{{{{{{{{{{{{{{{{{{",
"{{{{{{{{{{{{{{{{{{{{{{{{{{{{{{{{{{{{{{{{{{{{{{{{",
"{{{{{{{{{{{{{{{{{{{{{{{{{{{{{{{{{{{{{{{{{{{{{{{{",
"{{{{{{{{{{{{{{{{{{{{{{{{{{{{{{{{{{{{{{{{++{{{{{{",
"{{{{{{{{{{{{{{{{{{{{{{{{{{{{{{{{O@&;15alv1{{{{{{",
"{{{{{{{{{{{{{{{{{{{{{{{{O+&*>5qhvBAUEWTI(8{{{{{{",
"{{{{{{{{{{{{{{{{{{+*>46dxNAYEQTIJGniyretT8{{{{{{",
"{{{{{{{{{{{{{{{{{{*VEQQWLHnbuyeeeetubGJI(8{{{{{{",
"{{{{{{{{{{{{{{{{{{:RnytewwrrybnHPYYFSmc)(8{{{{{{",
"{{{{{{{{{{{{{{{{{{;UitubGJTTYFCck03,={-R(3{{{{{{",
"{{{{{{{{{{{{{{{{{{;RWERDNzf81-@{{{{{{{;R'3{{{{{{",
"{{{{{{{{{{{{{{{{{{;R'g;%@{{{{{{{{{{{{{;R)5{{{{{{",
"{{{{{{{{{{{{{{{{{{;R(7{{{{{{{{{{{{{{{{;R)8{{{{{{",
"{{{{{{{{{{{{{{{{{{;R(5{{{{{{{{{{{{{{{{;R)3{{{{{{",
"{{{{{{{{{{{{{{{{{{;R(8{{{{{{{{{{{{{{{{;R)3{{{{{{",
"{{{{{{{{{{{{{{{{{{;R)5{{{{{{{{{{{{{{{{;R)3{{{{{{",
"{{{{{{{{{{{{{{{{{{,R)5{{{{{{{{{{{{{{{{;R)3{{{{{{",
"{{{{{{{{{{{{{{{{{{;R)5{{{{{{{{{{{{{{{{;~)3{{{{{{",
"{{{{{{{{{{{{{{{{{{;R)5{{{{{{{{{{{{{{{{;R)2{{{{{{",
"{{{{{{{{{{{{{{{{{{,R)5{{{{{{{{{{{{{{{{;~)2{{{{{{",
"{{{{{{{{{{{{{{{{{{:R)3{{{{{{{{{{{{{{{{;~)2{{{{{{",
"{{{{{{{{{{{{{{{{{{;R)3{{{{{{{{{{{{{{{{;~)1{{{{{{",
"{{{{{{{{{{{{{{{{{{;~)3{{{{{{{{{{{{{{{{;~)2{{{{{{",
"{{{{{{{{{{{{{{{{{{:R(3{{{{{{{{{{{{{{{{;~)<{{{{{{",
"{{{{{{{{{{{{{{{{{{;~)3{{{{{{{{{{{{{{{{;~)1{{{{{{",
"{{{{{{{{{{{{{{{{{{;~)2{{{{{{{{{O@@%&%O-~/<{{{{{{",
"{{{{{{{{{{{{{{{{{{;~)2{{{{{{O;9xBZDZSMv')<{{{{{{",
"{{{{{{{{{{{{{{OOO{;~)1{{{{{*l/[]!KGnnGK!/<{{{{{{",
"{{{{{{{{{O%1qhxxja0()1{{{{;S[])QKGyeeerGD-{{{{{{",
"{{{{{{{O:hD_!WIKPTQ')<{{{oz'KTWIGbyeeen!qO{{{{{{",
"{{{{{{@f^]_THnyterrnR,{{{OZHbbbbyrerpKRf@{{{{{{{",
"{{{{{@x'QW_!IGurrrrKC@{{{.f!HnbbbnJTYv1O{{{{{{{{",
"{{{{{5!GHPIKGbtrrbID<{{{{{o8mZFUFZva;#{{{{{{{{{{",
"{{{{{6!bubbiyyuGIRz-{{{{{{{{.@=-=@o{{{{{{{{{{{{{",
"{{{{{&zETPKLTQYVg,.{{{{{{{{{{{{{{{{{{{{{{{{{{{{{",
"{{{{{{+1ahzhs7;# {{{{{{{{{{{{{{{{{{{{{{{{{{{{{{{",
"{{{{{{{{{{oX{{{{{{{{{{{{{{{{{{{{{{{{{{{{{{{{{{{{",
"{{{{{{{{{{{{{{{{{{{{{{{{{{{{{{{{{{{{{{{{{{{{{{{{",
"{{{{{{{{{{{{{{{{{{{{{{{{{{{{{{{{{{{{{{{{{{{{{{{{",
"{{{{{{{{{{{{{{{{{{{{{{{{{{{{{{{{{{{{{{{{{{{{{{{{",
"{{{{{{{{{{{{{{{{{{{{{{{{{{{{{{{{{{{{{{{{{{{{{{{{",
"{{{{{{{{{{{{{{{{{{{{{{{{{{{{{{{{{{{{{{{{{{{{{{{{",
"{{{{{{{{{{{{{{{{{{{{{{{{{{{{{{{{{{{{{{{{{{{{{{{{",
"{{{{{{{{{{{{{{{{{{{{{{{{{{{{{{{{{{{{{{{{{{{{{{{{"
};
