/* XPM */
static char *audio_x_generic[] = {
/* columns rows colors chars-per-pixel */
"48 48 86 1 ",
"  c #4B5412",
". c #525E14",
"X c #566215",
"o c #5A6716",
"O c #5B6917",
"+ c #5D6A19",
"@ c #616E1E",
"# c #61701D",
"$ c #626E21",
"% c #657126",
"& c #697625",
"* c #6D7B23",
"= c #6A762B",
"- c #6D792D",
"; c #6E7A31",
": c #717C33",
"> c #74822A",
", c #748132",
"< c #7D8A34",
"1 c #7A8539",
"2 c #7F8B38",
"3 c #828F3B",
"4 c #84913C",
"5 c #88953E",
"6 c #9DB02A",
"7 c #A3B435",
"8 c #A5B73B",
"9 c #A7B83E",
"0 c #838E44",
"q c #869242",
"w c #8D9B46",
"e c #87934B",
"r c #8A9649",
"t c #929E4A",
"y c #939F53",
"u c #959F5C",
"i c #95A14D",
"p c #9AA74F",
"a c #9BA94F",
"s c #97A454",
"d c #9AA655",
"f c #9CA955",
"g c #9CA75D",
"h c #9EAA5A",
"j c #A9BA43",
"k c #ACBC4B",
"l c #A6B25E",
"z c #B0BF52",
"x c #A5AF6F",
"c c #A6B266",
"v c #A9B466",
"b c #AEB96D",
"n c #B3BE6F",
"m c #B2BD72",
"M c #B1C055",
"N c #B3C25A",
"B c #B7C563",
"V c #B8C664",
"C c #B5C16F",
"Z c #BAC768",
"A c #BBC86C",
"S c #B6C175",
"D c #BAC577",
"F c #BECB72",
"G c #B7C378",
"H c #B9C47A",
"J c #BFCA7D",
"K c #C0CD76",
"L c #C2CE7B",
"P c #C5D07F",
"I c #BBC581",
"U c #BEC982",
"Y c #C2CC83",
"T c #C5CF89",
"R c #C6D183",
"E c #C8D286",
"W c #C7D18A",
"Q c #CAD48D",
"! c #C6CE92",
"~ c #CCD592",
"^ c #CFD996",
"/ c #D0D897",
"( c #D0D999",
") c #D6DEA5",
"_ c #D7DFA8",
"` c None",
/* pixels */
"````````````````````````````````````````````````",
"````````````````````````````````````````````````",
"````````````````````````````````````````````````",
"````````````````````````````````````````````````",
"````````````````````````````````````````````````",
"````````````````````````````````````````````````",
"````````````````````````````````````````````````",
"````````````````````````````````````````++``````",
"````````````````````````````````+++o#,5sc=``````",
"```````````````````````o++oo#>4ilCK^QRKBQ:``````",
"``````````````````+o+*3ilCJ~~PKBzk866666P:``````",
"``````````````````OFQ^EJZMk8666666669MBKE;``````",
"``````````````````o~8666666667kNALQ!Ixu^Q;``````",
"``````````````````o~667jMAKQ^Ubhe:$+o`oQE;``````",
"``````````````````O~FQ~Jbge;#++```````OQQ=``````",
"``````````````````O~E4+++`````````````oQQ=``````",
"``````````````````o~E:````````````````oQQ=``````",
"``````````````````o~E-````````````````o~^&``````",
"``````````````````O~E;````````````````OQQ%``````",
"``````````````````O~Q;````````````````O!~%``````",
"``````````````````o~E-````````````````oQ^$``````",
"``````````````````o~Q=````````````````oQ~%``````",
"``````````````````o~E-````````````````OQ^$``````",
"``````````````````O~Q=````````````````OQ~@``````",
"``````````````````oQQ=````````````````O~^@``````",
"``````````````````o~Q&````````````````OQ^$``````",
"``````````````````OQQ&````````````````+Q^+``````",
"``````````````````O~~%````````````````oQ^$``````",
"``````````````````O~~$````````````````O!~+``````",
"``````````````````O~~$`````````o++++++oQ/+``````",
"``````````````````O~~$``````+o>ivSGGScf~(+``````",
"``````````````o+o`O!~$`````oi~_^KVkjjNAY(+``````",
"`````````++#<taai3&~^@````+G_QQRAz86666kJ+``````",
"```````+owD^QFAZAL~/~@```XdQVFKANj66669Q3o``````",
"``````+5Q(RANk866668~+```+Czjkkj76668AW0+```````",
"`````op^KKQEAM96666Vno```.qQNj879kBRWd$+````````",
"`````*QkNZFANj6669KU$`````X:cHYTLmh1OO``````````",
"`````>Q77jj8767MLWy+````````.o+o+OX`````````````",
"`````+hQKAZALQQbr+ `````````````````````````````",
"``````+#0tii4-Oo````````````````````````````````",
"``````````..````````````````````````````````````",
"````````````````````````````````````````````````",
"````````````````````````````````````````````````",
"````````````````````````````````````````````````",
"````````````````````````````````````````````````",
"````````````````````````````````````````````````",
"````````````````````````````````````````````````",
"````````````````````````````````````````````````"
};
