/* XPM */
static char *chat[] = {
/* columns rows colors chars-per-pixel */
"48 48 88 1 ",
"  c #616161",
". c #707070",
"X c #717171",
"o c #737373",
"O c #747474",
"+ c #757575",
"@ c #767676",
"# c #777777",
"$ c #787878",
"% c #797979",
"& c #7B7B7B",
"* c #7C7C7C",
"= c #7D7D7D",
"- c #7E7E7E",
"; c #7F7F7F",
": c #808080",
"> c #818181",
", c #828282",
"< c #838383",
"1 c #848484",
"2 c #858585",
"3 c #868686",
"4 c #878787",
"5 c #8A8A8A",
"6 c #8C8C8C",
"7 c #8E8E8E",
"8 c #8F8F8F",
"9 c #909090",
"0 c #929292",
"q c #939393",
"w c #949494",
"e c #959595",
"r c #969696",
"t c #979797",
"y c #989898",
"u c #999999",
"i c #9A9A9A",
"p c #9B9B9B",
"a c #9E9E9E",
"s c #9F9F9F",
"d c #A8A8A8",
"f c #AAAAAA",
"g c #ACACAC",
"h c #B4B4B4",
"j c #B6B6B6",
"k c #B8B8B8",
"l c #B9B9B9",
"z c #BABABA",
"x c #BCBCBC",
"c c #CACACA",
"v c #CDCDCD",
"b c #D2D2D2",
"n c #D3D3D3",
"m c #D4D4D4",
"M c #D5D5D5",
"N c #D6D6D6",
"B c #DBDBDB",
"V c #DCDCDC",
"C c #DEDEDE",
"Z c #DFDFDF",
"A c #E0E0E0",
"S c #E1E1E1",
"D c #E2E2E2",
"F c #E3E3E3",
"G c #E4E4E4",
"H c #E6E6E6",
"J c #E7E7E7",
"K c #E8E8E8",
"L c #E9E9E9",
"P c #EAEAEA",
"I c #EBEBEB",
"U c #ECECEC",
"Y c #EDEDED",
"T c #EEEEEE",
"R c #EFEFEF",
"E c #F0F0F0",
"W c #F1F1F1",
"Q c #F2F2F2",
"! c #F3F3F3",
"~ c #F4F4F4",
"^ c #F5F5F5",
"/ c #F6F6F6",
"( c #F7F7F7",
") c #F8F8F8",
"_ c #F9F9F9",
"` c #FAFAFA",
"' c #FBFBFB",
"] c None",
/* pixels */
"]]]]]]]]]]]]]]]]]]]]]]]]]]]]]]]]]]]]]]]]]]]]]]]]",
"]]]]]]]]]]]]]]]]]]]]]]]]]]]]]]]]]]]]]]]]]]]]]]]]",
"]]]]]]]]]]]]]]]]]]]]]]]]]]]]]]]]]]]]]]]]]]]]]]]]",
"]]]]]]]]]]]]]]]]]]]]]]]]]]]]]]]]]]]]]]]]]]]]]]]]",
"]]]]]]]]]]]]]]]]]]]]]]]]]]]]]]]]]]]]]]]]]]]]]]]]",
"]]]]]]]]]]]]]]]]]]]]]]]]]]]]]]]]]]]]]]]]]]]]]]]]",
"]]]]]]]]]]]]]]]]]=11111114111111111111111O]]]]]]",
"]]]]]]]]]]]]]]]]=xJJLLLJJLJLLJLLJJLJJLJJJf*]]]]]",
"]]]]]]]]]]]]]]]]4R')))))))^))^^)^^^~~~~~)B=]]]]]",
"]]]]]]]]]]]]]]]]4R)^^^^^^^~~~~~~R~~~~RRR^Z,]]]]]",
"]]]]]]]]]]]]]]]]6~)^^^^^^~~~R~~~~RR~RRRR^Z=]]]]]",
"]]]]]]]]]]]]]]]]4R)^^^^^^^~~~~~RR~RRRRRR~Z,]]]]]",
"]]]]]]]]]]]]]]]]6R^^^^^^~~~~~~RRR~RRRRRR~Z=]]]]]",
"]]]]]]]]]]]]]]]]6R)^^)^^~~~~~RR~R~RRRRLR~Z,]]]]]",
"]]]]]]]]]]]]]]]]1ZJAAAAAZZAZZZJ~RRRRRRLR~Z=]]]]]",
"]]]]]]]=669696966yyyyyyyyyyyywwcRRRRRLRL~Z,]]]]]",
"]]]]]]*xR~R~R~R~~~RRR~RRRRRRRRvwA~RRRLLR~Z=]]]]]",
"]]]]]]1J)^^^^^^^^)^^^^^^^^~~~^^yMRRLRRRL~B,]]]]]",
"]]]]]]1L^^^^^^^^^^^^~~~~~R~R~~^yMRRRLLRRRZ=]]]]]",
"]]]]]]1J)^^^^^^^^^^^~~R~~~R~R~^yMRLLLRLL~Z,]]]]]",
"]]]]]]1L)^^^~^^^^^~~R~~RR~R~RR~yMRLRRLLLRZ,]]]]]",
"]]]]]]4L)^^^~~^~~~~~R~~R~RRRRR^ybLRLLLRLRZ=]]]]]",
"]]]]]]1L)^^^~~~~~~R~~~R~RRRRR~^ybRLLLLLLRZ=]]]]]",
"]]]]]]1L)^^^~~~~~~~RRRRRRRRRLR^pMRRLR~RR^B*]]]]]",
"]]]]]]1L)^^~~~~~~~~RR~RRRRRRLR~wb)RL)RJJJgo]]]]]",
"]]]]]]1L^~~~~~R~RRRRRRRRRLRRRR^91M^RR9=,=.]]]]]]",
"]]]]]]1L^~~RR~R~RRRRRRRLRRLLLR^9 1M'J,]]]]]]]]]]",
"]]]]]]1L~~~~~RRRRRRRRRRRLRRLLR^w]],kJ9]]]]]]]]]]",
"]]]]]]1L^~~~R~RRRRRRRLRLLRRLLL^w]]]Ow9o]]]]]]]]]",
"]]]]]]1L^RRRRRRRRRLRRRLRRLLLLR~w]]]]]OO]]]]]]]]]",
"]]]]]]1L^~RRRRRRRRRLRLLRLLLLLR~9]]]]]]]]]]]]]]]]",
"]]]]]]1L^RRRRRRRLRLRLRLLLLLLJL^w]]]]]]]]]]]]]]]]",
"]]]]]],J^~^~RRRR~RR~RRRRRRRLR~~9]]]]]]]]]]]]]]]]",
"]]]]]]OkLLL~^R~^LRLLLLRLJLLLLLc=]]]]]]]]]]]]]]]]",
"]]]]]]]o111f^~^h11111111411111*]]]]]]]]]]]]]]]]]",
"]]]]]]]]]]]p)^kO]]]]]]]]]]]]]]]]]]]]]]]]]]]]]]]]",
"]]]]]]]]]]]jRfO]]]]]]]]]]]]]]]]]]]]]]]]]]]]]]]]]",
"]]]]]]]]]]*s9o]]]]]]]]]]]]]]]]]]]]]]]]]]]]]]]]]]",
"]]]]]]]]]O*O]]]]]]]]]]]]]]]]]]]]]]]]]]]]]]]]]]]]",
"]]]]]]]]]*]]]]]]]]]]]]]]]]]]]]]]]]]]]]]]]]]]]]]]",
"]]]]]]]]]]]]]]]]]]]]]]]]]]]]]]]]]]]]]]]]]]]]]]]]",
"]]]]]]]]]]]]]]]]]]]]]]]]]]]]]]]]]]]]]]]]]]]]]]]]",
"]]]]]]]]]]]]]]]]]]]]]]]]]]]]]]]]]]]]]]]]]]]]]]]]",
"]]]]]]]]]]]]]]]]]]]]]]]]]]]]]]]]]]]]]]]]]]]]]]]]",
"]]]]]]]]]]]]]]]]]]]]]]]]]]]]]]]]]]]]]]]]]]]]]]]]",
"]]]]]]]]]]]]]]]]]]]]]]]]]]]]]]]]]]]]]]]]]]]]]]]]",
"]]]]]]]]]]]]]]]]]]]]]]]]]]]]]]]]]]]]]]]]]]]]]]]]",
"]]]]]]]]]]]]]]]]]]]]]]]]]]]]]]]]]]]]]]]]]]]]]]]]"
};
