/* XPM */
static char *disc[] = {
/* columns rows colors chars-per-pixel */
"48 48 159 2 ",
"   c #464646",
".  c #4B4B4B",
"X  c #4F4F4F",
"o  c #505050",
"O  c #515151",
"+  c #525252",
"@  c #535353",
"#  c #545454",
"$  c #565656",
"%  c #575757",
"&  c #585858",
"*  c #5A5A5A",
"=  c #5B5B5B",
"-  c #5C5C5C",
";  c #5D5D5D",
":  c #5E5E5E",
">  c #5F5F5F",
",  c #606060",
"<  c #616161",
"1  c #626262",
"2  c #636363",
"3  c #646464",
"4  c #656565",
"5  c #666666",
"6  c #676767",
"7  c #686868",
"8  c #696969",
"9  c #6A6A6A",
"0  c #6B6B6B",
"q  c #6C6C6C",
"w  c #6D6D6D",
"e  c #6E6E6E",
"r  c #6F6F6F",
"t  c #717171",
"y  c #727272",
"u  c #737373",
"i  c #747474",
"p  c #757575",
"a  c #767676",
"s  c #777777",
"d  c #787878",
"f  c #797979",
"g  c #7A7A7A",
"h  c #7B7B7B",
"j  c #7C7C7C",
"k  c #7D7D7D",
"l  c #7F7F7F",
"z  c #808080",
"x  c #818181",
"c  c #828282",
"v  c #838383",
"b  c #848484",
"n  c #858585",
"m  c #868686",
"M  c #878787",
"N  c #898989",
"B  c #8A8A8A",
"V  c #8B8B8B",
"C  c #8C8C8C",
"Z  c #8F8F8F",
"A  c #909090",
"S  c #919191",
"D  c #929292",
"F  c #949494",
"G  c #959595",
"H  c #969696",
"J  c #979797",
"K  c #989898",
"L  c #999999",
"P  c #9A9A9A",
"I  c #9B9B9B",
"U  c #9C9C9C",
"Y  c #9D9D9D",
"T  c #9E9E9E",
"R  c #9F9F9F",
"E  c #A0A0A0",
"W  c #A1A1A1",
"Q  c #A2A2A2",
"!  c #A3A3A3",
"~  c #A4A4A4",
"^  c #A5A5A5",
"/  c #A6A6A6",
"(  c #A7A7A7",
")  c #A8A8A8",
"_  c #A9A9A9",
"`  c #AAAAAA",
"'  c #ABABAB",
"]  c #ACACAC",
"[  c #ADADAD",
"{  c #AEAEAE",
"}  c #AFAFAF",
"|  c #B0B0B0",
" . c #B1B1B1",
".. c #B2B2B2",
"X. c #B3B3B3",
"o. c #B4B4B4",
"O. c #B5B5B5",
"+. c #B6B6B6",
"@. c #B7B7B7",
"#. c #B8B8B8",
"$. c #B9B9B9",
"%. c #BABABA",
"&. c #BBBBBB",
"*. c #BCBCBC",
"=. c #BDBDBD",
"-. c #BEBEBE",
";. c #BFBFBF",
":. c #C0C0C0",
">. c #C1C1C1",
",. c #C2C2C2",
"<. c #C3C3C3",
"1. c #C4C4C4",
"2. c #C5C5C5",
"3. c #C6C6C6",
"4. c #C7C7C7",
"5. c #C8C8C8",
"6. c #C9C9C9",
"7. c #CACACA",
"8. c #CBCBCB",
"9. c #CCCCCC",
"0. c #CDCDCD",
"q. c #CECECE",
"w. c #CFCFCF",
"e. c #D0D0D0",
"r. c #D1D1D1",
"t. c #D2D2D2",
"y. c #D3D3D3",
"u. c #D4D4D4",
"i. c #D5D5D5",
"p. c #D6D6D6",
"a. c #D7D7D7",
"s. c #D8D8D8",
"d. c #D9D9D9",
"f. c #DADADA",
"g. c #DBDBDB",
"h. c #DCDCDC",
"j. c #DDDDDD",
"k. c #DEDEDE",
"l. c #DFDFDF",
"z. c #E0E0E0",
"x. c #E1E1E1",
"c. c #E2E2E2",
"v. c #E3E3E3",
"b. c #E4E4E4",
"n. c #E5E5E5",
"m. c #E6E6E6",
"M. c #E7E7E7",
"N. c #E8E8E8",
"B. c #E9E9E9",
"V. c #EAEAEA",
"C. c #EBEBEB",
"Z. c #ECECEC",
"A. c #EDEDED",
"S. c #EEEEEE",
"D. c #EFEFEF",
"F. c #F0F0F0",
"G. c #F1F1F1",
"H. c #F2F2F2",
"J. c None",
/* pixels */
"J.J.J.J.J.J.J.J.J.J.J.J.J.J.J.J.J.J.J.J.J.J.J.J.J.J.J.J.J.J.J.J.J.J.J.J.J.J.J.J.J.J.J.J.J.J.J.J.",
"J.J.J.J.J.J.J.J.J.J.J.J.J.J.J.J.J.J.J.J.J.J.J.J.J.J.J.J.J.J.J.J.J.J.J.J.J.J.J.J.J.J.J.J.J.J.J.J.",
"J.J.J.J.J.J.J.J.J.J.J.J.J.J.J.J.J.J.J.J.J.J.J.J.J.J.J.J.J.J.J.J.J.J.J.J.J.J.J.J.J.J.J.J.J.J.J.J.",
"J.J.J.J.J.J.J.J.J.J.J.J.J.J.J.J.J.J.J.J.J.J.J.J.J.J.J.J.J.J.J.J.J.J.J.J.J.J.J.J.J.J.J.J.J.J.J.J.",
"J.J.J.J.J.J.J.J.J.J.J.J.J.J.J.J.J.J.J.J.J.J.J.J.J.J.J.J.J.J.J.J.J.J.J.J.J.J.J.J.J.J.J.J.J.J.J.J.",
"J.J.J.J.J.J.J.J.J.J.= q q t q q q q q q q q q q q q q q q q q q q q q 8 q < J.J.J.J.J.J.J.J.J.J.",
"J.J.J.J.J.J.J.J.J.; +.n.n.C.n.n.n.n.n.n.n.n.v.v.v.v.v.l.v.l.v.l.l.d.d.l.l.2.8 J.J.J.J.J.J.J.J.J.",
"J.J.J.J.J.J.J.J.J.b G.C.n.n.n.n.C.n.n.n.n.n.v.v.v.v.l.v.l.l.l.l.l.l.l.l.d.C.! O J.J.J.J.J.J.J.J.",
"J.J.J.J.J.J.J.J.O +.G.v.v.v.v.v.v.v.v.l.v.l.v.l.l.l.l.l.d.d.l.d.d.d.d.d.d.l.r.< J.J.J.J.J.J.J.J.",
"J.J.J.J.J.J.J.J.q v.n.v.l.v.v.v.v.v.v.v.v.l.l.l.l.l.d.l.l.d.l.d.d.d.d.d.d.d.n.b J.J.J.J.J.J.J.J.",
"J.J.J.J.J.J.J.J.G G.v.l.v.v.v.v.v.l.v.l.l.l.l.l.l.l.l.l.l.d.d.d.l.d.d.d.a.a.v.+.$ J.J.J.J.J.J.J.",
"J.J.J.J.J.J.J.= 6.C.l.v.l.v.l.v.v.v.l.v.v.l.l.l.l.d.l.d.d.l.d.l.d.d.d.d.d.a.d.d.t J.J.J.J.J.J.J.",
"J.J.J.J.J.J.J.g C.v.l.v.l.v.l.v.l.v.l.v.l.l.l.l.l.l.l.l.l.d.d.l.d.d.d.d.d.a.a.n.P O J.J.J.J.J.J.",
"J.J.J.J.J.J.O ` D.l.l.l.l.l.v.l.v.l.l.l.v.l.l.l.l.l.d.l.d.l.d.d.d.d.d.d.a.a.a.d.2.; J.J.J.J.J.J.",
"J.J.J.J.J.J.4 d.n.l.l.l.l.v.l.v.v.l.l.v.l.l.l.d.l.d.l.d.l.d.l.d.d.d.d.a.d.a.a.a.v.j J.J.J.J.J.J.",
"J.J.J.J.J.J.C D.v.l.l.l.l.l.l.l.l.l.l.l.l.l.l.l.l.l.d.l.d.l.d.d.d.d.d.d.a.a.a.a.v.} $ J.J.J.J.J.",
"J.J.J.J.J.$ *.C.d.l.d.l.l.l.l.l.l.l.l.l.l.d.l.l.l.l.l.d.d.d.d.l.d.d.d.d.a.a.a.a.a.r.8 J.J.J.J.J.",
"J.J.J.J.J.t n.v.l.l.l.l.d.l.l.l.l.l.l.l.l.l.l.d.l.d.d.l.l.d.d.d.d.d.d.a.a.a.a.a.a.l.D J.J.J.J.J.",
"J.J.J.J.J.U D.l.d.l.l.l.l.l.l.l.l.l.d.l.l.l.d.l.d.l.d.d.d.l.d.d.d.a.a.d.a.a.a.a.a.l.,.= J.J.J.J.",
"J.J.J.J.< r.n.d.l.d.d.l.l.d.l.d.l.l.d.l.d.l.l.l.l.d.d.l.d.d.d.d.d.d.d.a.a.a.a.r.r.a.d.g J.J.J.J.",
"J.J.J.J.v C.d.l.d.d.l.l.l.d.l.l.d.l.l.d.l.d.l.d.d.l.d.l.d.d.d.d.a.a.a.a.a.a.r.a.a.r.l.~ O J.J.J.",
"J.J.J.$  .C.d.d.l.d.d.d.l.d.d.l.l.d.l.d.d.l.d.l.l.d.d.d.l.d.d.d.a.a.a.a.a.a.a.a.r.a.d.9.4 J.J.J.",
"J.J.J.8 l.l.d.d.d.l.l.d.d.l.d.l.d.d.l.l.d.d.l.d.d.d.d.d.d.d.d.a.a.a.a.a.r.a.a.r.a.a.r.d.C J.J.J.",
"J.J.J.G C.l.d.d.d.d.d.d.d.l.d.d.d.l.d.d.l.d.d.d.d.d.d.d.d.d.a.d.a.a.a.a.a.a.a.r.r.r.r.l.+.= J.J.",
"J.J.$ +.n.a.a.d.a.d.d.d.d.d.d.d.d.d.d.d.d.d.d.d.d.d.a.d.d.d.a.a.a.a.a.a.a.a.a.a.a.r.r.a.d.q J.J.",
"J.J.$ 2.C.l.l.l.l.l.l.l.l.l.l.v.v.l.l.l.l.l.l.l.l.v.l.l.l.d.l.l.l.d.d.d.d.d.d.d.d.d.d.d.l.q J.J.",
"J.J.= ,.D.C.n.C.C.C.C.C.C.n.C.n.n.C.n.C.n.C.C.n.n.n.n.n.n.n.v.v.v.v.n.n.v.n.n.v.v.v.v.v.2.4 J.J.",
"J.J.$ *.6.*.*.*.*.%.%.*.+.%.+.%.+.+.+.+. . . . .} } } } } } ` ` ` ` ` ~ ~ ~ ~ ~ ! ! ! ~ } 8 J.J.",
"J.J.= *.9.%.%.+.+.+. . . . . . .}  .} ` } ` ` ` ` ` ` ~ ! ~ ~ ! ! ! ! ! ! U U U P U U ~ ` 4 J.J.",
"J.J.$ *.6.*.U g g i g i g g i g i i g i i i i i i i i i i i i i i t t t t i i i t i P ! } 8 J.J.",
"J.J.$ %.6.*.G 4 8 P ` ~ ~ ~ ~ ~ P P P U P 8 q q 8 q 8 v ~ P P P ! ` ` ~ ` ~ ~ i 4 8 P ! ` 4 J.J.",
"J.J.= %.6.*.U q i 2.d.a.d.d.a.a.2.,.,.9. .b b N b N b D r.2.,.,.6.d.d.d.a.d.a.D 8 t G ! ` 4 J.J.",
"J.J.$ %.6.%.~ b b a.C.n.n.n.C.v.r.r.9.a.9.~ ~ ~ ~ ~ ~ %.l.r.9.9.d.n.n.n.v.n.v.P g j U ! ` 4 J.J.",
"J.J.$ %.6.%. .` D 9.G.C.D.D.D.D.l.r.d.l.C.d.2.2.2.,.6.l.d.r.r.r.v.C.C.C.C.C.v.D D G U U ~ 4 J.J.",
"J.J.O %.6.%.%.*.! } C.C.n.n.n.C.n.l.l.v.v.n.l.d.d.d.d.r.9.9.6.a.v.v.v.v.v.n.6.C U ! U ! ` 4 J.J.",
"J.J.O  .9.,.*.*.+.G r.n.v.n.C.C.C.C.v.l.l.d.6.6.6.6.2.2.2.2.r.d.l.l.d.l.l.l.U G ~ ! ! ! ~ < J.J.",
"J.J.  b 6.6.6.6.6.` U v.C.C.C.C.n.C.n.v.l.9.,.,.,.,.,.,.6.r.d.d.d.d.d.d.v.+.N ! ~ ! ! ! b $ J.J.",
"J.J.J.. ; 4 4 4 < < 8 ` n.D.C.n.C.C.C.C.n.a.9.9.9.9.r.a.d.d.d.d.d.d.d.l.*.g = = = ; ; ; O J.J.J.",
"J.J.J.J.J.J.J.J.J.J.J.8 ! l.D.C.C.n.C.C.l.d.d.d.d.d.d.d.d.d.d.d.d.l.d. .j J.J.J.J.J.J.J.J.J.J.J.",
"J.J.J.J.J.J.J.J.J.J.J.J.< C ,.n.C.C.C.n.d.d.d.d.d.d.d.d.d.d.d.l.l.2.P t J.J.J.J.J.J.J.J.J.J.J.J.",
"J.J.J.J.J.J.J.J.J.J.J.J.J.J.g P ,.l.C.n.l.d.d.l.l.d.d.l.l.l.a.,.! v J.J.J.J.J.J.J.J.J.J.J.J.J.J.",
"J.J.J.J.J.J.J.J.J.J.J.J.J.J.J.J.g C U  .*.6.r.r.r.r.6.2. .! C j J.J.J.J.J.J.J.J.J.J.J.J.J.J.J.J.",
"J.J.J.J.J.J.J.J.J.J.J.J.J.J.J.J.J.J.J.q g v b N N b v g t J.J.J.J.J.J.J.J.J.J.J.J.J.J.J.J.J.J.J.",
"J.J.J.J.J.J.J.J.J.J.J.J.J.J.J.J.J.J.J.J.J.J.J.J.J.J.J.J.J.J.J.J.J.J.J.J.J.J.J.J.J.J.J.J.J.J.J.J.",
"J.J.J.J.J.J.J.J.J.J.J.J.J.J.J.J.J.J.J.J.J.J.J.J.J.J.J.J.J.J.J.J.J.J.J.J.J.J.J.J.J.J.J.J.J.J.J.J.",
"J.J.J.J.J.J.J.J.J.J.J.J.J.J.J.J.J.J.J.J.J.J.J.J.J.J.J.J.J.J.J.J.J.J.J.J.J.J.J.J.J.J.J.J.J.J.J.J.",
"J.J.J.J.J.J.J.J.J.J.J.J.J.J.J.J.J.J.J.J.J.J.J.J.J.J.J.J.J.J.J.J.J.J.J.J.J.J.J.J.J.J.J.J.J.J.J.J.",
"J.J.J.J.J.J.J.J.J.J.J.J.J.J.J.J.J.J.J.J.J.J.J.J.J.J.J.J.J.J.J.J.J.J.J.J.J.J.J.J.J.J.J.J.J.J.J.J."
};
