/* XPM */
static char *x_office_document[] = {
/* columns rows colors chars-per-pixel */
"48 48 236 2 ",
"   c gray27",
".  c #484848",
"X  c #4C4C4C",
"o  c #4E4E4E",
"O  c gray31",
"+  c #505050",
"@  c #515151",
"#  c gray32",
"$  c #535353",
"%  c gray33",
"&  c #555555",
"*  c #565656",
"=  c gray34",
"-  c #585858",
";  c gray35",
":  c #5A5A5A",
">  c #5B5B5B",
",  c gray36",
"<  c #5D5D5D",
"1  c gray37",
"2  c #5F5F5F",
"3  c gray38",
"4  c #626262",
"5  c gray39",
"6  c #656565",
"7  c #676767",
"8  c #686868",
"9  c DimGray",
"0  c #6A6A6A",
"q  c gray42",
"w  c #6D6D6D",
"e  c gray43",
"r  c #6F6F6F",
"t  c gray44",
"y  c #727272",
"u  c gray45",
"i  c gray46",
"p  c #767676",
"a  c #777777",
"s  c gray47",
"d  c #7B7B7B",
"f  c #7C7C7C",
"g  c gray49",
"h  c #7E7E7E",
"j  c gray50",
"k  c #6A7484",
"l  c #6A778D",
"z  c #69778E",
"x  c #6A788E",
"c  c #6A788F",
"v  c #6B788F",
"b  c #6F7A8E",
"n  c #717A8B",
"m  c #6B7990",
"M  c #717D92",
"N  c #747E90",
"B  c #768092",
"V  c #738096",
"C  c #728097",
"Z  c #738097",
"A  c #778195",
"S  c #788193",
"D  c #7A8395",
"F  c #738198",
"G  c #748299",
"H  c #7A869B",
"J  c #7E879B",
"K  c #7E889D",
"L  c #7C889F",
"P  c #7D8AA2",
"I  c #7E8BA3",
"U  c #808080",
"Y  c #818181",
"T  c gray51",
"R  c #838383",
"E  c #848484",
"W  c gray52",
"Q  c #868686",
"!  c #868687",
"~  c #888888",
"^  c #898989",
"/  c #89898B",
"(  c gray54",
")  c #8B8B8B",
"_  c #8A8A8C",
"`  c #888A8E",
"'  c gray55",
"]  c #8E8E8E",
"[  c gray56",
"{  c #888B93",
"}  c #898C90",
"|  c #888C91",
" . c #888C93",
".. c #898F93",
"X. c #898E94",
"o. c #898D97",
"O. c #898D98",
"+. c #8B919F",
"@. c #8C949D",
"#. c #909090",
"$. c #929292",
"%. c #939393",
"&. c #959595",
"*. c gray59",
"=. c #979797",
"-. c #989898",
";. c gray60",
":. c #9B9B9B",
">. c gray61",
",. c #9D9D9D",
"<. c gray62",
"1. c #828DA3",
"2. c #8E9AA6",
"3. c #8792AA",
"4. c #8793AC",
"5. c #8894AD",
"6. c #8E9AA8",
"7. c #909EAD",
"8. c #909FAF",
"9. c #919DB4",
"0. c #909CB5",
"q. c #929EB5",
"w. c #919DB6",
"e. c #929EB7",
"r. c #98A0AA",
"t. c #9EA7B4",
"y. c #93A6B9",
"u. c #A0A0A0",
"i. c gray63",
"p. c gray64",
"a. c #A4A4A4",
"s. c #A5A5A5",
"d. c #A0AAB8",
"f. c #B6B6B6",
"g. c #B7B7B7",
"h. c #B7B8B8",
"j. c gray72",
"k. c #B8B8B9",
"l. c #B9B9B9",
"z. c #B9B9BA",
"x. c gray73",
"c. c #BABABB",
"v. c #BBBBBB",
"b. c #BCBCBC",
"n. c gray74",
"m. c gray",
"M. c gray75",
"N. c #BDD1BB",
"B. c #BAD0BC",
"V. c #C1D4B8",
"C. c #C3D5B9",
"Z. c #D8E4BA",
"A. c #DCE7BB",
"S. c #DEE8BB",
"D. c #DEE8BD",
"F. c #96AEC8",
"G. c #97B0CB",
"H. c #98B2CE",
"J. c #99B4D1",
"K. c #99B4D2",
"L. c #9AB5D2",
"P. c #99B7D6",
"I. c #9AB7D6",
"U. c #9BB9D6",
"Y. c #9AB8D7",
"T. c #9CB9D6",
"R. c #9DBBD6",
"E. c #9CBAD7",
"W. c #9AB8D8",
"Q. c #9BB9D8",
"!. c #9BB9D9",
"~. c #9CBADA",
"^. c #A5BFCB",
"/. c #A2BDCD",
"(. c #A1BDCF",
"). c #A2BED0",
"_. c #AEBFD6",
"`. c #ABC5C6",
"'. c #AFC7C5",
"]. c #A6C0C8",
"[. c #A9C3C9",
"{. c #B4CBC1",
"}. c #AFC0D7",
"|. c #B0C1D8",
" X c #B1C2D9",
".X c #C0C0C0",
"XX c #C1C1C1",
"oX c gray76",
"OX c #C3C3C3",
"+X c gray77",
"@X c #C5C5C5",
"#X c gray79",
"$X c gray83",
"%X c #D8D8D8",
"&X c #DADADA",
"*X c gainsboro",
"=X c #DDDDDD",
"-X c gray87",
";X c #DFDFDF",
":X c #E7EEC7",
">X c #E9EFC7",
",X c #F0F3D7",
"<X c #F0F4D5",
"1X c gray88",
"2X c #E1E1E1",
"3X c #E2E2E2",
"4X c gray89",
"5X c #E4E4E4",
"6X c gray90",
"7X c #E6E6E6",
"8X c #E7E7E7",
"9X c gray91",
"0X c #E9E9E9",
"qX c #EAEAEA",
"wX c gray92",
"eX c #ECECEC",
"rX c gray93",
"tX c #EEEEEE",
"yX c #EFEFEF",
"uX c #F4F6E3",
"iX c #F5F6E5",
"pX c gray94",
"aX c #F1F1F1",
"sX c gray95",
"dX c #F3F3F3",
"fX c #F7F7F3",
"gX c #F4F4F4",
"hX c gray96",
"jX c #F6F6F6",
"kX c gray97",
"lX c #F7F8F3",
"zX c #F8F8F8",
"xX c #F9F9F9",
"cX c gray98",
"vX c #FBFBFB",
"bX c None",
/* pixels */
"bXbXbXbXbXbXbXbXbXbXbXbXbXbXbXbXbXbXbXbXbXbXbXbXbXbXbXbXbXbXbXbXbXbXbXbXbXbXbXbXbXbXbXbXbXbXbXbX",
"bXbXbXbXbXbXbXbXbXbXbXbXbXbXbXbXbXbXbXbXbXbXbXbXbXbXbXbXbXbXbXbXbXbXbXbXbXbXbXbXbXbXbXbXbXbXbXbX",
"bXbXbXbXbXbXbXbXbXbXbXbXbXbXbXbXbXbXbXbXbXbXbXbXbXbXbXbXbXbXbXbXbXbXbXbXbXbXbXbXbXbXbXbXbXbXbXbX",
"bXbXbXbXbXbXbX,.,.i.s.s.s.i.i.,.,.:.=.=.$.$.$.' ) ) W R R g g d d i i y e e 0 0 0 bXbXbXbXbXbXbX",
"bXbXbXbXbXbX:.9XxXvXvXxXvXvXxXxXxXxXxXxXxXvXvXxXxXvXxXxXxXxXxXxXxXxXxXxXxXxXxXxX9X3 bXbXbXbXbXbX",
"bXbXbXbXbXbX:.kX5X3X3X-X9X3X3X3X5X5X5X5X5X5X5X5X5X5X5X9X5X5X9X5X5X9X5X5X5X5X5X5XxX< bXbXbXbXbXbX",
"bXbXbXbXbXbX=.kX5X-X3X&X5X3X3X3X3X3X3X3X5X3X5X3X5X5X5X5X5X5X5X5X9X5X9X5X5X5X5X5XkX< bXbXbXbXbXbX",
"bXbXbXbXbXbX=.kX5X-X-X-X5X3X3X3X3X3X3X3X5X5X5X5X5X5X5X5X5X9X5X5X5X5X5X5X5X5X5X9XkX< bXbXbXbXbXbX",
"bXbXbXbXbXbX=.kX3X-X3X&X9X3X3X3X3X5X3X3X5X5X5X3X9X5X5X5X5X5X5X9X5X5X5X5X5X5X5X9XkX< bXbXbXbXbXbX",
"bXbXbXbXbXbX=.kX3X3X-X-X5X3X3X5XM.l.M.M.M.l.M.M.M.M.M.M.M.M.M.M.M.M.M.M.5X9X5X9XkX< bXbXbXbXbXbX",
"bXbXbXbXbXbX$.kX5X-X3X-X9X3X5X5X3X3X3X5X5X5X5X5X5X5X5X5X9X5X5X9X9X9X9X9X9X9X9X9XkX< bXbXbXbXbXbX",
"bXbXbXbXbXbX$.kX5X3X3X-X9X5X3X5Xl.M.M.l.M.M.M.M.M.M.M.M.M.M.9X9X9X9X9X9X9X9X9X9XxX: bXbXbXbXbXbX",
"bXbXbXbXbXbX$.kX5X3X3X-X9X5X5X5X5X5X9X5X5X9X9X9X9X9X9X9X9X9X9X9X9X9X9X9X9X9X9X9XkX: bXbXbXbXbXbX",
"bXbXbXbXbXbX' kX5X3X3X-X9X5X9X5X5X5X5X5X5X3X5X9X5X8X8X8X5X9X9X9X9X5X9X9X9XeX9X9XkX: bXbXbXbXbXbX",
"bXbXbXbXbXbX' kX9X3X5X-XeX5X9X5Xg.g.l.g.g.g.g.g.l.g.g.g.g.g.l.l.g.g.g.l.l.9X9XeXxX: bXbXbXbXbXbX",
"bXbXbXbXbXbX) kX9X5X3X3X9X5X5X9Xg.P.P.].V.C.[.W.W.W.W.W.W.W.W.P.W.W.W.W.l.9XeX9XkX: bXbXbXbXbXbX",
"bXbXbXbXbXbX( kX9X4X4X2XqX7X7X8Xg.P./.Z.iXuXA.^.W.W.W.W.W.W.W.~.W.W.W.W.g.wXrXrXkX: bXbXbXbXbXbX",
"bXbXbXbXbXbX~ kX9X$X-X2XqX7X8X8Xg.K.'.,XkXxX<X{.W.W.W.W.~.W.W.G.L.W.W.~.k.wXeXeXzX- bXbXbXbXbXbX",
"bXbXbXbXbXbXW kX9X#X3X2XwX8X8X9Xg.W.].:XlXlX>X`.W.~.W.~.~.W.W.6.{ L.!.!.k.rXrXeXkX: bXbXbXbXbXbX",
"bXbXbXbXbXbXR kXqX4XeX3XwX8X9X9Xg.U.U.B.S.D.N.R.~.W.~.W.W.~.7.2.' @.!.!.k.eXrXeXxX% bXbXbXbXbXbX",
"bXbXbXbXbXbXR kX9X6X7X3XeX8X9XqXg.P.W.U.).).~.~.~.W.~.W.~.F.W 8...W H.!.k.pXeXeXkX% bXbXbXbXbXbX",
"bXbXbXbXbXbXU kXqX6X7X4XeX9X9X9Xg.U.W.W.W.W.W.W.W.~.W.~.U...W y.} ! L.~.l.eXpXdXxX% bXbXbXbXbXbX",
"bXbXbXbXbXbXn kX9X7X7X4XtX9XqX9Xg._._._.|.|._.|.|.|.|.|.t./ ' d.! r.|.|.l.eXpXeXxX$ bXbXbXbXbXbX",
"bXbXbXbXbXbXg kX9X7X8X4XeXqX9XqXg.0.w.w.w.w.w.w.e.e.w.0.O.O.O.....+.e.w.l.dXpXeXkX$ bXbXbXbXbXbX",
"bXbXbXbXbXbXf kX9X8X8X4XeXqXqXqXh.5.5.5.5.5.5.5.5.5.5.5.3.J S S K D 1.5.l.dXpXdXxX$ bXbXbXbXbXbX",
"bXbXbXbXbXbXa kXqX8X8X6XtX9XqXwXf.P I I P P I I I I I I I I P N N A n H g.dXpXpXxXX bXbXbXbXbXbX",
"bXbXbXbXbXbXi kX9X8X8X6XeXqXqXwXh.M M M M F F F F F F F G F F F M b k F l.dXdXdXkXX bXbXbXbXbXbX",
"bXbXbXbXbXbXy kXqX8X9X6XtXqXwXwXk.m c c c c v v v v m m m m m m m v l m l.dXdXpXxXX bXbXbXbXbXbX",
"bXbXbXbXbXbXy kXqX8X9X6XtXqXwXeXh.h.k.k.k.l.c.g.l.l.c.c.M.c.c.c.l.l.c.c.l.dXdXdXxXX bXbXbXbXbXbX",
"bXbXbXbXbXbXr kXqXM.%X6XtXwXwXeXtXtXtXyXpXpXpXdXdXdXdXdXdXgXdXkXkXdXdXdXkXdXdXdXkXX bXbXbXbXbXbX",
"bXbXbXbXbXbXe kXqX&XeX6XtXwXeXeXeXtXtXyXpXpXpXdXdXdXdXgXdXkXkXdXkXkXkXkXdXdXdXdXxXX bXbXbXbXbXbX",
"bXbXbXbXbXbX0 kXqX9XqX7XtXwXeXwXXXXXXXXX.XoXoXoXOXOXOXOXoXOX+XOX+XoXoXoXdXkXkXdXkX$ bXbXbXbXbXbX",
"bXbXbXbXbXbX0 kX9X5X9X9XdX9XeXeXeXeXdXeXdXdXdXdXdXdXdXkXkXkXkXxXkXxXkXkXkXdXdXkXkXX bXbXbXbXbXbX",
"bXbXbXbXbXbX0 kXeX9X9X5XeXeXeXeXoXoXoXoXM.oXoXoXoXoXoXoX+XoXoXoXoX+XoXoXkXdXkXdXxXX bXbXbXbXbXbX",
"bXbXbXbXbXbX5 dXeX9X9X9XdXeXeXdXeXeXeXdXdXeXdXkXdXkXkXkXkXkXxXxXxXxXxXkXkXkXkXdXkXX bXbXbXbXbXbX",
"bXbXbXbXbXbX3 kX9X9X9X9XeX9XeXeXM.oXoXoXoXoXoXoXoXoXoXoX+X+X+X+X+X+X+X+XkXkXdXkXkXX bXbXbXbXbXbX",
"bXbXbXbXbXbX3 kXeX9X9X5XdXeXeXeXeXdXeXeXeXdXdXdXkXdXkXkXkXkXkXxXxXxXkXxXkXkXdXkXkXX bXbXbXbXbXbX",
"bXbXbXbXbXbX< dXeX9XeX9XeXeXeXeXoXoXoXoXoXoXoXoXoXoXoXoX+XoXxXxXxXxXxXxXkXkXkXkXkX$ bXbXbXbXbXbX",
"bXbXbXbXbXbX< kXeX9XeX5XdXeXeXeXeXeXdXeXdXdXeXkXkXkXkXkXkXkXkXxXxXxXxXkXkXkXdXkXkXX bXbXbXbXbXbX",
"bXbXbXbXbXbX: dXeX9X9X5XeXeXeXeXdXeXeXdXeXdXdXdXdXdXdXkXkXkXxXkXxXxXxXkXkXkXdXkXxXX bXbXbXbXbXbX",
"bXbXbXbXbXbX: dX9X9X9X9XdXeXeXeXdXeXdXeXdXdXdXdXdXdXkXdXkXkXkXkXkXkXkXkXkXkXkXdXxXX bXbXbXbXbXbX",
"bXbXbXbXbXbX% dXeX9X9X9XeX9XeXeXeXeXeXdXeXdXdXdXdXdXdXkXkXkXkXkXkXkXkXkXdXkXdXkXxXX bXbXbXbXbXbX",
"bXbXbXbXbXbX$ dX9X9X9X5XdXeXeXeXeXeXdXeXdXdXeXdXdXdXdXkXdXkXkXkXkXkXkXkXkXdXkXdXxXX bXbXbXbXbXbX",
"bXbXbXbXbXbX% eXxXxXvXxXxXxXxXxXxXxXxXxXkXkXxXxXxXkXxXkXkXkXkXxXkXkXkXxXkXkXkXxXkXX bXbXbXbXbXbX",
"bXbXbXbXbXbX  X X X X X X X X X X X X X X X X X X X X X X X X X X X X X X X X X X X bXbXbXbXbXbX",
"bXbXbXbXbXbXbXbXbXbXbXbXbXbXbXbXbXbXbXbXbXbXbXbXbXbXbXbXbXbXbXbXbXbXbXbXbXbXbXbXbXbXbXbXbXbXbXbX",
"bXbXbXbXbXbXbXbXbXbXbXbXbXbXbXbXbXbXbXbXbXbXbXbXbXbXbXbXbXbXbXbXbXbXbXbXbXbXbXbXbXbXbXbXbXbXbXbX",
"bXbXbXbXbXbXbXbXbXbXbXbXbXbXbXbXbXbXbXbXbXbXbXbXbXbXbXbXbXbXbXbXbXbXbXbXbXbXbXbXbXbXbXbXbXbXbXbX"
};
