/* XPM */
static char *drive[] = {
/* columns rows colors chars-per-pixel */
"48 48 133 2 ",
"   c #454545",
".  c #4A4A4A",
"X  c #505050",
"o  c #515151",
"O  c #525252",
"+  c #535353",
"@  c #545454",
"#  c #555555",
"$  c #575757",
"%  c #585858",
"&  c #5A5A5A",
"*  c #5B5B5B",
"=  c #5C5C5C",
"-  c #5D5D5D",
";  c #5E5E5E",
":  c #5F5F5F",
">  c #606060",
",  c #616161",
"<  c #636363",
"1  c #656565",
"2  c #666666",
"3  c #676767",
"4  c #686868",
"5  c #6C6C6C",
"6  c #6D6D6D",
"7  c #6E6E6E",
"8  c #707070",
"9  c #717171",
"0  c #727272",
"q  c #737373",
"w  c #747474",
"e  c #7B7B7B",
"r  c #7C7C7C",
"t  c #7F7F7F",
"y  c #828282",
"u  c #858585",
"i  c #888888",
"p  c #8B8B8B",
"a  c #8C8C8C",
"s  c #8D8D8D",
"d  c #8E8E8E",
"f  c #919191",
"g  c #949494",
"h  c #959595",
"j  c #969696",
"k  c #989898",
"l  c #999999",
"z  c #9A9A9A",
"x  c #9C9C9C",
"c  c #9D9D9D",
"v  c #9E9E9E",
"b  c #9F9F9F",
"n  c #A0A0A0",
"m  c #A1A1A1",
"M  c #A2A2A2",
"N  c #A3A3A3",
"B  c #A4A4A4",
"V  c #A5A5A5",
"C  c #A6A6A6",
"Z  c #A7A7A7",
"A  c #A8A8A8",
"S  c #A9A9A9",
"D  c #AAAAAA",
"F  c #ABABAB",
"G  c #ACACAC",
"H  c gray68",
"J  c #AEAEAE",
"K  c #AFAFAF",
"L  c #B0B0B0",
"P  c #B1B1B1",
"I  c #B2B2B2",
"U  c #B3B3B3",
"Y  c #B4B4B4",
"T  c #B5B5B5",
"R  c #B6B6B6",
"E  c #B7B7B7",
"W  c #B8B8B8",
"Q  c #B9B9B9",
"!  c #BABABA",
"~  c #BBBBBB",
"^  c #BCBCBC",
"/  c #BDBDBD",
"(  c #BEBEBE",
")  c #BFBFBF",
"_  c #C0C0C0",
"`  c #C1C1C1",
"'  c #C2C2C2",
"]  c #C3C3C3",
"[  c #C4C4C4",
"{  c #C5C5C5",
"}  c #C6C6C6",
"|  c #C7C7C7",
" . c #C8C8C8",
".. c #C9C9C9",
"X. c #CACACA",
"o. c #CBCBCB",
"O. c #CCCCCC",
"+. c #CECECE",
"@. c #D1D1D1",
"#. c #D2D2D2",
"$. c #D3D3D3",
"%. c #D4D4D4",
"&. c #D5D5D5",
"*. c #D6D6D6",
"=. c #D7D7D7",
"-. c #D8D8D8",
";. c #D9D9D9",
":. c #DADADA",
">. c #DBDBDB",
",. c #DCDCDC",
"<. c #DDDDDD",
"1. c #DEDEDE",
"2. c #DFDFDF",
"3. c #E0E0E0",
"4. c #E1E1E1",
"5. c #E2E2E2",
"6. c #E3E3E3",
"7. c #E4E4E4",
"8. c #E5E5E5",
"9. c #E6E6E6",
"0. c #E7E7E7",
"q. c #E8E8E8",
"w. c #E9E9E9",
"e. c #EAEAEA",
"r. c #EBEBEB",
"t. c #ECECEC",
"y. c #EDEDED",
"u. c #EEEEEE",
"i. c #EFEFEF",
"p. c #F0F0F0",
"a. c #F1F1F1",
"s. c #F2F2F2",
"d. c None",
/* pixels */
"d.d.d.d.d.d.d.d.d.d.d.d.d.d.d.d.d.d.d.d.d.d.d.d.d.d.d.d.d.d.d.d.d.d.d.d.d.d.d.d.d.d.d.d.d.d.d.d.",
"d.d.d.d.d.d.d.d.d.d.d.d.d.d.d.d.d.d.d.d.d.d.d.d.d.d.d.d.d.d.d.d.d.d.d.d.d.d.d.d.d.d.d.d.d.d.d.d.",
"d.d.d.d.d.d.d.d.d.d.d.d.d.d.d.d.d.d.d.d.d.d.d.d.d.d.d.d.d.d.d.d.d.d.d.d.d.d.d.d.d.d.d.d.d.d.d.d.",
"d.d.d.d.d.d.d.d.d.d.d.d.d.d.d.d.d.d.d.d.d.d.d.d.d.d.d.d.d.d.d.d.d.d.d.d.d.d.d.d.d.d.d.d.d.d.d.d.",
"d.d.d.d.d.d.d.d.d.d.d.d.d.d.d.d.d.d.d.d.d.d.d.d.d.d.d.d.d.d.d.d.d.d.d.d.d.d.d.d.d.d.d.d.d.d.d.d.",
"d.d.d.d.d.d.d.d.d.d.d.d.d.d.d.d.d.d.d.d.d.d.d.d.d.d.d.d.d.d.d.d.d.d.d.d.d.d.d.d.d.d.d.d.d.d.d.d.",
"d.d.d.d.d.d.d.d.d.d.d.d.d.d.d.d.d.d.d.d.d.d.d.d.d.d.d.d.d.d.d.d.d.d.d.d.d.d.d.d.d.d.d.d.d.d.d.d.",
"d.d.d.d.d.d.d.d.d.d.= 9 9 w 9 9 w w 9 w 9 9 w 9 9 9 w 9 9 9 9 9 9 9 9 9 9 1 d.d.d.d.d.d.d.d.d.d.",
"d.d.d.d.d.d.d.d.d.= ) r.r.0.r.0.0.r.r.r.0.r.0.0.r.0.0.4.4.0.4.4.4.4.4.4.4.o.5 d.d.d.d.d.d.d.d.d.",
"d.d.d.d.d.d.d.d.d.u s.0.0.0.0.0.0.0.4.4.4.4.4.4.4.2.2.2.4.2.2.2.2.>.>.>.>.r.V O d.d.d.d.d.d.d.d.",
"d.d.d.d.d.d.d.d.@ ! s.4.4.4.4.0.4.4.4.4.4.4.2.2.2.2.2.2.>.>.>.>.>.=.>.=.=.2.@., d.d.d.d.d.d.d.d.",
"d.d.d.d.d.d.d.d.5 4.r.4.0.4.4.4.0.4.0.4.4.4.4.4.2.2.2.>.2.2.>.>.>.>.=.=.>.>.0.u d.d.d.d.d.d.d.d.",
"d.d.d.d.d.d.d.d.k s.4.0.4.4.4.4.0.4.0.0.0.4.4.4.4.4.4.4.4.4.4.2.>.>.=.>.>.>.0.Y % d.d.d.d.d.d.d.",
"d.d.d.d.d.d.d.= O.t.4.4.4.0.0.0.0.0.0.4.4.4.4.4.4.4.4.0.4.4.4.2.2.2.>.>.>.=.>.>.9 d.d.d.d.d.d.d.",
"d.d.d.d.d.d.d.r t.4.4.4.0.0.0.0.0.0.4.4.4.4.4.4.0.4.0.4.4.4.2.2.2.2.>.>.>.=.=.0.k O d.d.d.d.d.d.",
"d.d.d.d.d.d.O H t.4.4.0.0.0.4.0.4.4.4.4.4.4.0.4.0.0.4.4.4.4.2.2.2.2.>.>.>.>.=.2.o., d.d.d.d.d.d.",
"d.d.d.d.d.d.1 2.0.4.4.0.0.0.4.4.4.4.4.4.0.4.0.0.4.4.4.4.4.2.2.2.2.>.>.>.>.>.>.=.2.y d.d.d.d.d.d.",
"d.d.d.d.d.d.d t.2.4.0.0.4.4.4.4.2.4.4.0.4.0.0.4.0.4.4.2.2.2.>.2.2.>.>.>.>.>.>.=.4.H @ d.d.d.d.d.",
"d.d.d.d.d.% _ r.2.4.4.4.4.4.4.4.4.0.0.0.4.0.0.4.4.4.2.2.2.>.2.>.2.>.>.2.>.>.>.>.>.=.5 d.d.d.d.d.",
"d.d.d.d.d.w 0.2.4.4.4.4.2.2.4.4.4.4.0.4.0.4.4.4.4.2.2.2.2.2.>.2.>.2.>.>.2.>.>.2.=.4.j d.d.d.d.d.",
"d.d.d.d.d.m t.2.4.0.2.2.4.4.4.0.0.0.0.4.4.4.4.2.2.2.2.>.>.>.2.>.2.>.>.>.>.>.2.4.@.2._ = d.d.d.d.",
"d.d.d.d., @.0.>.2.0.4.2.4.4.0.4.4.4.4.4.4.4.2.2.2.>.2.2.2.2.2.2.>.2.2.>.>.>.0.>.@.=.2.r d.d.d.d.",
"d.d.d.d.u r.>.>.>.2.r.r.4.0.0.4.4.4.4.4.4.2.2.2.2.>.2.>.2.>.>.2.2.>.2.>.4.r.4.=.=.@.2.V O d.d.d.",
"d.d.d.@ Y r.=.>.>.>.2.r.t.r.4.4.4.4.4.2.2.2.2.>.>.2.>.2.2.2.2.>.>.2.2.0.r.2.=.@.@.=.=.O.4 d.d.d.",
"d.d.d.5 2.2.2.2.>.>.>.>.4.t.t.r.0.4.2.2.2.2.2.2.2.2.2.>.2.2.2.2.0.r.r.0.>.=.=.=.>.>.@.>.d d.d.d.",
"d.d.d.j r.>.0.r.4.=.>.>.>.2.4.r.t.t.r.r.0.4.4.4.4.4.0.0.0.r.t.t.t.4.>.=.@.=.@.>.0.0.>.>.! % d.d.",
"d.d.@ ! 4.=.2.0.2.>.=.>.>.>.>.>.2.4.0.r.r.t.t.s.t.s.t.t.r.0.4.2.=.=.=.=.=.=.@.@.>.2.=.=.=.5 d.d.",
"d.d.% { r.2.2.2.2.2.2.2.2.4.2.2.4.4.4.4.4.4.0.4.0.4.4.4.2.2.2.2.2.2.>.2.>.>.2.>.>.>.>.2.2.5 d.d.",
"d.d.% _ r.0.0.0.0.0.0.0.0.0.0.0.0.0.0.4.0.0.4.0.4.0.4.4.4.4.4.4.4.4.4.4.4.4.4.4.2.2.2.2.{ 1 d.d.",
"d.d.% ! o.) ) ! ) ! ! ! ! ! Y Y Y Y Y L L L L L H L H F F F F F F V V V V V m m m m m m H 4 d.d.",
"d.d.% ) O.! ! ! Y ! Y Y L Y L Y Y L L L L L H H H F V F V F F V F V V m V m V m V v v m H 1 d.d.",
"d.d.% ! o.! ! L j k k v m V V F F H H H H H H H H F F F F F ) V ! V ! m ! m Y v ! V m m H 4 d.d.",
"d.d.% ! o.! ! L d p f j k v m V F F F F H H H H H F F V F H _ V ) m ! m ) v ! v ! V v m F 1 d.d.",
"d.d.@ ! o.! ! L d d f j k m m V V F F F H H H H H F F F V F _ m ) m ! m ! v ! v ! V v m F 1 d.d.",
"d.d.% ! { ! ! Y v k j j k v m V V F H H H H H H F F V F F F _ V ) m ) v ! v ! v ) m v m F 1 d.d.",
"d.d.@ ! o.! ! ) Y Y Y L F V V V V F F H H H H H F F F V V H _ m ) m ! m ! v ! v ! V m m V 1 d.d.",
"d.d.O ! o.Y ! ! o.{ o.o.o.{ _ ! Y L L H H H H H F V F V V H ! m Y m Y m Y v Y v ! m v m F 1 d.d.",
"d.d.O Y @._ _ ) ) ) ! ) ! ! ! ! ! Y Y Y Y L L L L H H H F H H F H V F V F V F m V V m V m , d.d.",
"d.d.  r _ o.{ { { _ _ _ _ _ ) ) ) ) ! ) ! Y ! Y Y Y L L H L H H F F V V m V V V m m m m y O d.d.",
"d.d.d.. = , , , , , , , , = , = = , = = = , = = = = = , = = = = = = = = = % = % = % = % O d.d.d.",
"d.d.d.d.d.d.d.d.d.d.d.d.d.d.d.d.d.d.d.d.d.d.d.d.d.d.d.d.d.d.d.d.d.d.d.d.d.d.d.d.d.d.d.d.d.d.d.d.",
"d.d.d.d.d.d.d.d.d.d.d.d.d.d.d.d.d.d.d.d.d.d.d.d.d.d.d.d.d.d.d.d.d.d.d.d.d.d.d.d.d.d.d.d.d.d.d.d.",
"d.d.d.d.d.d.d.d.d.d.d.d.d.d.d.d.d.d.d.d.d.d.d.d.d.d.d.d.d.d.d.d.d.d.d.d.d.d.d.d.d.d.d.d.d.d.d.d.",
"d.d.d.d.d.d.d.d.d.d.d.d.d.d.d.d.d.d.d.d.d.d.d.d.d.d.d.d.d.d.d.d.d.d.d.d.d.d.d.d.d.d.d.d.d.d.d.d.",
"d.d.d.d.d.d.d.d.d.d.d.d.d.d.d.d.d.d.d.d.d.d.d.d.d.d.d.d.d.d.d.d.d.d.d.d.d.d.d.d.d.d.d.d.d.d.d.d.",
"d.d.d.d.d.d.d.d.d.d.d.d.d.d.d.d.d.d.d.d.d.d.d.d.d.d.d.d.d.d.d.d.d.d.d.d.d.d.d.d.d.d.d.d.d.d.d.d.",
"d.d.d.d.d.d.d.d.d.d.d.d.d.d.d.d.d.d.d.d.d.d.d.d.d.d.d.d.d.d.d.d.d.d.d.d.d.d.d.d.d.d.d.d.d.d.d.d.",
"d.d.d.d.d.d.d.d.d.d.d.d.d.d.d.d.d.d.d.d.d.d.d.d.d.d.d.d.d.d.d.d.d.d.d.d.d.d.d.d.d.d.d.d.d.d.d.d."
};
