/* XPM */
static char *font_x_generic[] = {
/* columns rows colors chars-per-pixel */
"48 48 79 1 ",
"  c #82837F",
". c #3465A4",
"X c #3768A6",
"o c #396AA7",
"O c #3C6DAA",
"+ c #416EA9",
"@ c #4272AE",
"# c #4B76AD",
"$ c #4E78AE",
"% c #4676B1",
"& c #4877B2",
"* c #4C7BB4",
"= c #537FB5",
"- c #5682B7",
"; c #5A82B4",
": c #5483BA",
"> c #5987BD",
", c #5A89BF",
"< c #6087B8",
"1 c #648DBE",
"2 c #6C8FB9",
"3 c #7594BD",
"4 c #5E8CC1",
"5 c #618EC2",
"6 c #6492C5",
"7 c #6D94C2",
"8 c #6E9ACA",
"9 c #7297C4",
"0 c #7299C5",
"q c #7B9BC3",
"w c #769DC8",
"e c #789EC9",
"r c #7BA1CD",
"t c #828380",
"y c #898B86",
"u c #8B8D88",
"i c #8F918C",
"p c #90928D",
"a c #ACAEAA",
"s c #AFB1AD",
"d c #819FC4",
"f c #85A5CA",
"g c #89A9CD",
"h c #93ADCC",
"j c #99B0CC",
"k c #91AED0",
"l c #93B1D3",
"z c #9CB5D3",
"x c #99B6D8",
"c c #A5BBD6",
"v c #ACC3DC",
"b c #B5C4D7",
"n c #B4C6DB",
"m c #BBCADC",
"M c #B5C9E1",
"N c #BDCDE0",
"B c #C1CEDF",
"V c #CDD6DF",
"C c #C1CFE0",
"Z c #C5D4E5",
"A c #CBD6E3",
"S c #CFDAE6",
"D c #D2DBE5",
"F c #D9DFE6",
"G c #D1DDE9",
"H c #DAE0E6",
"J c #DCE2EA",
"K c #E1E5E7",
"L c #E2E6E9",
"P c #E5E9EC",
"I c #EEEEEC",
"U c #EFF0EF",
"Y c #F0F0EF",
"T c #EBEEF1",
"R c #ECF0F4",
"E c #F4F4F3",
"W c #F8F8F7",
"Q c #FCFCFC",
"! c None",
/* pixels */
"!!!!!!!!!!!!!!!!!!!!!!!!!!!!!!!!!!!!!!!!!!!!!!!!",
"!!!!!!!!!!!!!!!!!!!!!!!!!!!!!!!!!!!!!!!!!!!!!!!!",
"!!!iuuyyuyyuyuyuyuyyuyyyyuyuyuyyuyyyyuyuyuyui!!!",
"!!!uQQQQQQQQQQQQQQQQQQQQQQQQQQQQQQQQQQQQQQQQu!!!",
"!!!uQQQsQQQQQQQQQQQQQQQQWQQWQQWWWWWQWWWEQEEQu!!!",
"!!!uQQQQQQQQQQQQQQQQQQQQQQQQQQWQWWWWWWWWWEQQu!!!",
"!!!uQsQsQsQsQsQsQsQsQsQaQaQaQaQaWaWaWaEaEEEQy!!!",
"!!!iQQQQQQQQQQQQQQQQQQQQQWQEQEQEWWWWWEWWEQEQy!!!",
"!!!uQQQsQQQQQQQQQQQQQQWQWQWQWQEQWWWWEWWEEWWQy!!!",
"!!!uQQQQQQQQQQQQQQQQWQQQQWWQWR8LWWWWWEEWEEEQy!!!",
"!!!uQQQsQQQQQQQQQQQQQQQWWQEWWx6ZWEEWEWEEEWEQy!!!",
"!!!uQQQQQQQQQQQQQQWQQWWWQWQWG66vWWWWWEEEEEEQu!!!",
"!!!uQQQsQQQQQQQQQQQWQWQQWWWWr65lWWEEEEEEEEEQu!!!",
"!!!uQQQQQQQQQQQQQWWQWQWWQWWM444rWEEWEEEEEEEQy!!!",
"!!!uQQQsQQQQQQQQWQQWQWQWWWP64444WWWEEWEEEEEQy!!!",
"!!!uQQQQQQQQQQQQQQWQWWWWWWl4444>LEEEEEEEEEEQy!!!",
"!!!uQQQaQQQQWQQQWQWWQWWWWS4v44::CEEEEEEEYYEQy!!!",
"!!!uQQQQQQQWQQWWQWQWWWWWWe8E7:::cEEEEEEEEEEQu!!!",
"!!!iQQQaQQQQQQWQWWWWWWWWn4ZEg*:=gEEEEYEYEEYQy!!!",
"!!!iQQQQQQQWQWQQWQWWWWWT4gEWc4*=7EEEEEYEYYEQy!!!",
"!!!uQQQsWWQWWWQWQWWWWWWl4JEWM:**=YEYEYEEYEYQu!!!",
"!!!uQQQQQQWQQQWWWWWWWWS:xEWEJ***&HEEEEYYYYEQu!!!",
"!!!uQQQaQWQWWWWQWWWWWW85TEWER=*&%mYEYYEYYYEQy!!!",
"!!!uQWQQWQWQQWWWWWWWWv:nEEEEW5&&%zEEYEYYYYYQy!!!",
"!!!uQQQaQWWWWWWWEQQET>0EEWEEEf@@@dYEYYYEYYYQy!!!",
"!!!uQQWQQWWQQWWWWEEWk:SEEEEEEz@@@<EYEYYYYYYQy!!!",
"!!!uQWQaWWWQEWWWEQEG=fEEEEEEEm@@O+YYYYYYYYIQy!!!",
"!!!uQQQEWQWWWWEWEEE9=ZJJJJJJJCOOOOFYYYYYYYYQu!!!",
"!!!uQQQaQEQWWWWWEEn**&%%%@@@O@OOoobYYYYIIUUQu!!!",
"!!!uQQQEWWEWWWEEWT:*&%%%@@+OOOXOoojUYIUUYIYQy!!!",
"!!!uQQEaWWWWEWEWWk%qJJJJJJJJFF;X..3YYYUIYIIQy!!!",
"!!!iQEQWEQEWWEWED&&JEEEEYYEYYUqX..=YYIUUIIYQu!!!",
"!!!uQQQaQEEEEWEE3%hEEEEEYEYYEYj...oIIYIIIIIQu!!!",
"!!!uQEEEWEQEWEEc%=TYEYEYEYEYYYm....DIIIIIIIQy!!!",
"!!!uQQWaEEEEEEP*@cEEEEYEEYYYYYF....bIIIIIIIQu!!!",
"!!!uQQEEQEQEEEq@*IEEEYEYYYEYYUUo...hIIIIIIIQy!!!",
"!!!uQQWaEWWEEc@OhEEYYEYEYEYYYYU$...2IIIIIIYQy!!!",
"!!!uQEEEEEEWC@OObEYEEYEYYYYUUUI#...+KIIIIIIQu!!!",
"!!!uQEEaWEJz@OOOqATYYYYYYYYUIDh.....3VKIIIIQy!!!",
"!!!uQQEWETOOOOOXXXXTYEYYYYYP...........IUIYQy!!!",
"!!!uQWEaEEPTPPPPPPPYYYYYYYYIKLLKKKKKKKKIIIIQu!!!",
"!!!uQEEEEEEEYEEYYEEYYYYYYYIYYIIIIIIIIIIIIIYQu!!!",
"!!!uQWEWEEEEEEEYYYEYYYYYYIIIIIIIIIIIIIIIIIIQy!!!",
"!!!iQEEEEEYEYYEYEYYYYYYYIIIIIIIYIIIIIIIYIIIQy!!!",
"!!!uQQQQQQQQQQQQQQQQQQQQQQQQQQQQQQQQQQQQQQQQy!!!",
"!!!tppppppppppppppppppppppppiippppppppppppppt!!!",
"!!!!!!!!!!!!!!!!!!!!!!!!!!!!!!!!!!!!!!!!!!!!!!!!",
"!!!!!!!!!!!!!!!!!!!!!!!!!!!!!!!!!!!!!!!!!!!!!!!!"
};
