/* XPM */
static char *home[] = {
/* columns rows colors chars-per-pixel */
"48 48 114 2 ",
"   c #3A3F45",
".  c #4C4C4C",
"X  c #545454",
"o  c #5A5A5A",
"O  c #5E6B7C",
"+  c #626262",
"@  c #6B6B6B",
"#  c #70706F",
"$  c #656C74",
"%  c #686E74",
"&  c #606E7E",
"*  c #697077",
"=  c #66707D",
"-  c #6C727A",
";  c #757575",
":  c #787776",
">  c #787877",
",  c #70777F",
"<  c #75787C",
"1  c #7C7B7B",
"2  c #807F7E",
"3  c #3A5E8C",
"4  c #2E5B95",
"5  c #33619C",
"6  c #3465A3",
"7  c #3868A4",
"8  c #3E6DA9",
"9  c #4C678A",
"0  c #566A84",
"q  c #5F6F84",
"w  c #556D8C",
"e  c #5F7085",
"r  c #466893",
"t  c #4B6A91",
"y  c #456B9C",
"u  c #4A6E9C",
"i  c #5B7495",
"p  c #6C7682",
"a  c #747A81",
"s  c #7C7F82",
"d  c #436DA2",
"f  c #4570A6",
"g  c #4A72A5",
"h  c #4472AC",
"j  c #4A75AB",
"k  c #5079AE",
"l  c #4777B1",
"z  c #4779B4",
"x  c #4F7DB5",
"c  c #4A7CB8",
"v  c #557EB2",
"b  c #4E81BC",
"n  c #5781B6",
"m  c #5384BC",
"M  c #5D86B9",
"N  c #658DBD",
"B  c #5B8EC6",
"V  c #608CC0",
"C  c #6C94C3",
"Z  c #6295CB",
"A  c #6798CC",
"S  c #6C9BCD",
"D  c #759AC6",
"F  c #729FCF",
"G  c #789DCA",
"H  c #729FD0",
"J  c #73A0CF",
"K  c #7EA2CC",
"L  c #75A1D0",
"P  c #7CA6D2",
"I  c #7FA8D3",
"U  c #838383",
"Y  c #8B8B8B",
"T  c #949494",
"R  c #9C9C9C",
"E  c #A3A3A3",
"W  c #ABABAB",
"Q  c #B3B3B3",
"!  c #BBBBBB",
"~  c #80A5CF",
"^  c #87A8CE",
"/  c #82A7D1",
"(  c #83ABD4",
")  c #89AFD6",
"_  c #90AFD3",
"`  c #8CB0D7",
"'  c #8DB2D8",
"]  c #94B3D6",
"[  c #93B5D9",
"{  c #96B8DB",
"}  c #9BBBDD",
"|  c #A2BEDD",
" . c #A5C1DF",
".. c #A4C1E0",
"X. c #ABC6E2",
"o. c #AFC8E3",
"O. c #B4CCE5",
"+. c #B8CFE6",
"@. c #BAD0E7",
"#. c #BCD2E8",
"$. c #C3D6EB",
"%. c #C6D8EB",
"&. c #CADBED",
"*. c #D1E0EF",
"=. c #D3E1F0",
"-. c #DBE7F3",
";. c #DDE8F4",
":. c #E3ECF5",
">. c #E9F0F7",
",. c #ECF2F8",
"<. c #F0F5FA",
"1. c #F6F9FC",
"2. c #FDFDFE",
"3. c None",
/* pixels */
"3.3.3.3.3.3.3.3.3.3.3.3.3.3.3.3.3.3.3.3.3.3.3.3.3.3.3.3.3.3.3.3.3.3.3.3.3.3.3.3.3.3.3.3.3.3.3.3.",
"3.3.3.3.3.3.3.3.3.3.3.3.3.3.3.3.3.3.3.3.3.3.3.3.3.3.3.3.3.3.3.3.3.3.3.3.3.3.3.3.3.3.3.3.3.3.3.3.",
"3.3.3.3.3.3.3.3.3.3.3.3.3.3.3.3.3.3.3.3.3.3.3.3.3.3.3.3.3.3.3.3.3.3.3.3.3.3.3.3.3.3.3.3.3.3.3.3.",
"3.3.3.3.3.3.3.3.3.3.3.3.3.3.3.3.3.3.3.3.3.3.3.3.3.3.3.3.3.3.3.3.3.3.3.3.3.3.3.3.3.3.3.3.3.3.3.3.",
"3.3.3.3.3.3.3.3.3.3.3.3.3.3.3.3.3.3.3.3.3.3.3.3.3.3.3.3.3.3.3.3.3.3.3.3.3.3.3.3.3.3.3.3.3.3.3.3.",
"3.3.3.: U U U U U U U U U U U U U U U 1 3.3.3.3.3.3.3.3.3.3.3.3.3.3.3.3.3.3.3.3.3.3.3.3.3.3.3.3.",
"3.3.3.U ! ! ! Q Q ! Q Q Q Q Q W W W Q R : 3.3.3.3.3.3.3.3.3.3.3.3.3.3.3.3.3.3.3.3.3.3.3.3.3.3.3.",
"3.3.3.U ! Q W E E E R R R R R R R T R E 1 3.3.3.3.3.3.3.3.3.3.3.3.3.3.3.3.3.3.3.3.3.3.3.3.3.3.3.",
"3.3.3.1 Q E T T Y T Y Y Y U Y U U U U T U 3.3.3.3.3.3.3.3.3.3.3.3.3.3.3.3.3.3.3.3.3.3.3.3.3.3.3.",
"3.3.3.1 Q W R R T T T T T Y Y Y Y Y Y Y U @ 3.3.3.3.3.3.3.3.3.3.3.3.3.3.3.3.3.3.3.3.3.3.3.3.3.3.",
"3.3.3.> W R T Y Y Y Y U U U U U 1 1 1 1 1 : ; : : > > ; ; : : ; ; # : # @ 3.3.3.3.3.3.3.3.3.3.3.",
"3.3.3.; W E T T T Y Y Y Y U U U U U 2 U s U Y T R R R E R E E E W E W E # 3.3.3.3.3.3.3.3.3.3.3.",
"3.3.3.# E R Y Y U U U U 1 1 1 1 1 : : ; ; ; : : : : : 1 1 1 U 2 U U Y U @ 3.3.3.3.3.3.3.3.3.3.3.",
"3.3.3.@ E E T Y Y Y U U U U 1 1 1 1 1 > : : : : : 1 1 1 s 1 U U U U Y Y @ 3.3.3.3.3.3.3.3.3.3.3.",
"3.3.3.@ R T U U s a a , , - - * * $ $ $ $ $ $ $ $ $ $ * * - - - , , a a $ 3.3.3.3.3.3.3.3.3.3.3.",
"3.3.3.@ R R Y Y i d g g g g g g g g g f g g g g f g g f g g g g g g g g g h h h h h h 6 3.3.3.3.",
"3.3.3.+ T T U s u G  .} | | | | | | | | | | | | | | | | | | | | | | | }  .| | | | | _ 8 3.3.3.3.",
"3.3.3.+ T R U U u _ } ) ) ) ) ) ) ) ) ) ) ) ) ) ) ) ) ) ) ) ) ) ) ) ) ` ) ) ) ) ) { ] 8 3.3.3.3.",
"3.3.3.o Y Y 1 < u [ ' I I I I I I I I I I I I I I I I I I I I I I I I I I I I I I ` _ 7 3.3.3.3.",
"3.3.3.o Y R U a g } ` I I I I I I I I I I I I I I P ( I I I I I I I I I I I I I P ` ^ 7 3.3.3.3.",
"3.3.3.o U Y 1 - g | ) I I I I I I I I I I I I I ( ..-.@.( I I I I I I I I I ( I J ' ~ 6 3.3.3.3.",
"3.3.3.o U T 1 p k  .) I I I I I I I I I I I I ' &.1.2.2.&.[ I I I I I I I I I J S [ D 6 3.3.3.3.",
"3.3.3.o 1 Y : & v  .( I I I I I I I I I I ( X.:.2.2.2.2.2.:...I I I I I I I J J J { C 3.3.3.3.3.",
"3.3.3.3.: T 1 e M ..I I I I I I I I I I ' &.<.1.1.1.1.1.1.1.<.@.) I I I I J J J J } N 3.3.3.3.3.",
"3.3.3.3.# Y # 0 N ..I I I I I I I P ( X.;.<.<.,.<.,.<.<.<.<.<.<.*.[ I I J J S J J | M 3.3.3.3.3.",
"3.3.3.3.# T : w C | I I I I I P I [ %.:.>.>.>.>.>.>.>.>.>.,.>.,.>.-.| J H J H H J } n 3.3.3.3.3.",
"3.3.3.3.@ U @ 9 D } I I I I I ) X.-.:.:.:.:.:.:.:.:.:.:.:.:.:.:.:.:.;.O.P J J H J } k 3.3.3.3.3.",
"3.3.3.3.@ Y : t G [ I I I I I { o.%.-.-.-.-.-.-.-.-.-.-.;.;.-.-.-.-.@.X.' J H H P [ l 3.3.3.3.3.",
"3.3.3.3.+ U @ r K ' I I I I I ( P X.=.=.*.*.*.*.=.%.%.%.%.&.=.=.=.=.' S F H H J L _ h 3.3.3.3.3.",
"3.3.3.3.+ Y ; y I ` I I I I P J J X.&.&.&.&.&.&.%.) P P I o.&.&.&.&.) H F F H J P ( 8 3.3.3.3.3.",
"3.3.3.3.o 2 $ y / ) I P J J F H H X.$.$.$.$.$.$.@.P F F J X.&.%.%.#.I F J F H S P K 8 3.3.3.3.3.",
"3.3.3.3.o U * d / I F J F J H H J X.@.@.@.#.@.#.O.L H J J o.#.#.#.O.P F F F H H P G 6 3.3.3.3.3.",
"3.3.3.3.X 1 $ f P L F F F F F F J X.O.O.O.O.O.O...J S H L X.O.+.+.X.L S S S H S P A 6 3.3.3.3.3.",
"3.3.3.3.o 2 = h J G S S S S S S J ..X.X.X.X.X.X.} S S S L ..X.X.X.| S S S S S S L B 6 3.3.3.3.3.",
"3.3.3.3.X > O l F S S S S A S A J { { } } } } } ) S S A H { } } } ' A A A A A A F m 5 3.3.3.3.3.",
"3.3.3.3.X 1 q l S A Z A A A A A A S S S S S S S S Z A Z A S S S S A Z A A Z Z Z A x 4 3.3.3.3.3.",
"3.3.3.3.. 1 0 z Z Z Z Z Z Z Z Z Z Z Z Z Z Z Z Z Z Z Z Z Z Z Z Z Z Z Z Z Z Z Z Z Z z 3.3.3.3.3.3.",
"3.3.3.3.. 2 w c Z Z Z Z Z Z Z Z Z Z Z Z Z Z Z Z Z Z Z Z Z Z Z Z Z Z Z Z Z Z Z Z Z l 3.3.3.3.3.3.",
"3.3.3.3.. , y b B B B B B B B B B B B B B B B B B B B B B B B B B B B B B B B B b 6 3.3.3.3.3.3.",
"3.3.3.3.  3 6 6 7 7 7 7 7 7 7 6 7 7 7 6 7 6 7 7 6 7 7 7 6 6 7 7 7 7 7 7 6 6 7 7 5 3.3.3.3.3.3.3.",
"3.3.3.3.3.3.3.3.3.3.3.3.3.3.3.3.3.3.3.3.3.3.3.3.3.3.3.3.3.3.3.3.3.3.3.3.3.3.3.3.3.3.3.3.3.3.3.3.",
"3.3.3.3.3.3.3.3.3.3.3.3.3.3.3.3.3.3.3.3.3.3.3.3.3.3.3.3.3.3.3.3.3.3.3.3.3.3.3.3.3.3.3.3.3.3.3.3.",
"3.3.3.3.3.3.3.3.3.3.3.3.3.3.3.3.3.3.3.3.3.3.3.3.3.3.3.3.3.3.3.3.3.3.3.3.3.3.3.3.3.3.3.3.3.3.3.3.",
"3.3.3.3.3.3.3.3.3.3.3.3.3.3.3.3.3.3.3.3.3.3.3.3.3.3.3.3.3.3.3.3.3.3.3.3.3.3.3.3.3.3.3.3.3.3.3.3.",
"3.3.3.3.3.3.3.3.3.3.3.3.3.3.3.3.3.3.3.3.3.3.3.3.3.3.3.3.3.3.3.3.3.3.3.3.3.3.3.3.3.3.3.3.3.3.3.3.",
"3.3.3.3.3.3.3.3.3.3.3.3.3.3.3.3.3.3.3.3.3.3.3.3.3.3.3.3.3.3.3.3.3.3.3.3.3.3.3.3.3.3.3.3.3.3.3.3.",
"3.3.3.3.3.3.3.3.3.3.3.3.3.3.3.3.3.3.3.3.3.3.3.3.3.3.3.3.3.3.3.3.3.3.3.3.3.3.3.3.3.3.3.3.3.3.3.3.",
"3.3.3.3.3.3.3.3.3.3.3.3.3.3.3.3.3.3.3.3.3.3.3.3.3.3.3.3.3.3.3.3.3.3.3.3.3.3.3.3.3.3.3.3.3.3.3.3."
};
