/* XPM */
static char *text_html[] = {
/* columns rows colors chars-per-pixel */
"48 48 230 2 ",
"   c #111121",
".  c #17172C",
"X  c #1B1B34",
"o  c #20203C",
"O  c gray21",
"+  c #34343A",
"@  c gray23",
"#  c #222240",
"$  c #272748",
"%  c #35354A",
"&  c #353550",
"*  c #383851",
"=  c #36365B",
"-  c #373763",
";  c #3A3A6D",
":  c #3F3F71",
">  c #444444",
",  c #4C4C4C",
"<  c #555555",
"1  c #515159",
"2  c #5B5B5B",
"3  c #41416F",
"4  c #444473",
"5  c #4C4C76",
"6  c #4D4D7B",
"7  c #465974",
"8  c #425C7C",
"9  c #52527D",
"0  c #5B5B7B",
"q  c #4B617D",
"w  c #646464",
"e  c #6B6B6B",
"r  c #747474",
"t  c #7C7C7C",
"y  c #3C5E8B",
"u  c #3C6294",
"i  c #3D6699",
"p  c #3E699C",
"a  c #3E6CA3",
"s  c #3F71A9",
"d  c #425D80",
"f  c #555580",
"g  c #5B5B83",
"h  c #5F5F88",
"j  c #5D6D8B",
"k  c #486893",
"l  c #626286",
"z  c #63638B",
"x  c #6B6B8D",
"c  c #617285",
"v  c #6A7583",
"b  c #76768B",
"n  c #767E89",
"m  c #78788F",
"M  c #6D6D92",
"N  c #6C7792",
"B  c #617499",
"V  c #6B7A9D",
"C  c #737394",
"Z  c #7C7C95",
"A  c #767699",
"S  c #7A7B9B",
"D  c #4174AE",
"F  c #5179A7",
"G  c #5B7BA4",
"H  c #587AA8",
"J  c #4679B1",
"K  c #4B7DB4",
"L  c #657CA2",
"P  c #6B7DA2",
"I  c #71808F",
"U  c #7A828E",
"Y  c #4F80B6",
"T  c #5182B7",
"R  c #5484BA",
"E  c #5887BB",
"W  c #5C8ABC",
"Q  c #688AAF",
"!  c #7981A1",
"~  c #7489AE",
"^  c #7D91A7",
"/  c #7B94AF",
"(  c #6289B6",
")  c #658EBB",
"_  c #618FC0",
"`  c #6692C3",
"'  c #6B95C4",
"]  c #6E98C7",
"[  c #7F9FC2",
"{  c #729CCA",
"}  c #7BA3CF",
"|  c #7FA6D0",
" . c #838383",
".. c #8B8B8B",
"X. c #818191",
"o. c #868E95",
"O. c #82829D",
"+. c #838B98",
"@. c #88889D",
"#. c #939393",
"$. c #96969D",
"%. c #9B9B9B",
"&. c #8486A6",
"*. c #808CA4",
"=. c #8888A7",
"-. c #848BAA",
";. c #8C8CA9",
":. c #8597AB",
">. c #8E92AE",
",. c #8598AD",
"<. c #8E9DAE",
"1. c #9393A3",
"2. c #9999A7",
"3. c #9093AD",
"4. c #919AA9",
"5. c #9C9CA8",
"6. c #8099B6",
"7. c #879FBB",
"8. c #9C9CB3",
"9. c #9A9EBA",
"0. c #9EA0A2",
"q. c #9BA1A8",
"w. c #87A2BC",
"e. c #9EA7B2",
"r. c #9DA8B5",
"t. c #9FA5BF",
"y. c #9EADBC",
"u. c #A2A2A3",
"i. c #A3A5AD",
"p. c #A3A8AE",
"a. c #AAAAAB",
"s. c #A3ABB4",
"d. c #A1A1B9",
"f. c #A3AEBA",
"g. c #A9A9BD",
"h. c #A9B0B7",
"j. c #ACB2B9",
"k. c gray70",
"l. c #BEBEBE",
"z. c #8AA1C3",
"x. c #97AEC7",
"c. c #95A8C8",
"v. c #9BB3CE",
"b. c #80A7D1",
"n. c #85ABD4",
"m. c #8AACD1",
"M. c #8BB0D7",
"N. c #8FB3D9",
"B. c #97B5D5",
"V. c #99B4D0",
"C. c #91B5DB",
"Z. c #96B9DE",
"A. c #9DBADB",
"S. c #A6A9C1",
"D. c #AAAAC0",
"F. c #A4B4C5",
"G. c #A8B3C0",
"H. c #ADB9C5",
"J. c #ABB6C9",
"K. c #AEBCCA",
"L. c #B2B2C4",
"P. c #B5BBC2",
"I. c #BCBDC1",
"U. c #B8B9CA",
"Y. c #A7BDD6",
"T. c #A9BFD7",
"R. c #9CBDE1",
"E. c #BCC3CB",
"W. c #A3C0DE",
"Q. c #AAC1DC",
"!. c #B6C3D1",
"~. c #BEC3D4",
"^. c #B4C3DA",
"/. c #B7C8DF",
"(. c #BCCBD9",
"). c #A4C4E5",
"_. c #A8C7E7",
"`. c #ADCAE7",
"'. c #A9C7E8",
"]. c #ACC9E8",
"[. c #B3CCE6",
"{. c #BBCDE0",
"}. c #B3CFEB",
"|. c #BED0E1",
" X c #B6D1EE",
".X c #BAD3ED",
"XX c #B9D4F1",
"oX c #BED8F3",
"OX c #C3C3C4",
"+X c #C4C6C9",
"@X c #C5C9CE",
"#X c #CCCCCC",
"$X c #C2C3D2",
"%X c #C3CBD4",
"&X c #CACDD4",
"*X c #C4CDD9",
"=X c #CECED9",
"-X c #CCD0D5",
";X c #C5D1DD",
":X c #CCD4DC",
">X c #D3D3D3",
",X c #D7D7DD",
"<X c #D6D9DC",
"1X c #DCDCDC",
"2X c #C6D5E4",
"3X c #C3D7EC",
"4X c #C5D9EE",
"5X c #C9D9EB",
"6X c #DBDDE1",
"7X c #C3DBF4",
"8X c #CADEF2",
"9X c #DEE1E3",
"0X c #CDE1F6",
"qX c #CBE2FA",
"wX c #D1E3F6",
"eX c #DAE7F5",
"rX c #D5E7F9",
"tX c #D6E9FC",
"yX c #DCEDFD",
"uX c #E5E5E5",
"iX c #E5E7E9",
"pX c #E6E8EA",
"aX c #EBEBEB",
"sX c #EEEEF1",
"dX c #E0EFFE",
"fX c #EFF0F0",
"gX c #E1F0FF",
"hX c #F6F6F6",
"jX c #FCFCFC",
"kX c None",
/* pixels */
"kXkXkXkXkXkXkXkXkXkXkXkXkXkXkXkXkXkXkXkXkXkXkXkXkXkXkXkXkXkXkXkXkXkXkXkXkXkXkXkXkXkXkXkXkXkXkXkX",
"kXkXkXkXkXkXkXkXkXkXkXkXkXkXkXkXkXkXkXkXkXkXkXkXkXkXkXkXkXkXkXkXkXkXkXkXkXkXkXkXkXkXkXkXkXkXkXkX",
"kXkXkXkXkXkXkXkXkXkXkXkXkXkXkXkXkXkXkXkXkXkXkXkXkXkXkXkXkXkXkXkXkXkXkXkXkXkXkXkXkXkXkXkXkXkXkXkX",
"kXkXkXkXkXkXkX%.u.u.u.u.u.u.u.0.%.%.%.%.#...#....... . . . .t t t r r r e e e e e kXkXkXkXkXkXkX",
"kXkXkXkXkXkX%.aXjXjXjXjXjXjXjXjXhXjXhXjXhXjXjXhXjXjXhXjXhXjXhXhXjXhXjXhXhXhXjXhXaXw kXkXkXkXkXkX",
"kXkXkXkXkXkX%.hXuXuX1X1XuXuX1XuXuXiXuXuXuXuXuXuXuXuXuXaXiXiXuXiXuXuXuXuXuXuXuXuXhX2 kXkXkXkXkXkX",
"kXkXkXkXkXkX%.hXuX1X1X1XuX1X1XuX9XuX1XuXuX1XuXuXuXuXuXuXuXuXuXuXaXuXuXuXuXuXuXuXhX2 kXkXkXkXkXkX",
"kXkXkXkXkXkX%.hXuXuX1X1XuXuXuX1XuX9XuXuXuXuXuXuXuXuXuXuXuXuXuXuXuXuXuXuXuXuXuXaXjX2 kXkXkXkXkXkX",
"kXkXkXkXkXkX#.hXiX1XuX1XuX1XuXuXuX1XuXuXuXuXuXuXuXuXuXuXuXuXuXaXuXuXuXuXuXuXuXuXhX2 kXkXkXkXkXkX",
"kXkXkXkXkXkX#.hXiX9X9X1XaXuXuXuXl.l.l.l.l.l.l.l.l.l.l.l.l.l.l.l.l.l.l.l.uXaXuXaXjX2 kXkXkXkXkXkX",
"kXkXkXkXkXkX#.hXuX1XuX1XaX1XuXuXuXuX1XuXuXuXuXuXuXuXuXuXuXaXuXuXuXaXaXuXaXuXuXuXhX2 kXkXkXkXkXkX",
"kXkXkXkXkXkX#.hXuXuX1X1XaX1XuXuXl.l.l.l.l.l.l.l.l.l.l.l.l.l.l.l.l.l.l.l.uXaXaXaXhX2 kXkXkXkXkXkX",
"kXkXkXkXkXkX#.hXaXuXuX1XaXuXuXuX1XuXuXuXuXuXaXuXuXaXuXaXaXaXaXaXaXaXuXaXiXaXiXaXhX2 kXkXkXkXkXkX",
"kXkXkXkXkXkX#.hXuX1XuX1XaXuXuXuXl.l.l.l.l.l.l.l.l.l.l.l.l.l.l.l.l.l.l.l.aXiXaXaXjX2 kXkXkXkXkXkX",
"kXkXkXkXkXkX..hXaXuXuX1XaXuXuXuXuXuXaXuXuXaXaXaXaXaXaXaXaXaXaXaXaXaXaXaXaXaXaXaXhX2 kXkXkXkXkXkX",
"kXkXkXkXkXkX..hXuXuXuX1XaXuXuXuXl.l.l.l.l.l.l.l.l.l.l.l.l.l.l.l.l.l.l.l.aXaXaXaXhX2 kXkXkXkXkXkX",
"kXkXkXkXkXkX..hXaXuXuX1XaXuXuXaXaXaXuXaXaXaXaXaXaXaXaXaXaXaXaXaXaXaXaXaXaXaXaXsXhX2 kXkXkXkXkXkX",
"kXkXkXkXkXkX..hXuX>X1XuXaXaXuXuXl.l.l.l.l.l.l.l.l.l.l.1.M 0 6 4 5 9 l @.<XsXaXaXjX< kXkXkXkXkXkX",
"kXkXkXkXkXkX .jXaX#XuX1XaXuXuXaXuXaXaXaXaXaXaXaXuX;.: z ;.D.$X=XU.9.;.z ; x $XaXhX2 kXkXkXkXkXkX",
"kXkXkXkXkXkX .hXuXuXaXuXaXaXuXaXl.l.l.l.l.l.I.1.4 M 6XsXaXjXjXjX<X/.^.$XU.S 4 O.sX< kXkXkXkXkXkX",
"kXkXkXkXkXkX .hXaXuXuXuXaXuXaXaXaXaXaXaXaXaXO.4 %XhX6X|.2XsXjXsXs..X[.W.A.%XU.h f 1 kXkXkXkXkXkX",
"kXkXkXkXkXkX .hXaXuXuXuXfXuXaXuXl.l.l.l.l.x z hXpXH.&XP.eXjXj.(.*X/.[.[.iX@XiX&X@.; kXkXkXkXkXkX",
"kXkXkXkXkXkXt hXaXuXuXuXaXaXuXaXaXaXaXaXi.f hX=X.X9X&XyXdX+XrXwX5X4X{.E.1XF.hXsXaXm ; kXkXkXkXkX",
"kXkXkXkXkXkXt jXuXuXuXuXaXaXaXaXl.l.l.a.4 aXjX6X2XjXjX=XgXgXdXrX0X5XE.(.E.iXhXfXuXuXg ; kXkXkXkX",
"kXkXkXkXkXkXt hXuXuXaXuXaXaXaXaXaXsXsXz U.jXjXjXjXsXE.%XgXgXgXrXwX4X%XhXjXjXjXfXuX1X+X; kXkXkXkX",
"kXkXkXkXkXkXt hXaXaXuXuXaXaXaXaXl.l.2.9 hXjXjXjXjXI.;XyXgXgXgXyX0X5X9X#X1XsXjXfXiX<XuXm ; kXkXkX",
"kXkXkXkXkXkXr hXaXuXaXuXfXaXaXaXaXsXS L.jXjXjXjXj.yXgXgXgXgXgXrX0X%X+XQ.Q.j.f.aXiX1X>XOX; kXkXkX",
"kXkXkXkXkXkXr hXaXuXaXuXaXaXaXaXaXaX4 aXjXjXjXh.tXgXgXyXyXgXyXrX0X5XiXjX&XY.V.[ 1X1X#X1X5 kXkXkX",
"kXkXkXkXkXkXr hXaXuXaXuXfXaXaXsXaX@X6 jX<Xf.P.7XqXyXyXyXgXyXrXwX0XsXjXjXjXjXjXaX1X>Xi.#Xm ; kXkX",
"kXkXkXkXkXkXr hXaXl.>XuXaXaXaXaXl.1.S jXw.).`.XX7XqXtXyXrXtXwX8X:XjXjXjXjXjXjXaX:.>Xq.4.C ; kXkX",
"kXkXkXkXkXkXe hXaX1XfXuXfXaXaXaXsX9.S jXK.H._.}.XXoX7XqX0X0X7XoXiXjXjXjXjXjXhXaXs.k.OXo.S ; kXkX",
"kXkXkXkXkXkXe hXaXuXaXuXfXaXaXsXl.Z C $XE.9XC.].]. X X X X.X.X.XfXjXjXjXjXjXfXiX>X*.c G S ; kXkX",
"kXkXkXkXkXkXe hXaXaXaXuXaXaXaXsXsXg.h ~.n.c.H.sXiX&X'.'.'.).).R.J.jXjXjXjXhXaX1X>X+XU L C ; kXkX",
"kXkXkXkXkXkXw hXaXiXaXuXfXaXaXaXOX2.9 $Xb.n.A.jXjXjX&XA.R.R.Z.C.M.y.,./ -XaXuX1X#Xl.8 P x ; kXkX",
"kXkXkXkXkXkXw hXaXiXaXuXfXaXaXfXsX,X; L.m.} !.jXjXjXjX*XV.C.M.n.| } { ] j.aX1X>XOXv u *.f kXkXkX",
"kXkXkXkXkXkXw hXaXaXaXuXfXaXaXfXOXl.9 =.c.{ &XjXjXjXjXjXjXy.b.} { { ' _ 6.1X#X+Xl.8 k =.: kXkXkX",
"kXkXkXkXkXkXw hXaXaXaXuXfXfXaXfXfXfX5.g J.] 7.fXjXjXjXjXjX:.{ { ] ` W E ) -X+Xl.k.8 V x ; kXkXkX",
"kXkXkXkXkXkX2 hXaXaXaXuXfXaXaXaXl.OXl.4 3.z._ r.sXfXfXfXiX) ' ` _ W R Y Q +Xl.k.0.q &.4 kXkXkXkX",
"kXkXkXkXkXkX2 hXaXuXaXuXfXaXaXfXaXfXsX8.6 D.' E l.uXuXuXE.( W W R T K J G l.k.a.7 S z ; kXkXkXkX",
"kXkXkXkXkXkX2 hXaXaXaXuXfXaXfXaXsXsXsX6Xg z S.( e.-X>Xi.F T T K K J D s a 0.u.#.N C ; kXkXkXkXkX",
"kXkXkXkXkXkX< fXaXuXuXuXfXaXaXfXfXaXaX1Xl.4 C 9.<.+X+XI K J J D s s a p u I %.Z A : $ kXkXkXkXkX",
"kXkXkXkXkXkX< hXaXaXaXaXfXaXaXaXfXaXaX1XOX5.4 l l.#Xo.p s s s a a i i u y j S x : * kXkXkXkXkXkX",
"kXkXkXkXkXkX< fXaXuXaXuXfXaXfXaXsXsXsX1X#Xl.0.5 5 1.>.~ H p p i u u k B ! S f : U @ kXkXkXkXkXkX",
"kXkXkXkXkXkX< sXhXjXhXhXhXhXjXjXjXhXhXhXuX>Xl.a.b 3 6 M =.>.;.=.^ =.&.M 0 ; 0 $.k.% kXkXkXkXkXkX",
"kXkXkXkXkXkX, , , , , , , , , , , , , , , > > @ O O % = : 4 6 9 6 4 ; - * O O @ @ @ kXkXkXkXkXkX",
"kXkXkXkXkXkXkXkXkXkXkXkXkXkXkXkXkXkXkXkXkXkXkXkXkXkXkXkXkX. X # o X   kXkXkXkXkXkXkXkXkXkXkXkXkX",
"kXkXkXkXkXkXkXkXkXkXkXkXkXkXkXkXkXkXkXkXkXkXkXkXkXkXkXkXkXkXkXkXkXkXkXkXkXkXkXkXkXkXkXkXkXkXkXkX",
"kXkXkXkXkXkXkXkXkXkXkXkXkXkXkXkXkXkXkXkXkXkXkXkXkXkXkXkXkXkXkXkXkXkXkXkXkXkXkXkXkXkXkXkXkXkXkXkX"
};
