/* XPM */
static char *x_office_presentation[] = {
/* columns rows colors chars-per-pixel */
"48 48 134 2 ",
"   c #7E0404",
".  c #7E0C0C",
"X  c #6B1A23",
"o  c #621829",
"O  c #5C392B",
"+  c #744D03",
"@  c #5C7C05",
"#  c #3C3867",
"$  c #48355D",
"%  c #2F467E",
"&  c #555753",
"*  c #565955",
"=  c #585A56",
"-  c #5C5D5A",
";  c #6E5E5A",
":  c #5E605C",
">  c #61625F",
",  c #626460",
"<  c #676966",
"1  c #686A66",
"2  c #6B6D6A",
"3  c #727370",
"4  c #7C7D7B",
"5  c #8E0000",
"6  c #9D0000",
"7  c #AD0A0A",
"8  c #AC1414",
"9  c #A71A1A",
"0  c #9B3434",
"q  c #A62424",
"w  c #AB3030",
"e  c #A33C3C",
"r  c #B33A3A",
"t  c #BC3C3C",
"y  c #C32424",
"u  c #C32929",
"i  c #D22D2D",
"p  c #DF2A2A",
"a  c #E33434",
"s  c #E63B3B",
"d  c #E83E3E",
"f  c #AA7834",
"g  c #844545",
"h  c #8F4141",
"j  c #884F4F",
"k  c #9C4444",
"l  c #8A5151",
"z  c #965656",
"x  c #955858",
"c  c #9D5C5C",
"v  c #BF4242",
"b  c #A05555",
"n  c #9F6F6F",
"m  c #9E7C7C",
"M  c #A56666",
"N  c #A46D6D",
"B  c #D74B4B",
"V  c #EA4343",
"C  c #E54848",
"Z  c #EE4B4B",
"A  c #F04F4F",
"S  c #E75B5B",
"D  c #F25454",
"F  c #F55C5C",
"G  c #D46C4F",
"H  c #DF6A56",
"J  c #DA6262",
"K  c #EE6464",
"L  c #EA6B6B",
"P  c #FA6464",
"I  c #F36A6A",
"U  c #FC6C6C",
"Y  c #EC7474",
"T  c #FF7474",
"R  c #558D06",
"E  c #74867D",
"W  c #7F807E",
"Q  c #8FA52D",
"!  c #93B639",
"~  c #8CDA3F",
"^  c #97BD44",
"/  c #ABB966",
"(  c #C69F5D",
")  c #8FDD43",
"_  c #96DE4F",
"`  c #A1D052",
"'  c #3E6EAC",
"]  c #5E5E8B",
"[  c #69628B",
"{  c #5D71A1",
"}  c #4273B2",
"|  c #4977B3",
" . c #4778B7",
".. c #4A7ABA",
"X. c #517BB1",
"o. c #6B78A3",
"O. c #4F80BF",
"+. c #5F86B9",
"@. c #7E90AD",
"#. c #7593BF",
"$. c #5384C3",
"%. c #5788C7",
"&. c #7197C4",
"*. c #828381",
"=. c #888A85",
"-. c #8B8C8B",
";. c #90918F",
":. c #949494",
">. c #9D9D9D",
",. c #A18181",
"<. c #AB8181",
"1. c #B49E9E",
"2. c gray64",
"3. c #BFACAC",
"4. c #B5B5B5",
"5. c #BFB5B5",
"6. c #BBBBBB",
"7. c #FC8484",
"8. c #C1A5A5",
"9. c #CAB3B3",
"0. c #C8BFBF",
"q. c #C3C2C2",
"w. c #CEC6C6",
"e. c #CDCDCC",
"r. c #D2C3C3",
"t. c #D4D4D4",
"y. c #DAD3D3",
"u. c #DCDBDB",
"i. c #E0DEDE",
"p. c #E5E5E5",
"a. c #ECECEC",
"s. c #F3F3F3",
"d. c #FEFEFE",
"f. c None",
/* pixels */
"f.f.f.f.f.f.f.f.f.f.f.f.f.f.f.f.f.f.f.f.f.f.f.f.f.f.f.f.f.f.f.f.f.f.f.f.f.f.f.f.f.f.f.f.f.f.f.f.",
"f.f.f.f.f.f.- & * * * & & & & & & & & & * * * * & & & & & & & & & & & & & & & & & & & & - f.f.f.",
"f.f.f.f.f.: e.p.a.p.p.p.p.p.p.a.p.p.p.p.p.p.p.p.p.a.p.a.p.p.p.p.p.a.p.p.p.a.p.a.p.p.p.p.e.> f.f.",
"f.f.f.f.f.3 6.6.6.6.6.6.6.q.6.6.6.6.q.6.6.6.q.6.6.6.6.6.6.q.6.6.6.6.q.6.6.6.6.6.6.q.6.6.6.4 f.f.",
"f.f.f.f.f.= -.:.:.:.:.:.:.:.:.:.:.:.:.:.:.:.:.:.:.:.;.;.:.:.:.:.:.:.:.:.:.:.:.:.:.:.;.:.-.= f.f.",
"f.f.f.f.f.f.* * * * * * & & & & * = & & & & & & & & & & = * & * & & & & & & & & * = & & * f.f.f.",
"f.f.f.f.f.f.f.=.q.6.6.q.q.e.e.t.t.t.u.u.u.u.p.i.p.p.p.p.p.p.p.p.p.p.p.p.p.p.p.p.p.a.p.=.f.f.f.f.",
"f.f.f.f.f.f.f.=.e.t.i.i.i.p.i.p.p.i.u.y.y.u.p.p.p.p.p.p.p.p.p.p.p.a.p.p.p.a.a.p.a.p.a.=.f.f.f.f.",
"f.f.f.f.f.f.f.=.p.p.u.p.u.p.u.r.M e r v t w 0 M r.p.p.p.p.p.p.a.p.p.p.p.p.p.p.p.p.p.a.=.f.f.f.f.",
"f.f.f.f.f.f.f.=.p.p.p.i.p.u.M v U T U P F F D C q N p.p.p.p.p.4.4.4.4.4.4.4.4.4.a.a.a.=.f.f.f.f.",
"f.f.f.f.f.f.f.=.p.p.i.p.p.b L T U P P F D D Z V d u c p.p.p.p.p.p.p.a.p.p.p.a.a.a.a.a.=.f.f.f.f.",
"f.f.f.f.f.f.f.=.a.i.p.i.3.J T U P F D A Z Z V a a a 9 9.p.a.p.4.4.4.4.4.4.4.4.4.a.a.s.=.f.f.f.f.",
"f.f.f.f.f.f.f.=.a.p.p.p.M 7.P F F A A Z V d a a p p i N a.a.p.a.p.a.a.a.a.a.a.a.p.a.s.=.f.f.f.f.",
"f.f.f.f.f.f.f.=.a.p.p.p.k 7.F D A Z V H @.%.$. .' ' { z a.p.a.4.4.4.4.4.4.4.4.6.a.a.s.=.f.f.f.f.",
"f.f.f.f.f.f.f.=.a.p.p.p.h L I Z V d s ( / $...} ' X.] x a.a.p.a.a.a.a.a.a.a.a.a.a.a.s.=.f.f.f.f.",
"f.f.f.f.f.f.f.=.s.p.p.p.n 8 Y K C a a ` ) E  . .+.o.$ <.a.a.a.4.4.4.4.4.4.4.4.4.s.a.s.=.f.f.f.f.",
"f.f.f.f.f.f.f.=.s.p.p.a.w.. 7 B L S G _ ) ^ &.&.[ % X u.a.a.a.a.a.a.a.a.a.a.s.a.a.s.s.=.f.f.f.f.",
"f.f.f.f.f.f.f.=.s.p.p.p.p.1.. 6 7 y f ! ! Q ; % # X 8.a.a.a.a.4.4.4.6.6.6.a.a.a.s.a.d.=.f.f.f.f.",
"f.f.f.f.f.f.f.=.s.a.a.p.p.p.5.g   5 + R R @ O o j 0.a.a.a.a.a.s.a.s.a.s.s.a.s.s.a.s.s.=.f.f.f.f.",
"f.f.f.f.f.f.f.=.s.a.p.a.p.a.p.t.5.m j g g l ,.q.u.a.a.a.a.s.a.a.a.s.a.a.a.s.a.s.s.a.d.=.f.f.f.f.",
"f.f.f.f.f.f.f.=.d.a.p.a.a.a.a.a.a.u.u.t.t.t.p.a.a.s.s.a.s.a.a.s.s.a.s.a.s.a.s.s.s.s.s.=.f.f.f.f.",
"f.f.f.f.f.f.f.=.s.a.a.a.a.a.a.a.a.a.a.a.a.a.a.a.a.a.a.a.a.s.s.a.a.a.s.s.s.s.s.s.s.s.d.=.f.f.f.f.",
"f.f.f.f.f.f.f.=.d.p.a.4.4.4.4.4.4.4.4.4.6.4.4.6.6.6.4.6.6.4.6.6.6.6.s.a.s.s.s.s.s.s.d.=.f.f.f.f.",
"f.f.f.f.f.f.f.*.d.a.a.a.a.a.a.a.a.s.a.s.a.s.s.a.s.a.s.a.s.s.s.a.s.s.s.s.s.s.s.s.s.s.d.*.f.f.f.f.",
"f.f.f.f.f.f.f.=.d.a.a.6.4.6.4.6.6.6.6.6.4.6.6.6.6.6.6.4.6.6.6.6.6.6.s.s.s.s.s.s.s.s.d.=.f.f.f.f.",
"f.f.f.f.f.f.f.=.d.a.a.a.a.a.s.a.a.a.a.a.s.s.a.a.s.a.s.s.s.s.s.s.s.s.d.s.s.s.s.s.s.s.d.=.f.f.f.f.",
"f.f.f.f.f.f.f.=.d.a.a.6.6.6.6.4.6.6.6.6.6.4.6.6.6.6.6.6.q.6.6.6.6.6.s.s.s.s.s.d.d.s.d.=.f.f.f.f.",
"f.f.f.f.f.f.f.=.d.s.a.a.a.s.a.s.s.a.a.s.s.s.s.s.s.s.s.s.s.s.s.s.s.s.d.s.d.s.s.s.s.s.d.-.f.f.f.f.",
"f.f.f.f.f.f.f.=.d.a.s.6.6.6.6.6.6.4.6.6.6.6.6.6.6.6.6.s.s.s.s.d.s.s.s.s.s.d.s.s.s.s.d.=.f.f.f.f.",
"f.f.f.f.f.f.f.=.d.s.a.s.a.s.a.s.s.s.s.s.s.s.s.d.s.s.s.d.s.s.s.s.s.d.d.s.s.s.s.d.s.d.d.=.f.f.f.f.",
"f.f.f.f.f.f.f.=.d.s.s.s.s.s.s.s.s.s.s.s.s.s.s.s.d.s.s.s.s.s.s.s.s.s.s.s.s.s.s.s.s.s.d.=.f.f.f.f.",
"f.f.f.f.f.f.f.=.d.d.d.d.d.d.d.d.d.d.d.d.d.d.d.d.d.d.d.d.d.d.d.d.d.d.d.d.d.d.d.d.d.d.d.=.f.f.f.f.",
"f.f.f.f.f.f.f.=.=.=.=.=.=.=.=.=.=.=.=.=.=.=.=.=.=.=.=.=.=.=.=.=.=.=.=.=.=.=.=.=.=.=.=.-.f.f.f.f.",
"f.f.f.f.f.f.f.f.f.f.f.f.f.f.f.f.f.f.f.f.f.f.f.f.* -.* f.f.f.f.f.f.f.f.f.f.f.f.f.f.f.f.f.f.f.f.f.",
"f.f.f.f.f.f.f.f.f.f.f.f.f.f.f.f.f.f.f.f.f.f.f.f.= 3 = f.f.f.f.f.f.f.f.f.f.f.f.f.f.f.f.f.f.f.f.f.",
"f.f.f.f.f.f.f.f.f.f.f.f.f.f.f.f.f.f.f.f.f.f.f.= t.e.;.= f.f.f.f.f.f.f.f.f.f.f.f.f.f.f.f.f.f.f.f.",
"f.f.f.f.f.f.f.f.f.f.f.f.f.f.f.f.f.f.f.f.f.f.f.1 0.4.;., f.f.f.f.f.f.f.f.f.f.f.f.f.f.f.f.f.f.f.f.",
"f.f.f.f.f.f.f.f.f.f.f.f.f.f.f.f.f.f.f.f.f.f.f.= -.-.4 = f.f.f.f.f.f.f.f.f.f.f.f.f.f.f.f.f.f.f.f.",
"f.f.f.f.f.f.f.f.f.f.f.f.f.f.f.f.f.f.f.f.f.f.- 3 * : * 3 - f.f.f.f.f.f.f.f.f.f.f.f.f.f.f.f.f.f.f.",
"f.f.f.f.f.f.f.f.f.f.f.f.f.f.f.f.f.f.f.f.* 1 ;.> f.f.f., :.1 * f.f.f.f.f.f.f.f.f.f.f.f.f.f.f.f.f.",
"f.f.f.f.f.f.f.f.f.f.f.f.f.f.f.f.f.f.f.* 4 :.: f.f.f.f.f.: :.4 & f.f.f.f.f.f.f.f.f.f.f.f.f.f.f.f.",
"f.f.f.f.f.f.f.f.f.f.f.f.f.f.f.f.f.f.: ;.;.- f.f.f.f.f.f.f.= ;.;.- f.f.f.f.f.f.f.f.f.f.f.f.f.f.f.",
"f.f.f.f.f.f.f.f.f.f.f.f.f.f.f.f.& 2 >.-.* f.f.f.f.f.f.f.f.f.* -.>.2 & f.f.f.f.f.f.f.f.f.f.f.f.f.",
"f.f.f.f.f.f.f.f.f.f.f.f.f.f.f.= *.2.4 * f.f.f.f.f.f.f.f.f.f.f.= W 2.*.= f.f.f.f.f.f.f.f.f.f.f.f.",
"f.f.f.f.f.f.f.f.f.f.f.f.f.f.& - 2 1 & f.f.f.f.f.f.f.f.f.f.f.f.f.* 1 2 = & f.f.f.f.f.f.f.f.f.f.f.",
"f.f.f.f.f.f.f.f.f.f.f.f.f.f.f.f.f.f.f.f.f.f.f.f.f.f.f.f.f.f.f.f.f.f.f.f.f.f.f.f.f.f.f.f.f.f.f.f.",
"f.f.f.f.f.f.f.f.f.f.f.f.f.f.f.f.f.f.f.f.f.f.f.f.f.f.f.f.f.f.f.f.f.f.f.f.f.f.f.f.f.f.f.f.f.f.f.f.",
"f.f.f.f.f.f.f.f.f.f.f.f.f.f.f.f.f.f.f.f.f.f.f.f.f.f.f.f.f.f.f.f.f.f.f.f.f.f.f.f.f.f.f.f.f.f.f.f."
};
