/* XPM */
static char *sd[] = {
/* columns rows colors chars-per-pixel */
"48 48 208 2 ",
"   c #2A2F31",
".  c #2C3233",
"X  c #303637",
"o  c #393A34",
"O  c #323738",
"+  c #353B3C",
"@  c #383D3E",
"#  c #3F4137",
"$  c #3D403D",
"%  c #7D520C",
"&  c #734E11",
"*  c #47462F",
"=  c #48472E",
"-  c #4C492B",
";  c #565127",
":  c #585226",
">  c #434332",
",  c #40423F",
"<  c #3C4041",
"1  c #444643",
"2  c #474845",
"3  c #484A46",
"4  c #454A49",
"5  c #4B4D4A",
"6  c #4E504E",
"7  c #50524F",
"8  c #4E5251",
"9  c #525452",
"0  c #565855",
"q  c #595A57",
"w  c #5B5D5A",
"e  c #5E605E",
"r  c #60625F",
"t  c #5F6260",
"y  c #636562",
"u  c #676966",
"i  c #686967",
"p  c #696B68",
"a  c #845406",
"s  c #8F5800",
"d  c #905900",
"f  c #825813",
"g  c #885D16",
"h  c #99630B",
"j  c #956311",
"k  c #9F6E1E",
"l  c #8D7914",
"z  c #947E12",
"x  c #A06E1E",
"c  c #A0870E",
"v  c #A98E0F",
"b  c #A28810",
"n  c #A98E12",
"m  c #AB9115",
"M  c #B29615",
"N  c #B59915",
"B  c #B99D17",
"V  c #B69B18",
"C  c #B89D18",
"Z  c #CCB80F",
"A  c #D0BC0F",
"S  c #C2A61D",
"D  c #C8B514",
"F  c #CAB71D",
"G  c #CCB91B",
"H  c #D0BD1F",
"J  c #C2A622",
"K  c #C4A822",
"L  c #CCBA23",
"P  c #CEBD28",
"I  c #D0BE22",
"U  c #D0BF29",
"Y  c #CFBE30",
"T  c #D7BE39",
"R  c #DFC914",
"E  c #D6C21B",
"W  c #D9C51C",
"Q  c #E4CE14",
"!  c #E0CC1F",
"~  c #E5D01F",
"^  c #EBD51D",
"/  c #EFD91D",
"(  c #D5C223",
")  c #D8C421",
"_  c #DCC820",
"`  c #D3C22C",
"'  c #D8C62C",
"]  c #DDCA2A",
"[  c #D5C434",
"{  c #D8C731",
"}  c #DDCB34",
"|  c #D6C63F",
" . c #DBCB3E",
".. c #E1CD23",
"X. c #E5D126",
"o. c #EAD525",
"O. c #EED925",
"+. c #E6D32C",
"@. c #F0DA24",
"#. c #E0CD33",
"$. c #E1CF39",
"%. c #E4D235",
"&. c #ECD936",
"*. c #E6D43D",
"=. c #EAD73B",
"-. c #EBD83A",
";. c #D19E4E",
":. c #D9A758",
">. c #DAA859",
",. c #E1B36C",
"<. c #EABD77",
"1. c #EBBE78",
"2. c #DCCC42",
"3. c #DAC54C",
"4. c #D7C84B",
"5. c #D9CA4A",
"6. c #DACC50",
"7. c #DACD5B",
"8. c #DED05D",
"9. c #E4CC41",
"0. c #E2D143",
"q. c #E9D743",
"w. c #ECDA42",
"e. c #E4D44B",
"r. c #EDDC4D",
"t. c #F1DF47",
"y. c #F0DF4C",
"u. c #E4D554",
"i. c #EBDB53",
"p. c #E2D45A",
"a. c #E7D85C",
"s. c #EBDC5A",
"d. c #F0DF50",
"f. c #F2E046",
"g. c #F8E546",
"h. c #F3E14A",
"j. c #F8E64E",
"k. c #FEEB49",
"l. c #F2E156",
"z. c #FFED53",
"x. c #F3E35B",
"c. c #FBEB5E",
"v. c #DBCE61",
"b. c #DDCF68",
"n. c #DFD163",
"m. c #DDD16B",
"M. c #DFD475",
"N. c #DFD579",
"B. c #E3D565",
"V. c #E5D867",
"C. c #EBDC65",
"Z. c #E2D36A",
"A. c #E6D968",
"S. c #EADC6A",
"D. c #F0DF65",
"F. c #E3D671",
"G. c #E6D973",
"H. c #EADD74",
"J. c #E6DA7A",
"K. c #EBDE78",
"L. c #EDE06E",
"P. c #F3E466",
"I. c #FEEE62",
"U. c #F2E46C",
"Y. c #F7E86D",
"T. c #FCED6B",
"R. c #FFF065",
"E. c #FFF069",
"W. c #EEE172",
"Q. c #EEE27A",
"!. c #F2E573",
"~. c #F7EA77",
"^. c #F4E57C",
"/. c #FCEE7C",
"(. c #FFF27E",
"). c #B2B3AE",
"_. c #C5BCAD",
"`. c #E9DD83",
"'. c #E5DA8A",
"]. c #EADE89",
"[. c #E6DC90",
"{. c #EEE189",
"}. c #F3E786",
"|. c #F5E883",
" X c #F9EB83",
".X c #F2E58B",
"XX c #F5EA8D",
"oX c #F9EE88",
"OX c #FFF280",
"+X c #FFF38C",
"@X c #F6E891",
"#X c #F9EE91",
"$X c #FDF294",
"%X c #FFF69A",
"&X c #C2C3BD",
"*X c #D9CFBD",
"=X c #DBD1BF",
"-X c #CCCDCA",
";X c #CFD0CE",
":X c #DDD2C0",
">X c #D3D4D3",
",X c #E8DFCE",
"<X c #EAE1D1",
"1X c #E2E2DF",
"2X c #E6E6E3",
"3X c #E8E9E7",
"4X c #EAEAE9",
"5X c None",
/* pixels */
"5X5X5X5X5X5X5X5X5X5X5X5X5X5X5X5X5X5X5X5X5X5X5X5X5X5X5X5X5X5X5X5X5X5X5X5X5X5X5X5X5X5X5X5X5X5X5X5X",
"5X5X5X5X5X5X+ @ @ @ @ @ @ @ @ @ @ @ @ @ @ @ @ @ @ @ @ @ @ @ @ @ @ @ @ @ < @ 5X5X5X5X5X5X5X5X5X5X",
"5X5X5X5X5X+ w p u u i u u u p u i i i i u u u u u i u p i u i i u u u u p y @ 5X5X5X5X5X5X5X5X5X",
"5X5X5X5X5X@ p w q w q 0 0 0 0 0 0 0 0 0 0 0 0 0 0 0 0 0 0 0 0 0 0 0 0 0 q u y + 5X5X5X5X5X5X5X5X",
"5X5X5X5X5X@ i q 0 4 $ # # # > , # # , # # # # # # # # # # # # # o > # @ < 3 y t @ 5X5X5X5X5X5X5X",
"5X5X5X5X5X@ u w 4 = l m m m m m m m m m m m m m m m m m m m m m m m m m l * 4 u w O 5X5X5X5X5X5X",
"5X5X5X5X5X@ u 0 # z 9.@X^.@X^.@X^.@X^.@X^.#X^.@X^..X^..XK.{.H.].F.].Z.`.T z @ 0 u @ 5X5X5X5X5X5X",
"5X5X5X5X5X@ u 9 > N  X%XR.+XR.+XR.+XR.+XR.+XI.+Xc.oXx.|.i.^.e.K.e.G.2.`.m.M > 9 y @ 5X5X5X5X5X5X",
"5X5X5X5X5X@ u 9 > C  X+Xz.(.z.(.z.(.z.(.z./.j.~.t.W.q.S.*.S.} V.' n.P m.m.M > 9 y @ 5X5X5X5X5X5X",
"5X5X5X5X5X@ u 9 > C  X+Xz.(.z.OXz.(.z./.j.~.f.!.w.S.*.S.} V.' B.` 7.L b.m.M > 8 y @ 5X5X5X5X5X5X",
"5X5X5X5X5X@ y 9 > C  X+Xz.E.k.I.k.c.g.Y.t.!.w.L.*.S.$.B.{ n.U 7.L 7.F b.Z.V > 6 y @ 5X5X5X5X5X5X",
"5X5X5X5X5X@ u 9 > C  X+Xz.I.T.T.T.P.l.r.&.q.%.a.$.V.{ B.` v.L 7.L 7.I B.B.M > 6 y + 5X5X5X5X5X5X",
"5X5X5X5X5X@ y 6 > C  X$X+X$X+X#XXXXXXX}.Q.C.e.{ ) [ I 4.L 7.L 7.I 8.( V.Z.M > 6 t + 5X5X5X5X5X5X",
"5X5X5X5X5X@ y 6 > C /.$XoXY.x.l.y.i.i.A.K.K.`.J.B.4.Y F D G Z I A ) E A.A.M > 6 t + 5X5X5X5X5X5X",
"5X5X5X5X5X@ y 6 > B  XoXh.h.&.i.%.e.] ] ( [ 4.v.M.N.M.m.8.6.2. . .0.a.H.S.N > 6 t + 5X5X5X5X5X5X",
"5X5X5X5X5X@ y 6 > B ^.|.w.W.*.S.$.A.{ 8.P 2.D D F [ 6.B.F.G.J.J.Q.H.L.H.C.N > 6 e @ 5X5X5X5X5X5X",
"5X5X5X5X5X+ y 6 > C Q.^.q.S.$.A.} B.` 8.P 7.L 4.G ` A E ) ] #.%.%.+.+.L.D.N > 5 w + 5X5X5X5X5X5X",
"5X5X5X5X5X@ t 5 > V K.Q.%.A.{ n.' v.P 7.F 7.I 7.E p.E u.W 0.R %.Q =.^ P.D.N > 5 e + 5X5X5X5X5X5X",
"5X5X5X5X5X@ e 6 > C H.G.} B.` v.L 7.L 7.I 7.( 8.( p._ a._ s.X.i.o.d./ P.D.N > 5 w @ 5X5X5X5X5X5X",
"5X5X5X5X5X+ e 6 > V G.F.' 7.P 7.L 7.L 7.( 8.E u._ u._ i.~ i.^ l./ l./ P.D.N > 5 w + 5X5X5X5X5X5X",
"5X5X5X5X5X@ w 5 > C F.F.Y v.P v.P 8.` 8.] p.] a.] s.X.s.o.x.O.x.@.x.@.Y.D.N > 3 w @ 5X5X5X5X5X5X",
"5X5X5X5X5X+ e 6 o b 3.[.m.'.m.'.m.'.Z.].V.{.A.{.S.{.P.}.P.XXP.}.P.}.D.XX*.b @ 5 q + 5X5X5X5X5X5X",
"5X5X5X5X5X@ w 7 < : n J S J J J S K S K S K S K S K S K S K S K S K S J v ; $ 6 w + 5X5X5X5X5X5X",
"5X5X5X5X5X@ w 7 3 @ # - - - - - - - - - - - - - - - - - - - - - - - - - > @ 5 5 q + 5X5X5X5X5X5X",
"5X5X5X5X5X+ w 6 5 3 3 3 1 1 1 1 1 4 1 1 1 2 1 1 2 1 4 1 1 1 1 1 1 1 1 1 1 3 3 5 0 + 5X5X5X5X5X5X",
"5X5X5X5X5X+ q 6 3 5 5 3 5 3 5 5 3 3 3 5 3 3 3 3 3 3 3 3 4 3 3 4 3 3 3 3 3 3 3 5 0 + 5X5X5X5X5X5X",
"5X5X5X5X5X+ q 6 3 3 3 3 3 3 3 3 3 3 3 3 3 3 3 3 3 3 3 3 2 3 4 3 3 3 2 3 3 3 3 5 0 + 5X5X5X5X5X5X",
"5X5X5X5X5X+ q 5 3 3 3 3 3 3 3 3 3 3 3 3 3 3 3 3 3 3 2 3 3 3 3 3 2 3 2 2 3 3 1 3 0 + 5X5X5X5X5X5X",
"5X5X5X5X5X+ q 5 3 3 3 3 3 3 3 3 3 3 3 3 3 2 3 2 2 2 2 2 2 2 2 2 2 2 2 2 1 3 3 3 9 O 5X5X5X5X5X5X",
"5X5X5X5X5X+ q 3 2 3 2 2 2 2 2 3 3 4 3 1 2 2 2 2 2 2 2 2 2 2 2 2 2 2 2 2 2 3 1 3 0 + 5X5X5X5X5X5X",
"5X5X5X5X5X+ 0 3 2 2 2 2 2 2 2 2 2 3 1 3 2 2 2 2 2 2 2 2 2 2 1 2 2 2 2 1 1 2 1 3 9 + 5X5X5X5X5X5X",
"5X5X5X5X5X+ 0 5 2 2 2 1 2 2 2 2 1 1 3 1 2 2 , 2 1 2 2 1 1 1 2 1 , 2 1 2 1 1 1 2 9 + 5X5X5X5X5X5X",
"5X5X5X5X5X+ 9 3 1 2 1 2 2 2 2 2 1 2 1 2 1 2 1 1 2 2 1 2 1 2 1 2 2 2 , 2 1 1 , 2 7 o 5X5X5X5X5X5X",
"5X5X5X5X5X+ 0 3 1 1 1 1 1 1 1 1 1 1 1 1 1 1 1 1 , 2 2 , 1 1 1 , , 2 2 , 1 1 2 2 7 + 5X5X5X5X5X5X",
"5X5X5X5X5X+ 9 2 1 1 1 1 1 1 , 1 < 1 1 1 1 , 1 1 1 1 , , 1 @ 1 1 1 , , 2 1 , , 2 7 + 5X5X5X5X5X5X",
"5X5X5X5X5X+ 9 1 + o o o o o o o o o o o o o o o o o o o o o o o o o o o o o + 1 7 O 5X5X5X5X5X5X",
"5X5X5X5X5X+ 9 1 o & a f f f f f f f f f f % % f f f f % % % % % a % % % % & o , 6 + 5X5X5X5X5X5X",
"5X5X5X5X5X+ 6 1 o a h ;.:.:.:.:.:.:.:.:.;.h h ;.>.>.;.h d d d d d d d d d a o , 5 + 5X5X5X5X5X5X",
"5X5X5X5X5XO 9 1 o g x ,.<.<.<.<.1.<.1.1.,.x x ,.<.<.,.x j j j j j j j j j g o 1 6 O 5X5X5X5X5X5X",
"5X5X5X5X5X+ 6 1 1 _.=X,X<X<X<X<X<X<X<X<X<X:X=X,X<X<X,X=X*X*X*X*X*X*X*X*X*X_.3 , 5 O 5X5X5X5X5X5X",
"5X5X5X5X5XO 6 , 3 >X4X3X3X3X3X3X3X3X3X3X3X3X4X3X3X3X3X3X4X4X4X4X4X4X4X3X4X>X4 , 5 + 5X5X5X5X5X5X",
"5X5X5X5X5XO 6 1 5 ;X2X2X2X2X2X2X2X2X2X2X2X2X2X2X2X2X2X2X2X2X2X2X2X2X2X2X3X;X4 , 5 O 5X5X5X5X5X5X",
"5X5X5X5X5XO 6 < 4 -X2X1X1X1X2X1X1X1X1X1X1X1X1X1X1X1X1X1X1X1X1X1X1X1X1X1X2X-X4 @ 3 O 5X5X5X5X5X5X",
"5X5X5X5X5XO 5 1 4 -X2X2X1X1X1X1X1X1X1X1X1X1X1X1X1X1X1X1X1X1X1X1X1X1X1X1X2X-X5 @ 3 X 5X5X5X5X5X5X",
"5X5X5X5X5X. 1 4 8 ).&X-X&X&X&X&X&X&X&X&X&X&X&X&X&X&X&X&X&X&X&X&X&X&X&X&X-X).5 4 1   5X5X5X5X5X5X",
"5X5X5X5X5X5X. O + < 1 4 1 4 1 4 4 4 4 4 4 4 4 4 4 4 4 1 4 4 4 4 4 1 4 4 4 1 O O . 5X5X5X5X5X5X5X",
"5X5X5X5X5X5X5X5X5X5X5X5X5X5X5X5X5X5X5X5X5X5X5X5X5X5X5X5X5X5X5X5X5X5X5X5X5X5X5X5X5X5X5X5X5X5X5X5X",
"5X5X5X5X5X5X5X5X5X5X5X5X5X5X5X5X5X5X5X5X5X5X5X5X5X5X5X5X5X5X5X5X5X5X5X5X5X5X5X5X5X5X5X5X5X5X5X5X"
};
