/* XPM */
static char *preferences_system[] = {
/* columns rows colors chars-per-pixel */
"48 48 142 2 ",
"   c #1B3969",
".  c #82837F",
"X  c #214B86",
"o  c #234D89",
"O  c #27508B",
"+  c #2B538E",
"@  c #375986",
"#  c #385984",
"$  c #3A5D8C",
"%  c #2A5490",
"&  c #315B95",
"*  c #385F92",
"=  c #3B6193",
"-  c #3B649A",
";  c #3D689E",
":  c #3B67A1",
">  c #3E6AA3",
",  c #3B6BAA",
"<  c #5E728A",
"1  c #426A9F",
"2  c #687B97",
"3  c #426BA3",
"4  c #426FA9",
"5  c #4C71A5",
"6  c #4672AC",
"7  c #4B74AB",
"8  c #5075A7",
"9  c #5177AC",
"0  c #537AAE",
"q  c #4B77B0",
"w  c #4D7AB4",
"e  c #537DB3",
"r  c #587FB3",
"t  c #5780B6",
"y  c #5D83B6",
"u  c #5681B9",
"i  c #5B85BB",
"p  c #7C90AC",
"a  c #6185B6",
"s  c #698CB7",
"d  c #648ABD",
"f  c #6A8EBC",
"g  c #6F91BC",
"h  c #5F8AC0",
"j  c #618BC1",
"k  c #688EC0",
"l  c #6C92C3",
"z  c #7197C6",
"x  c #7A9BC7",
"c  c #769AC9",
"v  c #7A9ECB",
"b  c #7BA0CD",
"n  c #8A8C86",
"m  c #81888A",
"M  c #8C8E8A",
"N  c #8E908C",
"B  c #91938E",
"V  c #888F9E",
"C  c #87909D",
"Z  c #89919E",
"A  c #949692",
"S  c #969994",
"D  c #999B96",
"F  c #9C9D9A",
"G  c #A1A39F",
"H  c #8A92A1",
"J  c #939BA6",
"K  c #949CA9",
"L  c #8D9EB8",
"P  c #9BA3AE",
"I  c #9EA6B2",
"U  c #A2A4A1",
"Y  c #A9AAA6",
"T  c #A0A5AF",
"R  c #ADAEAC",
"E  c #AEB1AD",
"W  c #B1B1AE",
"Q  c #A4AAB4",
"!  c #A3AEBB",
"~  c #A9AFB9",
"^  c #ADB3BB",
"/  c #B4B4B3",
"(  c #B8B9B7",
")  c #B1B7BF",
"_  c #B3B8BF",
"`  c #BBBBBA",
"'  c #BFC0BE",
"]  c #C1C2BF",
"[  c #83A5D1",
"{  c #8BAAD2",
"}  c #90ACD1",
"|  c #94B2D7",
" . c #9CB6D7",
".. c #9DB7D8",
"X. c #9EB8D9",
"o. c #A7B3C0",
"O. c #ABB5C2",
"+. c #AEB8C3",
"@. c #B4BBC3",
"#. c #BABFC7",
"$. c #B3BECA",
"%. c #A3BAD9",
"&. c #BBC0C6",
"*. c #B5C1CE",
"=. c #BAC2C9",
"-. c #AAC0DC",
";. c #BBC6D2",
":. c #BCC8D4",
">. c #BFCBD8",
",. c #ACC3E0",
"<. c #B1C6E1",
"1. c #B7CAE2",
"2. c #BECEE4",
"3. c #C3C3C2",
"4. c #C2C7CC",
"5. c #C5CACF",
"6. c #CCCCCC",
"7. c #C5CBD1",
"8. c #C9CDD2",
"9. c #C2CEDA",
"0. c #C3D0DD",
"q. c #C9D4DD",
"w. c #D4D4D4",
"e. c #D7D8D6",
"r. c #D8D8D7",
"t. c #DCDCDC",
"y. c #DFE0DF",
"u. c #E0E0DF",
"i. c #CBD6E1",
"p. c #C6D5E9",
"a. c #CDDAEB",
"s. c #DFDFE0",
"d. c #D1DDEC",
"f. c #DAE4F1",
"g. c #DFE8F2",
"h. c #E4E4E4",
"j. c #E7E8E7",
"k. c #EBEBEB",
"l. c #EFF0EF",
"z. c #F3F3F3",
"x. c #F9F9F9",
"c. c None",
/* pixels */
"c.c.c.c.c.c.c.c.c.c.c.c.c.c.c.c.c.c.c.c.c.c.c.c.c.c.c.c.c.c.c.c.c.c.c.c.c.c.c.c.c.c.c.c.c.c.c.c.",
"c.c.c.c.c.c.c.c.c.c.c.c.c.c.c.c.c.c.c.c.c.c.c.c.c.c.c.c.c.c.c.c.c.c.c.c.c.c.c.c.c.c.c.c.c.c.c.c.",
"c.c.c.c.c.c.c.c.c.c.c.c.c.c.c.c.c.c.c.c.c.c.c.c.c.c.c.c.c.c.c.c.c.c.c.c.c.c.c.c.c.c.c.c.c.c.c.c.",
"c.c.c.c.c.c.c.c.c.c.c.c.c.c.c.c.c.c.c.c.c.c.c.c.c.c.c.c.c.c.c.c.c.c.c.c.c.c.c.c.c.c.c.c.c.c.c.c.",
"c.c.c.c.c.c.c.c.c.c.c.c.c.c.c.c.c.c.c.c.c.c.c.c.c.c.c.c.c.c.c.c.c.c.c.c.c.c.c.c.c.c.c.c.c.c.c.c.",
"c.c.c.c.c.c.c.c.c.c.c.c.c.c.M M n n N M c.c.c.c.c.c.c.c.c.c.c.c.c.c.c.c.c.c.c.c.c.c.c.c.c.c.c.c.",
"c.c.c.c.c.c.c.c.c.c.c.c.c.M U j.j.h.r.R M c.c.c.c.c.c.c.c.c.c.c.c.c.c.c.c.c.H V H c.c.c.c.c.c.c.",
"c.c.c.c.c.c.c.c.c.c.c.c.c.c.N w.j.s.h.j.e.M c.c.c.c.c.c.c.c.c.c.c.c.c.c.c.H K >.! Z c.c.c.c.c.c.",
"c.c.c.c.c.c.c.c.c.c.c.c.c.c.c.M 6.h.t.t.j.r.M c.c.c.c.c.c.c.c.c.c.c.c.c.H I 0.0.0.o.Z c.c.c.c.c.",
"c.c.c.c.c.c.c.c.c.c.c.c.c.c.c.c.M 6.j.t.t.j./ M c.c.c.c.c.c.c.c.c.c.c.H ! i.0.0.0.0.O.Z c.c.c.c.",
"c.c.c.c.c.c.c.c.c.c.c.c.c.c.c.c.c.M t.h.t.h.t.M c.c.c.c.c.c.c.c.c.c.Z $.i.0.0.0.0.0.o.H c.c.c.c.",
"c.c.c.c.c.c.c.c.c.c.c.c.c.c.c.c.c.N r.h.t.s.k.N c.c.c.c.c.c.c.c.c.Z :.i.0.9.9.>.9.*.H c.c.c.c.c.",
"c.c.c.c.c.c.c.N c.c.c.c.c.c.c.c.c.N r.j.h.h.l.S c.c.c.c.c.c.c.c.c.K q.:.;.;.;.;.;.H c.c.c.c.c.c.",
"c.c.c.c.c.c.N / D c.c.c.c.c.c.c.c.M w.l.k.j.z.F c.c.c.c.c.c.c.c.c.J 9.$.$.$.$.;.P V c.c.c.c.c.c.",
"c.c.c.c.c.c.M z.l.G N c.c.c.c.c.N Y z.z.l.l.z.N c.c.c.c.c.c.c.c.c.J 7.+.+.+.$.^ H c.c.c.c.c.c.c.",
"c.c.c.c.c.c.n h.t.h.U M c.c.c.M R k.h.s.u.h.h.N c.c.c.c.c.c.c.c.H =.=.&.&.$.$.H c.c.c.c.c.c.c.c.",
"c.c.c.c.c.c.N r.s.h.j.3.W U A ( j.h.t.t.t.t.h.D c.c.c.c.c.c.c.H &.=.=.Q K H H c.c.c.c.c.c.c.c.c.",
"c.c.c.c.c.c.c.` k.j.j.k.k.k.l.l.h.h.h.h.h.h.j.h.S c.c.c.c.c.H #.&.&.Q H c.c.c.c.c.c.c.c.c.c.c.c.",
"c.c.c.c.c.c.c.N j.l.k.k.k.k.j.k.k.k.j.k.s.w.s.k.j.A c.c.c.H &.4.4.Q Z c.c.c.c.c.c.c.c.c.c.c.c.c.",
"c.c.c.c.c.c.c.c.F l.z.z.l.z.l.z.l.z.l.l.6.h.6.s.z.j.B c.H #.4.5.~ Z c.c.c.c.c.c.c.c.c.c.c.c.c.c.",
"c.c.c.c.c.c.c.c.M F j.x.x.x.x.x.x.l.z.x.t.h.z.r.k.x.t.Z @.5.5.^ Z c.c.c.c.c.c.c.c.c.c.c.c.c.c.c.",
"c.c.c.c.c.c.c.c.c.c.N W r.h.h.t./ n F x.x.t.j.z.t.h.K @.5.8.^ Z c.c.c.c.c.c.c.c.c.c.c.c.c.c.c.c.",
"c.c.c.c.c.c.c.c.c.c.c.c.B A A N c.c.N G z.x.t.j.k.K ) 8.8.^ Z c.c.c.c.c.c.c.c.c.c.c.c.c.c.c.c.c.",
"c.c.c.c.c.c.c.c.c.c.c.c.c.c.c.c.c.c.c.N G z.z.r.K ^ 8.8.) T N c.c.c.c.c.c.c.c.c.c.c.c.c.c.c.c.c.",
"c.c.c.c.c.c.c.c.c.c.c.c.c.c.c.c.c.c.c.c.m G l.P ^ 6.8.) Q x.w.M c.c.c.c.c.c.c.c.c.c.c.c.c.c.c.c.",
"c.c.c.c.c.c.c.c.c.c.c.c.c.c.c.c.c.c.o o O o 2 ^ 8.8.@.Q s.k.x.6.A c.c.c.c.c.c.c.c.c.c.c.c.c.c.c.",
"c.c.c.c.c.c.c.c.c.c.c.c.c.c.c.c.c.o 0  .X.g + L 8.@.I j.l.h.k.x.3.N c.c.c.c.c.c.c.c.c.c.c.c.c.c.",
"c.c.c.c.c.c.c.c.c.c.c.c.c.c.c.c.o a v 2.1.d f % p T j.s.k.k.s.k.z.` N c.c.c.c.c.c.c.c.c.c.c.c.c.",
"c.c.c.c.c.c.c.c.c.c.c.c.c.c.c.o 8 v h l k w y a O J z.j.s.j.j.h.j.z./ M c.c.c.c.c.c.c.c.c.c.c.c.",
"c.c.c.c.c.c.c.c.c.c.c.c.c.c.o 3 v h i u e q 6 y & < W l.h.t.j.h.h.j.l.R M c.c.c.c.c.c.c.c.c.c.c.",
"c.c.c.c.c.c.c.c.c.c.c.c.c.o 3 v j i j y $ 1 4 a + c.N W k.h.t.h.h.s.h.k.Y c.c.c.c.c.c.c.c.c.c.c.",
"c.c.c.c.c.c.c.c.c.c.c.c.X 5 b j d v a # = 3 0 7 o c.c.N / k.s.t.t.h.s.h.j.U c.c.c.c.c.c.c.c.c.c.",
"c.c.c.c.c.c.c.c.c.c.c.o 0 v j v { s # $ 3 0 0 o c.c.c.c.M ( j.t.t.t.t.s.s.h.F c.c.c.c.c.c.c.c.c.",
"c.c.c.c.c.c.c.c.c.c.X d v c { %.s # $ > e 0 o c.c.c.c.c.c.M ( h.r.t.r.t.s.s.s.D c.c.c.c.c.c.c.c.",
"c.c.c.c.c.c.c.c.o + c v { %.1.g # $ ; e 9 o c.c.c.c.c.c.c.c.M ( s.r.t.e.r.r.r.t.S c.c.c.c.c.c.c.",
"c.c.c.c.c.c.o o > [ [  .1.2.d # $ - 0 0 o c.c.c.c.c.c.c.c.c.c.M ' s.w.r.w.r.w.r.r.B c.c.c.c.c.c.",
"c.c.c.c.c.o & t [ | <.a.2.t # $ - 7 y o c.c.c.c.c.c.c.c.c.c.c.c.M 3.t.6.w.6.` / 8.6.N c.c.c.c.c.",
"c.c.c.c.c.X t { ,.p.g.-.e 1 # = 7 y + c.c.c.c.c.c.c.c.c.c.c.c.c.c.M ] r.6.` / w.R t.A c.c.c.c.c.",
"c.c.c.c.c.o [ 1.f.d.x e 3 @ - 4 i & X c.c.c.c.c.c.c.c.c.c.c.c.c.c.c.N 3.w.` ( 6.R r.F c.c.c.c.c.",
"c.c.c.c.c.o v c v u w 7 @ = > e 3 X c.c.c.c.c.c.c.c.c.c.c.c.c.c.c.c.c.M 3.6./ R 3.w.N c.c.c.c.c.",
"c.c.c.c.c.X 0 z t w q = = > 6 u o c.c.c.c.c.c.c.c.c.c.c.c.c.c.c.c.c.c.c.n ` e.r.w.D m c.c.c.c.c.",
"c.c.c.c.c.c.o d d q 4 * > , i &   c.c.c.c.c.c.c.c.c.c.c.c.c.c.c.c.c.c.c.c.. M N n c.c.c.c.c.c.c.",
"c.c.c.c.c.c.c.o a y 3 : , w w X c.c.c.c.c.c.c.c.c.c.c.c.c.c.c.c.c.c.c.c.c.c.c.c.c.c.c.c.c.c.c.c.",
"c.c.c.c.c.c.c.c.O 0 y t u u O c.c.c.c.c.c.c.c.c.c.c.c.c.c.c.c.c.c.c.c.c.c.c.c.c.c.c.c.c.c.c.c.c.",
"c.c.c.c.c.c.c.c.c.X + - & o c.c.c.c.c.c.c.c.c.c.c.c.c.c.c.c.c.c.c.c.c.c.c.c.c.c.c.c.c.c.c.c.c.c.",
"c.c.c.c.c.c.c.c.c.c.c.c.c.c.c.c.c.c.c.c.c.c.c.c.c.c.c.c.c.c.c.c.c.c.c.c.c.c.c.c.c.c.c.c.c.c.c.c.",
"c.c.c.c.c.c.c.c.c.c.c.c.c.c.c.c.c.c.c.c.c.c.c.c.c.c.c.c.c.c.c.c.c.c.c.c.c.c.c.c.c.c.c.c.c.c.c.c.",
"c.c.c.c.c.c.c.c.c.c.c.c.c.c.c.c.c.c.c.c.c.c.c.c.c.c.c.c.c.c.c.c.c.c.c.c.c.c.c.c.c.c.c.c.c.c.c.c."
};
