/* XPM */
static char *settings[] = {
/* columns rows colors chars-per-pixel */
"48 48 149 2 ",
"   c #173868",
".  c #1E467F",
"X  c #777974",
"o  c #7E807B",
"O  c #1F4781",
"+  c #1F4986",
"@  c #214A86",
"#  c #244D89",
"$  c #27508C",
"%  c #2A538D",
"&  c #375A88",
"*  c #3A5D8B",
"=  c #2D5691",
"-  c #325B94",
";  c #385F96",
":  c #365F98",
">  c #3B6194",
",  c #376099",
"<  c #3C649A",
"1  c #3F689E",
"2  c #3B67A1",
"3  c #3D69A2",
"4  c #3D6CAB",
"5  c #5A6D85",
"6  c #416A9E",
"7  c #6C7883",
"8  c #6B7E9A",
"9  c #446CA3",
"0  c #4B72A7",
"q  c #4672AB",
"w  c #4B74AB",
"e  c #4E78AD",
"r  c #5077AB",
"t  c #557BAE",
"y  c #4A77B1",
"u  c #4D7AB3",
"i  c #537CB2",
"p  c #597EB0",
"a  c #547FB9",
"s  c #5780B4",
"d  c #5B81B4",
"f  c #5681B9",
"g  c #5C86BB",
"h  c #778BA8",
"j  c #6083B1",
"k  c #6A8BB5",
"l  c #6387B8",
"z  c #648ABB",
"x  c #6C8EBB",
"c  c #658EC2",
"v  c #6E93C3",
"b  c #7297C6",
"n  c #7498C7",
"m  c #789BC7",
"M  c #769AC9",
"N  c #799DCA",
"B  c #7EA1CE",
"V  c #868883",
"C  c #898B86",
"Z  c #8C8E8A",
"A  c #8E908C",
"S  c #91938F",
"D  c #868E9C",
"F  c #89919E",
"G  c #939591",
"H  c #979995",
"J  c #999A96",
"K  c #9C9E9A",
"L  c #9FA19D",
"P  c #A0A29E",
"I  c #8C94A2",
"U  c #9097A4",
"Y  c #939BA7",
"T  c #959EAB",
"R  c #989FAC",
"E  c #8396B2",
"W  c #9CA3AE",
"Q  c #9EA7B3",
"!  c #9EA8B5",
"~  c #A4A6A2",
"^  c #A7A8A4",
"/  c #A9AAA6",
"(  c #A0A5A8",
")  c #ACADAB",
"_  c #B0B2AF",
"`  c #A5ABB5",
"'  c #A8AEB7",
"]  c #A1ABB9",
"[  c #A9AFB8",
"{  c #A6B0BE",
"}  c #ADB3BC",
"|  c #B4B5B3",
" . c #B7B8B6",
".. c #B8B9B7",
"X. c #B1B6BF",
"o. c #BBBCBA",
"O. c #C0C1BE",
"+. c #81A2CC",
"@. c #8CA9CF",
"#. c #82A4D0",
"$. c #8DABD2",
"%. c #94AED0",
"&. c #9BB4D5",
"*. c #9BB6D9",
"=. c #ABB6C1",
"-. c #AFB9C4",
";. c #B2B7C0",
":. c #B4BBC4",
">. c #B3BEC9",
",. c #A3BAD9",
"<. c #BAC0C7",
"1. c #B6C0CC",
"2. c #BBC3CB",
"3. c #AEC3DE",
"4. c #BAC6D2",
"5. c #BDCAD6",
"6. c #B2C6DF",
"7. c #BFCCD8",
"8. c #ADC3E0",
"9. c #B2C7E1",
"0. c #B4C8E2",
"q. c #B9CBE3",
"w. c #C4C5C3",
"e. c #C7C8C6",
"r. c #C2C7CD",
"t. c #C5C9CF",
"y. c #CDCDCC",
"u. c #CFD0CE",
"i. c #D0D0CF",
"p. c #C6CAD1",
"a. c #C2CEDA",
"s. c #C3D0DD",
"d. c #C8D4DF",
"f. c #D4D4D4",
"g. c #D6D7D8",
"h. c #DCDCDC",
"j. c #E0E0DF",
"k. c #C4D3E7",
"l. c #C9D7EA",
"z. c #CDDAEB",
"x. c #DEDFE1",
"c. c #D6E1EF",
"v. c #E3E3E3",
"b. c #E8E8E7",
"n. c #EBEBEB",
"m. c #F2F2F2",
"M. c #F8F8F7",
"N. c #FAFAFA",
"B. c None",
/* pixels */
"B.B.B.B.B.B.B.B.B.B.B.B.B.B.B.B.B.B.B.B.B.B.B.B.B.B.B.B.B.B.B.B.B.B.B.B.B.B.B.B.B.B.B.B.B.B.B.B.",
"B.B.B.B.B.B.B.B.B.B.B.B.B.B.B.B.B.B.B.B.B.B.B.B.B.B.B.B.B.B.B.B.B.B.B.B.B.B.B.B.B.B.B.B.B.B.B.B.",
"B.B.B.B.B.B.B.B.B.B.B.B.B.B.B.B.B.B.B.B.B.B.B.B.B.B.B.B.B.B.B.B.B.B.B.B.B.B.B.B.B.B.B.B.B.B.B.B.",
"B.B.B.B.B.B.B.B.B.B.B.B.B.B.B.B.B.B.B.B.B.B.B.B.B.B.B.B.B.B.B.B.B.B.B.B.B.B.B.B.B.B.B.B.B.B.B.B.",
"B.B.B.B.B.B.B.B.B.B.B.B.B.B.B.B.B.B.B.B.B.B.B.B.B.B.B.B.B.B.B.B.B.B.B.B.B.B.B.B.B.B.B.B.B.B.B.B.",
"B.B.B.B.B.B.B.B.B.B.B.B.B.B.C G J G Z V B.B.B.B.B.B.B.B.B.B.B.B.B.B.B.B.B.B.B.B.B.B.B.B.B.B.B.B.",
"B.B.B.B.B.B.B.B.B.B.B.B.B.V L h.v.h.y.) S B.B.B.B.B.B.B.B.B.B.B.B.B.B.B.B.B.B.I I B.B.B.B.B.B.B.",
"B.B.B.B.B.B.B.B.B.B.B.B.B.B.G e.b.v.v.b.y.J B.B.B.B.B.B.B.B.B.B.B.B.B.B.B.D W 1.] D B.B.B.B.B.B.",
"B.B.B.B.B.B.B.B.B.B.B.B.B.B.B.A w.b.h.h.b.y.S B.B.B.B.B.B.B.B.B.B.B.B.B.D ! 7.s.7.{ I B.B.B.B.B.",
"B.B.B.B.B.B.B.B.B.B.B.B.B.B.B.B.Z o.b.h.h.b. .V B.B.B.B.B.B.B.B.B.B.B.I { s.s.s.k.7.=.F B.B.B.B.",
"B.B.B.B.B.B.B.B.B.B.B.B.B.B.B.B.B.A i.v.h.v.f.S B.B.B.B.B.B.B.B.B.B.I -.d.s.s.s.a.s.=.D B.B.B.B.",
"B.B.B.B.B.B.B.B.B.B.B.B.B.B.B.B.B.C y.b.h.v.b.K B.B.B.B.B.B.B.B.B.U 1.d.a.a.7.7.7.>.I B.B.B.B.B.",
"B.B.B.B.B.B.B.V B.B.B.B.B.B.B.B.B.C y.n.v.b.n.~ B.B.B.B.B.B.B.B.B.W a.5.4.4.4.4.1.T B.B.B.B.B.B.",
"B.B.B.B.B.B.C ) P B.B.B.B.B.B.B.B.V y.n.n.n.n.~ B.B.B.B.B.B.B.B.B.T t.1.1.>.>.1.Q D B.B.B.B.B.B.",
"B.B.B.B.B.B.G v.v.P V B.B.B.B.B.V ^ b.m.n.m.n.K B.B.B.B.B.B.B.B.B.W 4.-.=.=.:.{ I B.B.B.B.B.B.B.",
"B.B.B.B.B.B.G h.b.h.~ V B.B.B.C ) v.b.h.j.v.h.S B.B.B.B.B.B.B.B.U :.2.<.:.:.X.U B.B.B.B.B.B.B.B.",
"B.B.B.B.B.B.Z u.v.v.j.o.) ~ K | v.j.h.h.h.j.h.P B.B.B.B.B.B.B.U ;.<.<.` T Y I B.B.B.B.B.B.B.B.B.",
"B.B.B.B.B.B.B.| n.v.b.n.n.b.b.n.b.v.v.v.v.v.n.h.K B.B.B.B.B.I X.<.<.` F B.B.B.B.B.B.B.B.B.B.B.B.",
"B.B.B.B.B.B.B.H h.m.n.b.n.n.n.n.n.n.n.n.h.i.h.n.h.J B.B.B.I :.w.<.' F B.B.B.B.B.B.B.B.B.B.B.B.B.",
"B.B.B.B.B.B.B.B.^ b.m.m.m.m.m.m.n.m.m.n.i.h.f.v.M.g.J B.I ;.r.r.[ I B.B.B.B.B.B.B.B.B.B.B.B.B.B.",
"B.B.B.B.B.B.B.B.V ~ h.M.N.M.N.N.M.b.n.M.h.b.n.h.n.M.y.F ;.t.r.} I B.B.B.B.B.B.B.B.B.B.B.B.B.B.B.",
"B.B.B.B.B.B.B.B.B.B.S | u.h.h.u.| S ^ n.m.h.n.n.j.x.' } t.r.X.I B.B.B.B.B.B.B.B.B.B.B.B.B.B.B.B.",
"B.B.B.B.B.B.B.B.B.B.B.B.C Z Z C B.B.V ^ n.M.h.n.v.W } t.t.X.I B.B.B.B.B.B.B.B.B.B.B.B.B.B.B.B.B.",
"B.B.B.B.B.B.B.B.B.B.B.B.B.B.B.B.B.B.B.V ^ n.m.h.` [ t.t.X.W S B.B.B.B.B.B.B.B.B.B.B.B.B.B.B.B.B.",
"B.B.B.B.B.B.B.B.B.B.B.B.B.B.B.B.B.B.B.B.7 ( v.[ ' t.p.X.[ n.w.A B.B.B.B.B.B.B.B.B.B.B.B.B.B.B.B.",
"B.B.B.B.B.B.B.B.B.B.B.B.B.B.B.B.B.B.@ % - & 8 ` p.p.X.[ h.n.m.O.Z B.B.B.B.B.B.B.B.B.B.B.B.B.B.B.",
"B.B.B.B.B.B.B.B.B.B.B.B.B.B.B.B.B.% t %.&.l ; E p.:.` j.n.v.m.m.o.C B.B.B.B.B.B.B.B.B.B.B.B.B.B.",
"B.B.B.B.B.B.B.B.B.B.B.B.B.B.B.B.# p B 0.3.v d ; h [ j.j.n.b.v.n.n. .C B.B.B.B.B.B.B.B.B.B.B.B.B.",
"B.B.B.B.B.B.B.B.B.B.B.B.B.B.B.# 0 M c v v i d d = T n.b.j.b.v.v.n.b._ C B.B.B.B.B.B.B.B.B.B.B.B.",
"B.B.B.B.B.B.B.B.B.B.B.B.B.B.@ 9 M c g f u y q d ; 5 | n.v.j.v.v.v.b.b.) B.B.B.B.B.B.B.B.B.B.B.B.",
"B.B.B.B.B.B.B.B.B.B.B.B.B.@ 9 n c g c t > 6 q p - B.C | b.v.h.v.v.j.b.v.^ B.B.B.B.B.B.B.B.B.B.B.",
"B.B.B.B.B.B.B.B.B.B.B.B.# 9 M c c m j * * 3 i 0 # B.B.C  .v.j.h.j.h.h.b.h.^ B.B.B.B.B.B.B.B.B.B.",
"B.B.B.B.B.B.B.B.B.B.B.# r M v N @.k & * 9 i r $ B.B.B.B.C  .v.h.h.h.h.h.j.h.L B.B.B.B.B.B.B.B.B.",
"B.B.B.B.B.B.B.B.B.B.= d N N $.*.x & * 6 i 0 $ B.B.B.B.B.B.Z  .v.h.f.h.h.h.j.f.K B.B.B.B.B.B.B.B.",
"B.B.B.B.B.B.B.B.+ : x #.@.,.3.x * * < i 0 $ B.B.B.B.B.B.B.B.Z ..h.h.f.f.g.h.h.i.K B.B.B.B.B.B.B.",
"B.B.B.B.B.B.@ $ 9 N $.*.q.6.x * * < i r $ B.B.B.B.B.B.B.B.B.B.Z o.h.f.g.g.g.i.g.y.J B.B.B.B.B.B.",
"B.B.B.B.B.@ : d #.&.6.l.6.z * * < r r % B.B.B.B.B.B.B.B.B.B.B.B.Z o.h.i.i.y. .| y.w.A B.B.B.B.B.",
"B.B.B.B.B.$ d $.3.l.c.,.d > * > q i = B.B.B.B.B.B.B.B.B.B.B.B.B.B.A o.f.y...:.y._ f.P B.B.B.B.B.",
"B.B.B.B.B.- M 9.c.k.B i 9 & > 9 p : B.B.B.B.B.B.B.B.B.B.B.B.B.B.B.B.A o.f. .o.i.) f.~ B.B.B.B.B.",
"B.B.B.B.B.% v N +.g u q * > 3 f 9 O B.B.B.B.B.B.B.B.B.B.B.B.B.B.B.B.B.Z o.y.| ) w.y.G B.B.B.B.B.",
"B.B.B.B.B.. r v f u y < > 2 y u # B.B.B.B.B.B.B.B.B.B.B.B.B.B.B.B.B.B.B.Z o.y.u.w.L o B.B.B.B.B.",
"B.B.B.B.B.B.$ d z y 9 ; 2 4 f :   B.B.B.B.B.B.B.B.B.B.B.B.B.B.B.B.B.B.B.B.X G J Z X B.B.B.B.B.B.",
"B.B.B.B.B.B.B.% d d q 1 4 u y . B.B.B.B.B.B.B.B.B.B.B.B.B.B.B.B.B.B.B.B.B.B.B.B.B.B.B.B.B.B.B.B.",
"B.B.B.B.B.B.B.B.% r d i a i = B.B.B.B.B.B.B.B.B.B.B.B.B.B.B.B.B.B.B.B.B.B.B.B.B.B.B.B.B.B.B.B.B.",
"B.B.B.B.B.B.B.B.B.@ - 1 : # B.B.B.B.B.B.B.B.B.B.B.B.B.B.B.B.B.B.B.B.B.B.B.B.B.B.B.B.B.B.B.B.B.B.",
"B.B.B.B.B.B.B.B.B.B.B.B.B.B.B.B.B.B.B.B.B.B.B.B.B.B.B.B.B.B.B.B.B.B.B.B.B.B.B.B.B.B.B.B.B.B.B.B.",
"B.B.B.B.B.B.B.B.B.B.B.B.B.B.B.B.B.B.B.B.B.B.B.B.B.B.B.B.B.B.B.B.B.B.B.B.B.B.B.B.B.B.B.B.B.B.B.B.",
"B.B.B.B.B.B.B.B.B.B.B.B.B.B.B.B.B.B.B.B.B.B.B.B.B.B.B.B.B.B.B.B.B.B.B.B.B.B.B.B.B.B.B.B.B.B.B.B."
};
