/* XPM */
static char *_270295471[] = {
/* columns rows colors chars-per-pixel */
"48 48 239 2 ",
"   c #3F3F3F",
".  c #570100",
"X  c #5F0000",
"o  c #570E0F",
"O  c #5A0B0C",
"+  c #5E0D16",
"@  c #5F0F18",
"#  c #521617",
"$  c #660001",
"%  c #6A0101",
"&  c #620A0E",
"*  c #6B0909",
"=  c #730606",
"-  c #760C0C",
";  c #7B0A0A",
":  c #7C1A0D",
">  c #610B12",
",  c #651313",
"<  c #631C11",
"1  c #63121B",
"2  c #663F0D",
"3  c #551C2F",
"4  c #4C2323",
"5  c #57302F",
"6  c #57273D",
"7  c #463232",
"8  c #792424",
"9  c #7E212A",
"0  c #732828",
"q  c #7F2C2C",
"w  c #665612",
"e  c #685313",
"r  c #666416",
"t  c #542D46",
"y  c #5E2E43",
"u  c #512E49",
"i  c #4A3151",
"p  c #414141",
"a  c #4D4A4A",
"s  c #504C4C",
"d  c #545555",
"f  c #575858",
"g  c #5B5B5B",
"h  c #774242",
"j  c #7F4A4A",
"k  c #615A5A",
"l  c #795B5B",
"z  c #4E7555",
"x  c #4A795D",
"c  c #43456E",
"v  c #464874",
"b  c #626262",
"n  c #6C6C6C",
"m  c #727272",
"M  c #7B7B7B",
"N  c #8C1010",
"B  c #921313",
"V  c #9C1313",
"C  c #931E1E",
"Z  c #9E1818",
"A  c #AC1212",
"S  c #AA1618",
"D  c #A41818",
"F  c #A91919",
"G  c #B31719",
"H  c #B41D1D",
"J  c #993315",
"K  c #8F2B2B",
"L  c #972929",
"P  c #9E2D2D",
"I  c #8A3535",
"U  c #8D3838",
"Y  c #943232",
"T  c #913A3A",
"R  c #AF2222",
"E  c #A22E2E",
"W  c #B42222",
"Q  c #BD2E2E",
"!  c #AC3535",
"~  c #BA3131",
"^  c #CC2C2C",
"/  c #DF2625",
"(  c #DE2728",
")  c #DE2F2E",
"_  c #CA3535",
"`  c #C93C3C",
"'  c #DC3F34",
"]  c #E02726",
"[  c #E12C2C",
"{  c #E33433",
"}  c #E83736",
"|  c #E63B3B",
" . c #E93D3D",
".. c #AB4227",
"X. c #CA5D34",
"o. c #894F4F",
"O. c #984C4C",
"+. c #96415D",
"@. c #825050",
"#. c #8B5050",
"$. c #885F5F",
"%. c #955454",
"&. c #955A5A",
"*. c #B74949",
"=. c #BE4E4E",
"-. c #9A4762",
";. c #9D4D66",
":. c #9F4E6A",
">. c #A2526D",
",. c #A55671",
"<. c #A75A75",
"1. c #AA5E79",
"2. c #836F6F",
"3. c #976060",
"4. c #946D6D",
"5. c #9C7473",
"6. c #AA617C",
"7. c #CC4747",
"8. c #D84646",
"9. c #DD574E",
"0. c #C45555",
"q. c #CB5454",
"w. c #D25252",
"e. c #DA5252",
"r. c #DE5F5F",
"t. c #EA4443",
"y. c #EE4B4B",
"u. c #F04F4F",
"i. c #E55046",
"p. c #E15555",
"a. c #E95555",
"s. c #E55D5D",
"d. c #EF5F5F",
"f. c #F25353",
"g. c #F55B5B",
"h. c #D76E4E",
"j. c #C96166",
"k. c #E36262",
"l. c #ED6161",
"z. c #E46B6B",
"x. c #E96E6E",
"c. c #F76060",
"v. c #F96464",
"b. c #F46969",
"n. c #FC6B6B",
"m. c #FE7272",
"M. c #F77D7D",
"N. c #FC7B7B",
"B. c #5D9B16",
"V. c #58A215",
"C. c #5DA219",
"Z. c #6CB224",
"A. c #7AB232",
"S. c #75BC30",
"D. c #74D315",
"F. c #76D31B",
"G. c #7CD524",
"H. c #7AC037",
"J. c #77CA37",
"K. c #7CC138",
"L. c #61AB5C",
"P. c #6DAD7E",
"I. c #AE882F",
"U. c #83D82F",
"Y. c #84DA33",
"T. c #8ADB3B",
"R. c #A2BD48",
"E. c #C29A54",
"W. c #93D745",
"Q. c #91DD45",
"!. c #8CD351",
"~. c #A9C152",
"^. c #97E151",
"/. c #92D26D",
"(. c #A5E866",
"). c #B3E47A",
"_. c #3D5283",
"`. c #2C5592",
"'. c #335A93",
"]. c #3668A7",
"[. c #3B6CAB",
"{. c #3D70AF",
"}. c #4A6EA2",
"|. c #4674AF",
" X c #547AAC",
".X c #4273B3",
"XX c #4778B7",
"oX c #4B79B3",
"OX c #4679B8",
"+X c #4B7CBB",
"@X c #527CB2",
"#X c #5189A0",
"$X c #5D84B6",
"%X c #5C8FB6",
"&X c #749CA6",
"*X c #6386B6",
"=X c #6088BB",
"-X c #7DB2A4",
";X c #4F81C1",
":X c #5485C5",
">X c #578ACA",
",X c #6196C7",
"<X c #848484",
"1X c #8D8D8D",
"2X c #948B8B",
"3X c #939393",
"4X c #9C9C9C",
"5X c #A68787",
"6X c #A98080",
"7X c #AE8C8C",
"8X c #B08686",
"9X c #B29797",
"0X c #AEBB8F",
"qX c #A3A3A3",
"wX c #ABA3A3",
"eX c #ADADAD",
"rX c #BFA1A1",
"tX c #B3B3B3",
"yX c #BBB2B2",
"uX c #B9B9B9",
"iX c #C2A4A4",
"pX c #C8ACAC",
"aX c #C7B6B6",
"sX c #CCB6B6",
"dX c #D1BCBC",
"fX c #C5C5C5",
"gX c #CBCBCB",
"hX c #D0CBCB",
"jX c #DCCECE",
"kX c #CFD0D0",
"lX c #D4D4D4",
"zX c #DCDCDC",
"xX c #E1DBDB",
"cX c #E4E4E4",
"vX c #E8E0E0",
"bX c #E7E9E9",
"nX c #EBEBEB",
"mX c #F1F1F1",
"MX c None",
/* pixels */
"MXMXMXMXMXMXMXMXMXMXMXMXMXMXMXMXMXMXMXMXMXMXMXMXMXMXMXMXMXMXMXMXMXMXMXMXMXMXMXMXMXMXMXMXMXMXMXMX",
"MXMXMXMXMXMXMXMXMXMXMXMXMXMXMXMXMXMXMXMXMXMXMXMXMXMXMXMXMXMXMXMXMXMXMXMXMXMXMXMXMXMXMXMXMXMXMXMX",
"MXMXMXMXMXMXMXMXMXMXMXMXMXMXMXMXMXMXMXMXMXMXMXMXMXMXMXMXMXMXMXMXMXMXMXMXMXMXMXMXMXMXMXMXMXMXMXMX",
"MXMXMXMXMXMXMXqXqXeXeXeXeXeXeXqXqXqXqXqX4X4X4X3X3X3X3X1X1X1X1X<X<X<X<XM M M M m n MXMXMXMXMXMXMX",
"MXMXMXMXMXMXqXzXmXmXmXmXmXmXmXnXmXmXnXmXnXnXmXnXnXnXnXnXnXnXcXnXbXcXcXcXbXcXcXvXgXn MXMXMXMXMXMX",
"MXMXMXMXMXMXqXmXcXcXlXlXlXzXlXzXzXzXzXzXzXzXzXzXzXzXzXzXzXzXzXzXzXzXcXzXzXzXcXnXcXm MXMXMXMXMXMX",
"MXMXMXMXMXMXqXmXcXlX3X3X4X4X4X4X4X4X4X1X4X4X4X4X4X1X4X4XqX4X4X3X4X4X4XqX4X3XlXnXcXm MXMXMXMXMXMX",
"MXMXMXMXMXMXqXmXcXlX4XwXeXtXeXeXeXeXeX3XeXeXtXeXeX4XeXtXeXeXeX4XeXtXtXtXeXqXzXnXcXm MXMXMXMXMXMX",
"MXMXMXMXMXMXqXnXcXlXqXeXtXtXtXtXtXtXeX4XtXtXtXtXtX4XtXtXtXtXtXqXtXtXtXtXtXqXzXcXcXm MXMXMXMXMXMX",
"MXMXMXMXMXMXqXmXcXlX4XeXeXeXeXeXeXtXeX4XeXtXtXtXeX4XeXtXtXtXeX4XeXeXtXtXeXqXzXnXcXm MXMXMXMXMXMX",
"MXMXMXMXMXMX4XnXcXlX1X3X3X4X4X3X4X3X3X1X4X4XqX4X4X1X4XqXqXqX4X1X4XqXqXqXqX3XzXnXcXn MXMXMXMXMXMX",
"MXMXMXMXMXMX4XmXcXlX4XeXeXeXtXeXtXtXeXqXlXzXzXzXzXfXlXzXzXzXzXfXzXcXzXzXzXfXcXnXcXm MXMXMXMXMXMX",
"MXMXMXMXMXMX4XnXbXlX4XeXtXtXtXtXeXeXeXqXzXcXcXcXzXgXzXcXcXcXcXfXzXcXcXcXzXgXcXnXcXm MXMXMXMXMXMX",
"MXMXMXMXMXMX4XnXnXlX1X3X4X3X4X3X4X4X3X1XuXfXfXfXfXeXfXgXfXfXfXtXfXfXgXfXfXtXzXnXcXn MXMXMXMXMXMX",
"MXMXMXMXMXMX4XnXbXzX4XeXtXtXeXeXtXtXtXqXlXcXcXcXzXgXxXcXcXcXzXgXcXcXcXcXcXgXcXnXcXm MXMXMXMXMXMX",
"MXMXMXMXMXMX3XnXbXlXqXeXeXtXtXtXeXtXeXqXzXcXcXcXzXgXcXcXbXcXzXgXcXcXcXcXzXgXcXmXcXn MXMXMXMXMXMX",
"MXMXMXMXMXMX3XnXbXlX3X3X4X3X4X3X4X4X3X3XuXgXfXgXfXtXfXgXfXgXfXtXfXgXfXgXfXtXcXmXcXn MXMXMXMXMXMX",
"MXMXMXMXMXMX3XnXbXzXqXeXtXtXtXtXtXtXeXqXzXcXcXcXzXgXcXcXcXnXxXgXcXbXcXnXcXgXcXmXxXn MXMXMXMXMXMX",
"MXMXMXMXMXMX3XnXbXzXqXeXtXtXtXtXtXtXtXqXzXcXcXcXcXgXcXcXcXbXcXgXcXcXnXcXcXgXcXmXcXn MXMXMXMXMXMX",
"MXMXMXMXMXMX1XnXbXlX3X3X4X3X4X4X4X4X4X3XfXgXgXgXfXtXfXgXgXgXfXtXfXgXgXgXfXtXcXmXcXn MXMXMXMXMXMX",
"MXMXMXMXMXMX1XnXbXzXqXeXtXtXtXtXtXtXtXqXzXcXnXcXcXgXcXnXnXbXcXgXcXbXnXbXcXgXcXmXcXn MXMXMXMXMXMX",
"MXMXMXMXMXMX1XnXbXxXqXeXtXtXtXtXtXtXtXqXzXnXcXcXcXgXcXnXbXnXcXgXcXnXbXnXcXgXnXmXcXn MXMXMXMXMXMX",
"MXMXMXMXMXMX1XnXnXlX1X4X4X4XqX4X4XqX4X3XfXgXgXgXfXtXfXgXgXgXgXtXgXgXgXgXgXuXcXmXzXn MXMXMXMXMXMX",
"MXMXMXMXMXMX<XbXnXzX4XtXtXtXtXtXtXtXeXqXzXcXbXnXcXgXcXnXmXnXbXlXbXnXmXmXcXkXnXmXcXb MXMXMXMXMXMX",
"MXMXMXMXMXMX<XnXnXzXqXeXtXtXtXtXtXuXtXqXxXbXbXnXcXlXbXnXcXjXsX9XiXpXdXjXxXhXmXmXcXn MXMXMXMXMXMX",
"MXMXMXMXMXMX<XbXbXzX3X3X4X4X4X4X4X4X4X1XfXgXgXgXgXwX5X&.T Y P E E E L K U #.rXvXcXb MXMXMXMXMXMX",
"MXMXMXMXMXMX<XbXnXzXqXeXtXtXtXtXtXuXtXeXzXnXmXzX8XI E 7.s.b.n.n.b.v.g.a.8.~ C I 5.k MXMXMXMXMXMX",
"MXMXMXMXMXMX2.bXmXzXqXeXuXtXtXuXuXtXtXqXzXmXdXO.! s.m.m.m.n.n.b.v.c.g.g.g.f.y._ C , MXMXMXMXMXMX",
"MXMXMXMXMXMX<XbXnXzX3X4X4XqX4X4X4XqX4X3XfX9XI w.m.m.m.n.n.n.c.c.g.g.f.f.f.y.y.t.t.R = MXMXMXMXMX",
"MXMXMXMXMXMXM bXmXzXqXeXtXtXtXuXuXtXtXeXsXT r.m.m.n.n.n.v.c.c.g.g.f.f.y.y.t.t.t. .| W % MXMXMXMX",
"MXMXMXMXMXMXM bXnXzXqXtXtXtXtXtXuXtXtXqX%.q.N.m.n.n.v.c.c.g.g.f.f.y.y.t.t.t.| | | { { Z $ MXMXMX",
"MXMXMXMXMXMXM cXnXzX3X4X4XqX4XqX4XqX4X2.Y N.m.n.b.v.c.g.g.f.f.u.y.y.t.t.| | { { { [ [ ^ ; MXMXMX",
"MXMXMXMXMXMXM cXmXzXqXtXtXtXuXtXuXuXtX$.*.N.b.v.c.g.g.g.f.u.y.y.t.t. . .} } [ [ [ ] ] [ N MXMXMX",
"MXMXMXMXMXMXm cXmXzXqXeXtXtXtXuXtXuXtXl 0.N.c.g.g.g.f.f.u.y.y.t.j.1.1.<.,.>.:.;.-.+.+.;.9 MXMXMX",
"MXMXMXMXMXMXm cXnXzX3X4XqX4XqX4X4XqXqXh 0.m.g.g.f.f.y.y.t.t.t.i.0X,X>X:X;X+XXX.X{.].].oXy % MXMX",
"MXMXMXMXMXMXm cXnXzXqXtXtXtXuXtXuXuXtXj ! M.g.u.f.y.y.t.t. .| h.).-X:X:X+X+XXX{..X].[. X6 % MXMX",
"MXMXMXMXMXMXn cXmXzXqXtXtXtXuXuXtXuXtXj B z.b.y.y.t.t.t.| | { E.(./.%X;X+XXX.X{.[.].@X}.3 MXMXMX",
"MXMXMXMXMXMXn cXnXzX3X4X4X4XqX4XqXqX4Xl ; ~ x.d.t.t.| | { { ' ~.^.Q.P.+XXXXX{.[.].@X@X_.+ MXMXMX",
"MXMXMXMXMXMXn cXnXzXqXtXtXtXtXtXtXuXtX2X8 V Q k.l.t.{ { { [ X.W.T.U.J.#XXX.X{.|.$X X'.i $ MXMXMX",
"MXMXMXMXMXMXn cXmXzXqXtXtXtXtXuXuXuXtXqX5.; D H 7.k.a.| ) ( I.U.G.F.D.L.oX@X=X*X}.'.c > MXMXMXMX",
"MXMXMXMXMXMXb cXnXzX4XqXqXqXqXqXqXqXqX3XtX#.; D A H ` e.p.9.R.T.Y.T.T.!.&X*X}.'.'.c @ X MXMXMXMX",
"MXMXMXMXMXMXb cXmXcXzXzXzXcXcXcXcXcXbXcXcXhX3.- B D A A G ..A.H.S.K.S.Z.x `.'._.t & . MXMXMXMXMX",
"MXMXMXMXMXMXb cXnXmXnXmXmXmXmXmXmXmXmXmXmXcXzX7XK - B D S J B.V.C.V.V.C.z v t 1 8 5 MXMXMXMXMXMX",
"MXMXMXMXMXMXg fXcXzXcXzXzXzXcXzXxXcXcXcXcXcXzXgXtX4.0 * ; : e r r r w 2 < & 0 5.wXd MXMXMXMXMXMX",
"MXMXMXMXMXMXp g b b b b b b b g b b g b b b b g g f a 7 4 # o O O O O # 4 7 s g f   MXMXMXMXMXMX",
"MXMXMXMXMXMXMXMXMXMXMXMXMXMXMXMXMXMXMXMXMXMXMXMXMXMXMXMXMXMXMXMXMXMXMXMXMXMXMXMXMXMXMXMXMXMXMXMX",
"MXMXMXMXMXMXMXMXMXMXMXMXMXMXMXMXMXMXMXMXMXMXMXMXMXMXMXMXMXMXMXMXMXMXMXMXMXMXMXMXMXMXMXMXMXMXMXMX",
"MXMXMXMXMXMXMXMXMXMXMXMXMXMXMXMXMXMXMXMXMXMXMXMXMXMXMXMXMXMXMXMXMXMXMXMXMXMXMXMXMXMXMXMXMXMXMXMX"
};
