/* XPM */
static char *terminal[] = {
/* columns rows colors chars-per-pixel */
"48 48 206 2 ",
"   c #070A04",
".  c #0B0D07",
"X  c #0B0F08",
"o  c #0E1209",
"O  c #11150B",
"+  c #151A0D",
"@  c #181E0F",
"#  c #151712",
"$  c #171A14",
"%  c #191B16",
"&  c #1C2413",
"*  c #1E2815",
"=  c #1E2318",
"-  c #212B17",
";  c #22261B",
":  c #242D19",
">  c #282F1E",
",  c #25331B",
"<  c #29351B",
"1  c #2E3B1F",
"2  c #303C1F",
"3  c #262920",
"4  c #292D22",
"5  c #2D3225",
"6  c #2E3C20",
"7  c #2E3228",
"8  c #303725",
"9  c #303D20",
"0  c #31352B",
"q  c #353A2E",
"w  c #383F2D",
"e  c #363A30",
"r  c #383B33",
"t  c #3A3B38",
"y  c #354323",
"u  c #384525",
"i  c #364925",
"p  c #3C4B26",
"a  c #3E4E28",
"s  c #3C532C",
"d  c #3E4433",
"f  c #42532A",
"g  c #46592D",
"h  c #4A5C2F",
"j  c #404736",
"k  c #414639",
"l  c #424838",
"z  c #475335",
"x  c #4B5E30",
"c  c #495639",
"v  c #4D5C3B",
"b  c #505D3E",
"n  c #4D6031",
"m  c #476239",
"M  c #526534",
"N  c #546835",
"B  c #586D37",
"V  c #53633C",
"C  c #576A39",
"Z  c #596E38",
"A  c #5D713C",
"S  c #4A4F43",
"D  c #4B4E48",
"F  c #50544D",
"G  c #565A53",
"H  c #595D56",
"J  c #5B5F58",
"K  c #4C6742",
"L  c #4D6940",
"P  c #556442",
"I  c #596744",
"U  c #5A6B43",
"Y  c #5D6C4A",
"T  c #5E7041",
"R  c #5E774F",
"E  c #5C7A4D",
"W  c #5E615B",
"Q  c #5A7B51",
"!  c #5D7C58",
"~  c #616E4D",
"^  c #617542",
"/  c #63734E",
"(  c #67794C",
")  c #6A7B4F",
"_  c #626F50",
"`  c #61645E",
"'  c #627F51",
"]  c #6C7B56",
"[  c #6E7C59",
"{  c #707F59",
"}  c #656764",
"|  c #666865",
" . c #686A67",
".. c #6C6D6B",
"X. c #6F716C",
"o. c #71746F",
"O. c #767F6B",
"+. c #747572",
"@. c #777973",
"#. c #7A7C76",
"$. c #7D7E7A",
"%. c #6C814A",
"&. c #66855E",
"*. c #6C855B",
"=. c #718354",
"-. c #73825C",
";. c #798B5D",
":. c #6B8964",
">. c #778662",
",. c #788665",
"<. c #768B62",
"1. c #7C8B64",
"2. c #78806E",
"3. c #7E8D69",
"4. c #7F9064",
"5. c #75936B",
"6. c #7A9C6E",
"7. c #7D8573",
"8. c #7F817B",
"9. c #759370",
"0. c #7D9C74",
"q. c #808F6A",
"w. c #819267",
"e. c #83936B",
"r. c #88986F",
"t. c #81837E",
"y. c #82887A",
"u. c #869470",
"i. c #889772",
"p. c #839F76",
"a. c #8C9C74",
"s. c #839F78",
"d. c #8E9C79",
"f. c #909F78",
"g. c #8FA075",
"h. c #84A279",
"j. c #8AA57B",
"k. c #90A177",
"l. c #94A37C",
"z. c #93C460",
"x. c #A0C976",
"c. c #858684",
"v. c #878884",
"b. c #898B86",
"n. c #8C8E8A",
"m. c #8F908C",
"M. c #91938E",
"N. c #949691",
"B. c #969992",
"V. c #999B96",
"C. c #9D9E9A",
"Z. c #8DAA83",
"A. c #97A580",
"S. c #99A782",
"D. c #9AA983",
"F. c #93B18B",
"G. c #9EA19A",
"H. c #9DB793",
"J. c #A1A39E",
"K. c #A1BC97",
"L. c #A4BF9D",
"P. c #A5A6A2",
"I. c #A7A9A3",
"U. c #AAADA6",
"Y. c #ACADAA",
"T. c #AEB0A9",
"R. c #B1B2AE",
"E. c #B3B5B2",
"W. c #B7B8B5",
"Q. c #B8B9B7",
"!. c #BDBEBC",
"~. c #A3C29C",
"^. c #A6C0A3",
"/. c #ADC8A8",
"(. c #B2CBA9",
"). c #B6CFB1",
"_. c #BFC0BE",
"`. c #BFD6B9",
"'. c #C0C1BF",
"]. c #C4D5B2",
"[. c #C2DABF",
"{. c #C3C4C2",
"}. c #C8C9C6",
"|. c #CBCCCA",
" X c #C5DDC2",
".X c #C8DDC4",
"XX c #CFD0CE",
"oX c #D0D1CF",
"OX c #D2D3D1",
"+X c #D7D8D6",
"@X c #D8D9D7",
"#X c #DCDDDB",
"$X c #CDE3CB",
"%X c #CEE8CD",
"&X c #D3E7D1",
"*X c #D5EAD3",
"=X c #DFE0DE",
"-X c #DEF2DE",
";X c #E0E1DF",
":X c #E3E3E2",
">X c #E4F3E4",
",X c #EBF7EB",
"<X c #EDFBED",
"1X c #F3FDF4",
"2X c #FBFEFB",
"3X c None",
/* pixels */
"3X3X3X3X3X3X3X3X3X3X3X3X3X3X3X3X3X3X3X3X3X3X3X3X3X3X3X3X3X3X3X3X3X3X3X3X3X3X3X3X3X3X3X3X3X3X3X3X",
"3X3X3X3X3X3X3X3X3X3X3X3X3X3X3X3X3X3X3X3X3X3X3X3X3X3X3X3X3X3X3X3X3X3X3X3X3X3X3X3X3X3X3X3X3X3X3X3X",
"3X3X3X3X3X3X3X3X3X3X3X3X3X3X3X3X3X3X3X3X3X3X3X3X3X3X3X3X3X3X3X3X3X3X3X3X3X3X3X3X3X3X3X3X3X3X3X3X",
"3X3X3X3XJ.U.T.T.T.T.Y.Y.T.T.T.T.T.T.T.T.U.Y.U.U.I.I.I.J.J.J.J.G.C.C.C.B.B.B.B.N.M.M.n.8.3X3X3X3X",
"3X3X3XT.XX;X:X:X:X:X:X:X:X:X:X:X:X:X:X:X:X:X:X:X:X:X:X:X:X;X:X:X:X;X:X:X:X;X;X#X=X=X@X!.n.3X3X3X",
"3X3XT.#X:XOXOXOXOXOXOXOXOXOXOXOXOXOXoXOXOXOXoXoXOXOXOXOXOXOXoXoXOXOXOXXXoXOXOXOXoXOXOX:XOXv.3X3X",
"3XJ.|.:X|.|.{.'.!.!.!.!.'.!.!.!.'._.!.'.'._._.'._._._._._.{.{.'.'.'.{.{.{.{.{.{.{.}.}.|.=XW.o.3X",
"3XU.;X+X|.Y.+.| }  . .| |  .| | | ......X.X.X.o.o.o.+.+.@.@.@.#.#.$.$.$.$.$.$.8.t.m.E.|.OXOX7.3X",
"3XU.:XOX{.+.t e e e e e q e e q q q q e e q e q e e e q e e q e q e e q q q q q q S m.'.oXOX8.3X",
"3XT.:XOX!. .r e k k l k k k k k k k k k k k d d d d d d d d d d d d d d d d d d 8 q c.!.}.OX#.3X",
"3XT.:XOX!. .0 d d.D.D.D.S.S.S.S.l.D.A.l.l.l.l.l.A.d.l.l.g.l.l.g.k.g.g.g.a.a.g.w.w q v.W.{.oX#.3X",
"3XT.:XOX_. .0 d A.D.D.D.D.S.S.S.S.l.A.A.l.l.l.l.d.A.d.l.f.f.f.a.g.a.a.a.a.a.a.w.q 8 v.W.'.|.@.3X",
"3XT.:XOX'.| 0 d d.D.D.D.D.S.A.A.l.A.l.l.l.l.l.l.k.l.l.k.k.l.a.g.k.g.g.a.g.a.g.w.w 8 v.R.!.}.o.3X",
"3XT.:XOX'.| 0 w y.d.d.d.d.a.d.i.a.a.i.a.i.i.i.r.r.e.r.r.e.e.e.e.w.e.w.w.w.w.w.-.8 8 b.Y.W.}.X.3X",
"3XU.:XOX_.| 7 q e.d.d.d.a.a.a.d.a.i.a.i.i.r.r.r.r.r.e.e.e.e.e.e.e.w.w.4.;.%.%.A : > v.U.E.{.X.3X",
"3XI.:XOX_. .7 q ,.e.q.q.q.q.3.3.3.3.3.3.3.1.1.1.1.>.1.1.;.>.;.;.=.( A B N N M n - 4 b.P.T.'. .3X",
"3XP.:XOX'. .5 0 ,.e.e.e.q.q.q.q.q.3.3.4.4.1.4.;.1.1.1.;.;.-.) ^ Z Z B B B Z Z M - : y.I.U.!.} 3X",
"3XP.:XOX_...4 7 [ >.>.h.p.<.-.-.-.-.{ { { { [ { { [ [ / U M n n x x n n n n n g - : b.J.I.Q.} 3X",
"3XJ.;XOX'.X.4 7 [ >.-.K.*X(.h.<.-.{ -.-.{ { [ { ] ( A M M M M M M M M M M M M x & : n.G.J.E.| 3X",
"3XG.:XOX_...4 4 _ ] ] H.2X2X>X).h.*./ / / / / ~ V h g g g g g g g g h f g g h f & 3 b.V.G.R.} 3X",
"3XV.;XXXQ.X.3 4 ~ ] _ Z.&X,X2X2X>X[.Z.*.( ^ C x h h h h h h h h x x x h x x x g & ; n.N.B.T.} 3X",
"3XV.=X}.Q.X.3 3 P Y Y _ *.s.L..X>X1X>X Xp.m f f a f a f a f f f f f f f f f f p & ; b.M.N.U.| 3X",
"3XB.#X}.E.X.3 - P Y I I P I U %.6.L.*X,X~.g f f f f f f f f f f f f g f f f g a & - t.m.m.I.` 3X",
"3XN.@X'.R.X.; = c b b b K Q 5.F.).&X>X%Xh.s i i p p p p p p p p p p p p p p p y @ = n.n.b.J.` 3X",
"3XM.@X_.U.o.; = z c v :./.$X>X2X1X%XF.E g p p p p p p p p p a a p p a a a a f p @ = v.c.c.G.` 3X",
"3Xm.+XQ.U.o.= + y y y 0.1X2X<X[.h.m i 1 y y y y y y y y y y y y y y y y y y y 9 + = v.c.t.C.W 3X",
"3Xn.+XW.P.+.% + 1 y y 6.-X).9.m i y y y y y y y y y y y y y y p u u u u y p y 9 + = v.8.8.B.W 3X",
"3Xb.OXR.J.+.% O < 1 1 E &.s 9 1 1 1 1 1 1 1 1 1 1 1 1 1 2 1 1 1 2 2 2 2 9 9 2 1 O = c.8.8.N.` 3X",
"3Xc.OXY.C.+.% O < 1 2 y 1 < 1 1 1 1 1 1 1 1 1 1 1 9 9 9 2 2 2 2 2 2 9 2 2 2 2 < O = c.8.$.N.W 3X",
"3Xc.XXY.V.+.% O : , < < < , , , , , < , < , , < , , < < < < < < < < 1 < 1 < < , O % c.8.8.M.W 3X",
"3Xt.OXP.B.+.% O > : < , , > , , > , < m :.:.:.:.:.:.:.:.:.:.V < < < < < < < < , O % c.8.$.M.W 3X",
"3X8.|.J.N.+.% X * - - - - - : : : - , 9.<X<X<X<X<X<X<X<X<X<XZ.< - - > , : > , : o $ c.8.#.M.W 3X",
"3X8.|.C.n.#.% . = = * * * * * * - - : ! ~.^.^.^.^.^.^.^.^.^.:., , , * , - : : * o + c.8.#.m.J 3X",
"3X#.}.V.b.#.# . & = & = = & & * % = = , , , , , , , , , , , , * & & & & = = * & X $ c.8.8.m.W 3X",
"3X@.}.B.c.#.#   . X X X . X X X X X X X . . . .   X X X   X X X X X X X X X X .   # c.8.#.n.W 3X",
"3Xo.}.M.t.c.t # $ $ $ % $ $ % % % % % % % % $ % % % % % % % % % % % $ % % % % % % t m.#.#.b.W 3X",
"3Xo.}.n.#.8.c.#.$.t.$.c.c.c.c.c.c.c.b.c.b.c.b.c.c.c.c.c.c.c.c.c.c.c.c.c.c.c.c.v.c.M.c.@.#.b.W 3X",
"3XX.'.b.@.@.#.7.$.#.#.$.#.#.#.#.$.$.$.$.$.$.$.$.8.8.8.8.8.8.8.8.y.t.8.o.o.+.#.8.t.#.@.@.$.v.J 3X",
"3X| !.m.@.@.@.@.@.@.@.@.@.@.@.@.@.@.@.@.@.@.@.@.+.+.2.#.+.@.@.8.`.x.2...o.+.#.8.#.+.@.@.8.c.H 3X",
"3XH G.R.#.@.@.@.@.@.@.@.@.@.@.@.@.@.@.@.@.@.@.@.+.#.#.+.+.#.@.2.x.z.2.o.#.#.8.b.#.@.+.#.y.+.F 3X",
"3X3X| E.R.b.t.t.c.t.t.t.t.t.t.t.8.t.8.t.8.8.$.8.8.$.8.$.8.8.$.8.7.7.#.t.c.n.M.M.$.#.$.c.t.J 3X3X",
"3X3X3X} V.E.W.E.R.R.R.Y.T.Y.Y.U.U.I.P.P.P.P.J.G.C.C.C.V.B.B.N.N.N.M.M.M.M.M.m.n.b.b.y.+.J 3X3X3X",
"3X3X3X3XD W } ` } ` ` ` W ` W ` ` W W W J W W W W W W J W J J J J J J H H H H H H H G D 3X3X3X3X",
"3X3X3X3X3X3X3X3X3X3X3X3X3X3X3X3X3X3X3X3X3X3X3X3X3X3X3X3X3X3X3X3X3X3X3X3X3X3X3X3X3X3X3X3X3X3X3X3X",
"3X3X3X3X3X3X3X3X3X3X3X3X3X3X3X3X3X3X3X3X3X3X3X3X3X3X3X3X3X3X3X3X3X3X3X3X3X3X3X3X3X3X3X3X3X3X3X3X",
"3X3X3X3X3X3X3X3X3X3X3X3X3X3X3X3X3X3X3X3X3X3X3X3X3X3X3X3X3X3X3X3X3X3X3X3X3X3X3X3X3X3X3X3X3X3X3X3X",
"3X3X3X3X3X3X3X3X3X3X3X3X3X3X3X3X3X3X3X3X3X3X3X3X3X3X3X3X3X3X3X3X3X3X3X3X3X3X3X3X3X3X3X3X3X3X3X3X",
"3X3X3X3X3X3X3X3X3X3X3X3X3X3X3X3X3X3X3X3X3X3X3X3X3X3X3X3X3X3X3X3X3X3X3X3X3X3X3X3X3X3X3X3X3X3X3X3X"
};
