/* XPM */
static char *utilities_terminal[] = {
/* columns rows colors chars-per-pixel */
"48 48 210 2 ",
"   c #090B06",
".  c #0C0F08",
"X  c #0E1209",
"o  c #11160B",
"O  c #151B0E",
"+  c #181E0F",
"@  c #161A11",
"#  c #191D13",
"$  c #1D2513",
"%  c #1E2815",
"&  c #1E2219",
"*  c #212B17",
"=  c #21261A",
"-  c #242C1A",
";  c #282E1F",
":  c #25321A",
">  c #29341B",
",  c #2D391E",
"<  c #292D21",
"1  c #2D3225",
"2  c #2F3C20",
"3  c #2F3428",
"4  c #313E20",
"5  c #31362A",
"6  c #363C2D",
"7  c #383E2F",
"8  c #3A3F31",
"9  c #354323",
"0  c #384725",
"q  c #364C27",
"w  c #3C4D27",
"e  c #354D28",
"r  c #3E4E29",
"t  c #404F29",
"y  c #43542B",
"u  c #46582D",
"i  c #485A2E",
"p  c #425E31",
"a  c #4B5C34",
"s  c #4B543D",
"d  c #4E5B3C",
"f  c #4E6132",
"g  c #4E623F",
"h  c #556936",
"j  c #56663E",
"k  c #58693D",
"l  c #5C723A",
"z  c #4C4F49",
"x  c #4D5442",
"c  c #4E524A",
"v  c #52564F",
"b  c #535750",
"n  c #555953",
"m  c #595D56",
"M  c #5B5F58",
"N  c #536C44",
"B  c #5C6C46",
"V  c #5A6649",
"C  c #546E4A",
"Z  c #5D6B4A",
"A  c #4F7146",
"S  c #5F7343",
"D  c #567846",
"F  c #5C714C",
"G  c #5F7B4D",
"H  c #5E625A",
"J  c #616E4E",
"K  c #627842",
"L  c #687E43",
"P  c #64744D",
"I  c #61625F",
"U  c #677454",
"Y  c #687555",
"T  c #647C54",
"R  c #6C7A55",
"E  c #6E7B59",
"W  c #707D5D",
"Q  c #636362",
"!  c #666963",
"~  c #696C66",
"^  c #6C6D6B",
"/  c #6E716C",
"(  c #72756E",
")  c #747473",
"_  c #777973",
"`  c #797B76",
"'  c #7C7D7B",
"]  c #5D8154",
"[  c #6E834A",
"{  c #6C8353",
"}  c #61835A",
"|  c #768A54",
" . c #73835B",
".. c #7A8C5E",
"X. c #7E915F",
"o. c #6E8F69",
"O. c #758361",
"+. c #798765",
"@. c #718F66",
"#. c #7B8B64",
"$. c #7E8C6A",
"%. c #6E9162",
"&. c #6F9069",
"*. c #709365",
"=. c #7F9064",
"-. c #709069",
";. c #7B956E",
":. c #7B8077",
">. c #7E817B",
",. c #759570",
"<. c #7B9D72",
"1. c #818E6C",
"2. c #809166",
"3. c #84936C",
"4. c #86996B",
"5. c #899A6D",
"6. c #82847E",
"7. c #869471",
"8. c #899674",
"9. c #809D76",
"0. c #8C9C73",
"q. c #8B9778",
"w. c #8D9B79",
"e. c #919E7D",
"r. c #87A477",
"t. c #8FA174",
"y. c #85A47B",
"u. c #89A97E",
"i. c #91A375",
"p. c #93A37B",
"a. c #97A87C",
"s. c #9BAD7E",
"d. c #91D151",
"f. c #9ED665",
"g. c #848582",
"h. c #868982",
"j. c #898C85",
"k. c #8C8C8A",
"l. c #8F918B",
"z. c #91938D",
"x. c #95988F",
"c. c #959693",
"v. c #979894",
"b. c #999B96",
"n. c #9B9C9A",
"m. c #89AA85",
"M. c #96A382",
"N. c #98A584",
"B. c #9CAC83",
"V. c #91B085",
"C. c #9FB182",
"Z. c #95B58D",
"A. c #9DA097",
"S. c #9FA19A",
"D. c #9AB791",
"F. c #A1B285",
"G. c #A5B58A",
"H. c #A8B78D",
"J. c #A7B88E",
"K. c #A9B88F",
"L. c #A2A59D",
"P. c #A5A89F",
"I. c #AAB991",
"U. c #A1BF9C",
"Y. c #A1A2A0",
"T. c #A7A9A3",
"R. c #A9AAA6",
"E. c #ABADA9",
"W. c #AFB0AD",
"Q. c #B1B2AF",
"!. c #B4B5B2",
"~. c #B7B9B6",
"^. c #B8B9B7",
"/. c #BCBDBB",
"(. c #A3C097",
"). c #A1C09E",
"_. c #ADCBA9",
"`. c #B5D0AE",
"'. c #B7D3B4",
"]. c #BDD7B9",
"[. c #C0C2BF",
"{. c #C4C5C4",
"}. c #C8C9C6",
"|. c #CBCCCA",
" X c #C4DDC2",
".X c #CFD0CE",
"XX c #D0D1CE",
"oX c #D4D5D3",
"OX c #DBDCDB",
"+X c #C9E0C6",
"@X c #D7EEC0",
"#X c #D0E9CD",
"$X c #D5ECD4",
"%X c #D8EDD6",
"&X c #DFE0DF",
"*X c #DDF2DC",
"=X c #E0E1DF",
"-X c #E0F2DF",
";X c #E4E4E3",
":X c #E7E8E7",
">X c #E8E8E7",
",X c #EBECEB",
"<X c #E3F5E3",
"1X c #E6F8E6",
"2X c #EDF9ED",
"3X c #F0F0EF",
"4X c #F2F2F2",
"5X c #F4FCF4",
"6X c #FCFEFC",
"7X c None",
/* pixels */
"7X7X7X7X7X7X7X7X7X7X7X7X7X7X7X7X7X7X7X7X7X7X7X7X7X7X7X7X7X7X7X7X7X7X7X7X7X7X7X7X7X7X7X7X7X7X7X7X",
"7X7X7X7X7X7X7X7X7X7X7X7X7X7X7X7X7X7X7X7X7X7X7X7X7X7X7X7X7X7X7X7X7X7X7X7X7X7X7X7X7X7X7X7X7X7X7X7X",
"7X7X7X7X7X7X7X7X7X7X7X7X7X7X7X7X7X7X7X7X7X7X7X7X7X7X7X7X7X7X7X7X7X7X7X7X7X7X7X7X7X7X7X7X7X7X7X7X",
"7X7X7X7XT.L.L.L.L.L.Y.Y.L.L.L.L.L.L.L.L.L.S.S.n.n.n.v.x.x.x.z.z.l.l.k.k.j.h.h.6.6.6.6.6.7X7X7X7X",
"7X7X7XT.oX,X4X4X4X4X4X4X4X4X4X4X4X4X4X4X4X4X4X4X4X4X4X4X4X4X4X4X4X4X4X4X4X4X3X3X4X3X:X{.6.7X7X7X",
"7X7XT.>X;X.X|.|.|.|.|.|.|.|.|.|.|.|.|.|.|.|.|.|.|.|.|.|.|.|.|.|.|.|.|.|.|.|.|.|.|.|..X&X&X>.7X7X",
"7XP.oX;X|.|.|.{.[.{.{.{.{.{.{.{.{.{.{.{.{.{.{.{.{.{.{.{.{.{.{.{.{.}.{.}.}.}.{.}.}.|.|.|.&X{._ 7X",
"7XP.,XoX|.Q.^ I I I I I I I Q Q ! ! ! ! ^ ^ ^ ^ / / / ) ) ) _ ` ) ' ' ' ' ' 6.6.6.l.~.|..X;X( 7X",
"7XL.4X|.|.^ z 5 5 6 5 5 5 5 5 5 5 5 5 5 5 5 5 5 5 5 5 3 5 3 3 3 3 3 3 1 1 3 3 1 3 s k.|.}.:X^ 7X",
"7XL.3X.X|.I 5 5 8 8 8 8 8 8 8 8 8 8 7 7 8 7 7 8 8 8 7 7 7 6 7 7 6 6 7 6 6 7 7 6 1 1 k.{.{.:X~ 7X",
"7XL.3X.X|.I 3 5 I.I.I.I.G.J.H.G.J.H.G.H.G.G.G.F.F.F.F.C.C.B.C.C.C.C.C.C.C.s.s.s.1 1 l./.[.;X! 7X",
"7XL.3X|.|.Q 3 3 N.N.M.N.M.M.M.M.M.w.p.e.e.w.w.w.w.w.w.w.w.w.0.0.8.8.8.5.5.4.4.3.1 > l././.=X! 7X",
"7XL.4X|.|.I 3 3 F.B.B.B.B.B.B.B.N.N.s.B.a.s.a.a.a.a.a.a.a.a.i.i.p.i.i.t.t.t.t.t.1 ; z.~.^.OXI 7X",
"7XL.4X|.|.I < 1 q.q.q.q.q.q.8.8.8.7.7.7.7.7.3.3.1.1.2.1.$.$.$.2.2.2.2.#.2.#.#...; - z.Q.!.OXH 7X",
"7XS.4X|.|.Q < 1 M.p.e.p.p.e.t.t.t.t.t.0.0.0.t.5.t.5.5.5.5.5.5.5.5.2.4.2.X.| [ L $ $ z.Q.W.oXM 7X",
"7XS.4X|.|.! < < 1.1.$.$.$.$.$.+.$.+.+.+.+.+.+.O.+.O.O.O.O. . . .E K k f f f f f $ & c.E.R.oXm 7X",
"7Xb.4X|.|.Q < < 5.3.3.4.3.3.3.1.2.2.2.2.2.2.2.2.2.=.X.=.....{ K l l l l l l l l $ $ x.T.T..Xb 7X",
"7Xv.3X.X|.^ = < O.O.O.y.;.O. .E W W W W R R R R R Y R P j i i i i u i i i i i i $ + b.L.L.|.b 7X",
"7Xx.3X|.|.^ = = +.+.+.(.*X`.r.#.+. . . . . .{  . .R S h h h h h h h h h h h h h + + n.S.n.}.b 7X",
"7Xz.4X.X|.^ = = U U U D.6X6X2X].y.T P J J J J B a y y y t y t y y y y y y y y y + @ v.n.b.{.b 7X",
"7Xz.3X{.{./ & = T R R V.-X5X6X6X2X].u.{ P P B f f f f i f a f f f f f f f f f f # + n.x.z.[.b 7X",
"7Xk.3X}.[.) # & Z V V F T <.U. X2X5X5X X<.y w q w w t w w t w w w w w w t w t w O O n.z.l./.b 7X",
"7Xj.,X[./.) # & Z Z Z B B B B G %.Z.#X1X).p i u y u y u u u u u u u u u i u u u O O b.k.k.^.b 7X",
"7X6.,X/.^.) # # d s d d g N *.Z.'.<X1X*Xy.r 0 0 0 0 0 0 0 0 0 0 0 0 0 0 0 0 0 0 O o b.j.g.!.b 7X",
"7Xh.,X~.!._ # # d d d %._.%X2X6X5X$XZ.D u t t t t t t t t t t t t t t t t t t t O o b.g.g.W.b 7X",
"7X6.>X!.W.` o o 9 9 9 <.5X6X2X X<.p 9 4 2 4 2 4 4 4 4 4 4 4 9 4 2 9 9 2 9 9 9 9 o o c.6.' R.b 7X",
"7X>.>XW.R.' o X 9 9 0 <.1X_.%.p 0 9 9 0 0 9 9 0 0 0 0 0 0 0 0 0 q 9 0 q 0 0 0 0 o o b.' _ T.b 7X",
"7X:.:XE.T.' X o , , , ] } q , , , , , , , , , , , > , , , , , , , , , , , , , , o X b.` _ Y.b 7X",
"7X` :XT.Y.' X X , , 2 q 2 , , 4 , 2 2 2 2 2 2 2 2 2 2 2 4 4 4 4 2 4 4 4 4 4 9 4 X X b.` _ L.b 7X",
"7X) ;XY.n.g.. . > - > - > > > : : > > > > : > > > > > > > > : > > > > > > > : > X X b.` _ L.b 7X",
"7X( ;Xn.b.g.. . > > > : > > > > > > > A -.-.&.-.@.-.&.-.@.%.N , , > > > > , 1 > X   b.` _ n.b 7X",
"7X( &Xn.c.g.. . * % * * * * * * * * * ,.2X5X5X5X5X5X5X5X5X5Xm.: * * : - - - - - .   b.` _ n.b 7X",
"7X/ &Xx.k.h.    = * * * * * * * * % * } ).).).).).).).).).).o.: * * * * * - - - .   v.' _ n.b 7X",
"7X^ &Xz.k.k.    % % $ $ & $ $ $ $ & % : : : : : : : : : : : : % % % % % $ $ % % .   v.` _ c.n 7X",
"7X~ OXl.g.k.                                                                        c.` _ c.n 7X",
"7X! OXh.g.h.&                                                                     & n._ _ c.n 7X",
"7XI OX6.' 6.k.z.c.v.v.b.b.n.n.n.n.Y.Y.Y.Y.Y.Y.Y.n.Y.Y.Y.Y.Y.Y.Y.Y.Y.Y.Y.Y.n.Y.Y.Y.b.6._ _ c.v 7X",
"7XI OX>._ _ _ _ ) _ _ _ ) _ ` ` _ _ ) ` _ _ _ _ _ _ _ _ ) ) _ _ _ ) _ ^ ! ^ ) ` _ _ _ _ _ l.v 7X",
"7XH |.j._ _ _ _ ` ) _ _ _ _ ) ` _ _ _ _ _ _ _ _ _ _ _ _ _ _ _ _ @Xf._ ! _ _ _ g._ _ _ _ ` h.b 7X",
"7Xm L.~._ _ _ _ _ ` _ _ _ _ _ _ _ _ _ _ _ _ _ _ _ _ _ _ _ _ _ _ f.d._ ( _ ` ` l.` _ _ _ g._ b 7X",
"7X7Xm {.Q.g._ _ _ _ _ _ _ ) _ _ _ _ _ _ _ _ _ _ _ _ _ ` _ _ _ _ _ _ _ ' g.k.x.z._ _ ` g.g.n 7X7X",
"7X7X7Xm n.{..X|.|.}.|.{.{.{.{./././.^.~.!.!.Q.Q.W.W.R.R.T.T.Y.L.S.S.n.n.n.c.c.x.z.l.j.( b 7X7X7X",
"7X7X7X7Xc b b b b b b b b b v v b b b b b b b b b b b b b b b b b b b b b b b b b b b z 7X7X7X7X",
"7X7X7X7X7X7X7X7X7X7X7X7X7X7X7X7X7X7X7X7X7X7X7X7X7X7X7X7X7X7X7X7X7X7X7X7X7X7X7X7X7X7X7X7X7X7X7X7X",
"7X7X7X7X7X7X7X7X7X7X7X7X7X7X7X7X7X7X7X7X7X7X7X7X7X7X7X7X7X7X7X7X7X7X7X7X7X7X7X7X7X7X7X7X7X7X7X7X",
"7X7X7X7X7X7X7X7X7X7X7X7X7X7X7X7X7X7X7X7X7X7X7X7X7X7X7X7X7X7X7X7X7X7X7X7X7X7X7X7X7X7X7X7X7X7X7X7X",
"7X7X7X7X7X7X7X7X7X7X7X7X7X7X7X7X7X7X7X7X7X7X7X7X7X7X7X7X7X7X7X7X7X7X7X7X7X7X7X7X7X7X7X7X7X7X7X7X",
"7X7X7X7X7X7X7X7X7X7X7X7X7X7X7X7X7X7X7X7X7X7X7X7X7X7X7X7X7X7X7X7X7X7X7X7X7X7X7X7X7X7X7X7X7X7X7X7X"
};
