/* XPM */
static char *text_x_generic[] = {
/* columns rows colors chars-per-pixel */
"48 48 123 2 ",
"   c gray27",
".  c #484848",
"X  c #4C4C4C",
"o  c #4E4E4E",
"O  c gray31",
"+  c #505050",
"@  c #515151",
"#  c gray32",
"$  c #535353",
"%  c gray33",
"&  c #555555",
"*  c #565656",
"=  c gray34",
"-  c #585858",
";  c gray35",
":  c #5A5A5A",
">  c #5B5B5B",
",  c gray36",
"<  c #5D5D5D",
"1  c gray37",
"2  c #5F5F5F",
"3  c gray38",
"4  c #626262",
"5  c gray39",
"6  c #656565",
"7  c #676767",
"8  c #686868",
"9  c DimGray",
"0  c #6A6A6A",
"q  c gray42",
"w  c #6D6D6D",
"e  c gray43",
"r  c #6F6F6F",
"t  c gray44",
"y  c #727272",
"u  c gray45",
"i  c gray46",
"p  c #767676",
"a  c #777777",
"s  c gray47",
"d  c #7B7B7B",
"f  c #7C7C7C",
"g  c gray49",
"h  c #7E7E7E",
"j  c gray50",
"k  c #808080",
"l  c #818181",
"z  c gray51",
"x  c #838383",
"c  c #848484",
"v  c gray52",
"b  c #888888",
"n  c #898989",
"m  c gray54",
"M  c #8B8B8B",
"N  c gray55",
"B  c #8E8E8E",
"V  c gray56",
"C  c #909090",
"Z  c #929292",
"A  c #939393",
"S  c #959595",
"D  c gray59",
"F  c #979797",
"G  c #989898",
"H  c gray60",
"J  c #9B9B9B",
"K  c gray61",
"L  c #9D9D9D",
"P  c gray62",
"I  c #A0A0A0",
"U  c gray63",
"Y  c gray64",
"T  c #A4A4A4",
"R  c #A5A5A5",
"E  c #BBBBBB",
"W  c #BCBCBC",
"Q  c gray74",
"!  c gray",
"~  c gray75",
"^  c #C0C0C0",
"/  c #C1C1C1",
"(  c gray76",
")  c #C3C3C3",
"_  c gray77",
"`  c #C5C5C5",
"'  c gray79",
"]  c gray83",
"[  c #D8D8D8",
"{  c #DADADA",
"}  c gainsboro",
"|  c #DDDDDD",
" . c gray87",
".. c #DFDFDF",
"X. c gray88",
"o. c #E1E1E1",
"O. c #E2E2E2",
"+. c gray89",
"@. c #E4E4E4",
"#. c gray90",
"$. c #E6E6E6",
"%. c #E7E7E7",
"&. c gray91",
"*. c #E9E9E9",
"=. c #EAEAEA",
"-. c gray92",
";. c #ECECEC",
":. c gray93",
">. c #EEEEEE",
",. c #EFEFEF",
"<. c gray94",
"1. c #F1F1F1",
"2. c gray95",
"3. c #F3F3F3",
"4. c #F4F4F4",
"5. c gray96",
"6. c #F6F6F6",
"7. c gray97",
"8. c #F8F8F8",
"9. c #F9F9F9",
"0. c gray98",
"q. c #FBFBFB",
"w. c None",
/* pixels */
"w.w.w.w.w.w.w.w.w.w.w.w.w.w.w.w.w.w.w.w.w.w.w.w.w.w.w.w.w.w.w.w.w.w.w.w.w.w.w.w.w.w.w.w.w.w.w.w.",
"w.w.w.w.w.w.w.w.w.w.w.w.w.w.w.w.w.w.w.w.w.w.w.w.w.w.w.w.w.w.w.w.w.w.w.w.w.w.w.w.w.w.w.w.w.w.w.w.",
"w.w.w.w.w.w.w.w.w.w.w.w.w.w.w.w.w.w.w.w.w.w.w.w.w.w.w.w.w.w.w.w.w.w.w.w.w.w.w.w.w.w.w.w.w.w.w.w.",
"w.w.w.w.w.w.w.L L U R R R U U L L J F F Z Z Z N M M v x x g g d a a a y r r 9 9 9 w.w.w.w.w.w.w.",
"w.w.w.w.w.w.J &.9.q.q.9.q.q.9.9.9.9.9.9.9.q.q.9.9.q.9.9.9.9.9.9.9.9.9.9.9.9.7.9.&.3 w.w.w.w.w.w.",
"w.w.w.w.w.w.J 7.@.O.O. .&.O.O.O.@.@.@.@.@.@.@.@.@.@.@.&.@.@.&.@.&.@.@.@.@.@.@.@.9.< w.w.w.w.w.w.",
"w.w.w.w.w.w.F 7.@. .O.{ @.O.O.O.O.O.O.O.@.O.@.O.@.@.@.@.@.@.@.@.@.&.@.@.@.@.@.&.9.< w.w.w.w.w.w.",
"w.w.w.w.w.w.F 7.@. . . .@.O.O.O.O.O.O.O.@.@.@.@.@.@.@.@.@.&.@.@.@.@.&.@.@.@.@.&.7.< w.w.w.w.w.w.",
"w.w.w.w.w.w.F 7.O. .O.{ &.O.O.O.O.O.@.O.@.@.@.@.&.@.@.@.@.@.@.&.@.@.@.@.@.&.@.&.7.< w.w.w.w.w.w.",
"w.w.w.w.w.w.F 7.O.O. . .@.O.O.@.E E ~ ~ ~ E ~ ~ ~ ~ ~ ~ ~ ~ ~ ~ ~ ~ ~ ~ &.@.@.&.7.< w.w.w.w.w.w.",
"w.w.w.w.w.w.Z 7.@. .O. .&.O.@.@.@.@.@.@.O.@.@.@.@.@.@.@.@.@.@.&.@.&.&.@.&.@.&.&.7.< w.w.w.w.w.w.",
"w.w.w.w.w.w.Z 7.@.O.O. .&.@.O.@.E ~ E E ~ ~ ~ ~ ~ ~ ~ ~ ^ ~ ~ ~ ~ ~ ~ ~ &.&.&.&.9.: w.w.w.w.w.w.",
"w.w.w.w.w.w.Z 7.@.O.O. .&.@.@.@.@.@.@.@.@.@.&.@.&.@.&.&.&.&.&.&.&.&.&.&.&.&.&.&.7.: w.w.w.w.w.w.",
"w.w.w.w.w.w.N 7.@.O.O. .&.@.&.@.E ~ ~ ~ ~ ~ ~ ~ ^ ~ ~ ^ ~ ~ ~ ~ ~ ~ ~ ~ &.;.&.&.7.: w.w.w.w.w.w.",
"w.w.w.w.w.w.N 7.&.O.@. .;.@.&.@.@.@.@.&.@.&.&.&.&.&.&.&.;.&.&.&.&.;.&.&.;.&.&.;.9.: w.w.w.w.w.w.",
"w.w.w.w.w.w.M 7.&.@.O.O.&.@.@.&.~ ~ ~ ~ ~ ~ ~ ~ ^ ^ ~ ~ ^ ^ ^ ^ ^ ^ ^ ^ ;.;.;.&.7.: w.w.w.w.w.w.",
"w.w.w.w.w.w.M 7.&.O.O.O.&.&.@.&.@.@.&.&.&.&.;.&.&.;.&.;.;.&.;.;.;.;.;.&.;.;.;.;.9.: w.w.w.w.w.w.",
"w.w.w.w.w.w.v 7.&.]  .O.;.@.&.&.~ ~ ~ ^ ^ ^ ^ ~ ^ ^ ~ ~ ^ ~ ^ ^ ^ ^ ^ ~ ;.;.;.;.9.: w.w.w.w.w.w.",
"w.w.w.w.w.w.v 7.&.' O.O.;.&.&.&.&.&.&.&.&.&.;.;.;.;.;.;.;.;.;.;.;.;.<.;.;.;.;.;.7.= w.w.w.w.w.w.",
"w.w.w.w.w.w.v 7.&.@.;.O.;.@.&.&.~ ~ ^ ^ ~ ~ ^ ^ ^ ^ ^ ^ ^ ^ ^ ^ ^ ^ ^ ^ ;.;.;.<.9.= w.w.w.w.w.w.",
"w.w.w.w.w.w.x 7.&.&.@.@.;.&.&.&.&.&.&.;.;.;.;.;.;.<.;.;.<.<.;.<.;.<.;.;.;.<.;.<.7.= w.w.w.w.w.w.",
"w.w.w.w.w.w.g 9.&.@.@.@.;.&.&.&.^ ^ ~ ^ ~ ~ ^ ^ ^ ^ ^ ^ ^ ^ ^ ^ _ ^ ^ _ <.;.<.;.9.# w.w.w.w.w.w.",
"w.w.w.w.w.w.g 9.&.@.&.@.;.&.&.&.&.;.&.;.;.;.;.;.<.;.<.<.<.<.<.<.<.<.<.<.<.<.<.<.7.# w.w.w.w.w.w.",
"w.w.w.w.w.w.g 9.&.@.&.O.<.&.&.;.^ ^ ^ ^ ^ ^ ^ ^ ^ ^ ^ ^ ^ ^ _ ^ ^ ^ ^ ^ <.<.<.<.9.# w.w.w.w.w.w.",
"w.w.w.w.w.w.d 7.&.&.&.@.;.&.;.&.;.;.;.;.;.<.;.<.<.<.<.<.<.<.<.<.<.<.<.<.<.<.<.<.9.# w.w.w.w.w.w.",
"w.w.w.w.w.w.a 7.&.&.&.@.;.&.&.;.~ ^ ^ ^ ^ ^ ^ ^ ^ <.<.<.<.7.7.<.<.7.7.<.<.<.<.<.7.o w.w.w.w.w.w.",
"w.w.w.w.w.w.a 7.&.&.&.@.<.&.;.;.;.;.;.<.<.<.<.<.<.<.<.<.<.<.<.<.<.<.<.<.7.<.<.<.9.o w.w.w.w.w.w.",
"w.w.w.w.w.w.y 7.&.&.&.@.;.;.;.&.;.;.;.<.;.<.<.<.7.<.<.7.7.7.<.7.7.<.7.<.<.7.<.7.7.o w.w.w.w.w.w.",
"w.w.w.w.w.w.y 7.&.&.&.@.<.&.;.;.;.;.;.<.<.<.<.<.<.<.<.7.<.7.<.7.7.<.7.7.<.7.<.<.7.o w.w.w.w.w.w.",
"w.w.w.w.w.w.r 7.&.~ { @.;.;.;.;.^ ^ ^ ^ ^ _ ^ _ _ ^ _ ^ _ ^ _ ^ _ ^ ^ _ 7.<.7.7.7.o w.w.w.w.w.w.",
"w.w.w.w.w.w.r 7.&. .<.@.<.;.;.;.;.;.<.<.<.<.<.<.7.<.<.7.<.7.7.7.7.7.<.7.<.7.7.<.7.o w.w.w.w.w.w.",
"w.w.w.w.w.w.9 7.;.&.&.@.;.;.;.;.^ ^ ^ ^ ^ ^ _ _ ^ _ _ _ _ _ _ ^ _ _ _ ^ 7.7.<.7.7.o w.w.w.w.w.w.",
"w.w.w.w.w.w.9 7.&.&.&.&.;.;.;.;.;.<.<.<.<.<.<.7.<.7.<.7.7.7.7.7.7.7.7.7.<.7.<.7.7.o w.w.w.w.w.w.",
"w.w.w.w.w.w.9 7.&.&.&.&.<.;.;.;.^ ^ ^ ^ ^ _ ^ ^ _ _ _ ^ _ _ ^ _ _ _ _ ^ 7.7.7.7.7.o w.w.w.w.w.w.",
"w.w.w.w.w.w.6 7.;.&.&.@.<.;.;.;.<.;.<.<.<.<.7.7.<.7.7.7.7.7.7.9.9.9.9.7.7.7.<.7.7.o w.w.w.w.w.w.",
"w.w.w.w.w.w.3 <.;.&.&.&.<.;.;.;.^ ^ ^ ^ _ ^ ^ _ _ _ _ ^ _ _ _ _ _ _ _ _ 7.7.7.7.7.o w.w.w.w.w.w.",
"w.w.w.w.w.w.3 7.;.&.&.&.;.;.;.;.<.<.<.<.<.7.<.7.7.7.7.7.7.7.9.9.9.9.9.7.7.7.<.7.7.o w.w.w.w.w.w.",
"w.w.w.w.w.w.< 7.;.&.&.@.<.;.;.;.^ ^ ^ ^ ^ ^ ^ ^ ^ ^ _ ^ _ _ 7.9.9.9.9.7.7.7.7.7.7.o w.w.w.w.w.w.",
"w.w.w.w.w.w.< 7.;.&.&.&.<.;.;.;.;.<.;.<.<.7.<.7.7.7.7.7.7.7.9.9.9.9.9.9.7.7.<.7.7.o w.w.w.w.w.w.",
"w.w.w.w.w.w.: <.;.&.&.&.;.;.;.<.<.;.<.<.<.<.<.7.<.7.<.7.7.7.7.9.9.9.9.7.7.7.7.7.7.o w.w.w.w.w.w.",
"w.w.w.w.w.w.: <.;.&.;.@.<.&.;.;.<.<.<.<.<.<.<.<.<.<.7.7.7.7.7.7.7.7.7.7.7.7.7.7.7.o w.w.w.w.w.w.",
"w.w.w.w.w.w.= <.&.&.&.@.<.;.;.;.;.;.;.<.<.7.7.<.7.7.<.7.7.7.7.7.7.7.7.7.7.7.<.7.7.o w.w.w.w.w.w.",
"w.w.w.w.w.w.# 7.;.&.&.@.;.;.;.<.;.<.;.;.<.<.<.<.<.7.7.<.<.7.7.7.7.7.7.7.<.7.7.<.7.o w.w.w.w.w.w.",
"w.w.w.w.w.w.# ;.9.9.9.9.9.9.9.9.9.9.9.9.9.7.9.9.9.7.7.9.7.9.7.7.7.7.9.7.9.7.7.7.7.o w.w.w.w.w.w.",
"w.w.w.w.w.w.  o X o X o o o X X o X X o X o X o X o X X o X X o X o X X o X X o X X w.w.w.w.w.w.",
"w.w.w.w.w.w.w.w.w.w.w.w.w.w.w.w.w.w.w.w.w.w.w.w.w.w.w.w.w.w.w.w.w.w.w.w.w.w.w.w.w.w.w.w.w.w.w.w.",
"w.w.w.w.w.w.w.w.w.w.w.w.w.w.w.w.w.w.w.w.w.w.w.w.w.w.w.w.w.w.w.w.w.w.w.w.w.w.w.w.w.w.w.w.w.w.w.w.",
"w.w.w.w.w.w.w.w.w.w.w.w.w.w.w.w.w.w.w.w.w.w.w.w.w.w.w.w.w.w.w.w.w.w.w.w.w.w.w.w.w.w.w.w.w.w.w.w."
};
